<svg xmlns="http://www.w3.org/2000/svg" height="511pt" version="1.1" viewBox="-4 1 511 511.99999" width="511pt">
<g id="surface1">
<path d="M 399.6875 251.660156 L 399.6875 399.1875 L 226.128906 399.1875 L 226.128906 251.660156 C 226.101562 248.730469 226.480469 245.808594 227.253906 242.984375 L 0.5 242.984375 L 5.535156 308.328125 C 9.183594 356.574219 32.882812 401.078125 70.878906 431.035156 C 79.742188 438.148438 89.308594 444.34375 99.429688 449.519531 C 123.910156 462.097656 151.046875 468.644531 178.570312 468.609375 L 325.75 468.609375 C 353.273438 468.644531 380.410156 462.097656 404.890625 449.519531 C 415.011719 444.34375 424.578125 438.148438 433.441406 431.035156 C 471.4375 401.078125 495.140625 356.574219 498.789062 308.328125 L 503.820312 242.984375 L 398.558594 242.984375 C 399.332031 245.808594 399.714844 248.730469 399.6875 251.660156 Z M 399.6875 251.660156 " style=" stroke:none;fill-rule:nonzero;fill:rgb(100%,89.411765%,46.666667%);fill-opacity:1;" />
<path d="M 51.527344 489.175781 C 48.507812 498.273438 53.433594 508.097656 62.53125 511.117188 C 64.273438 511.695312 66.09375 511.992188 67.929688 512 L 78.601562 512 L 99.429688 449.519531 C 89.308594 444.34375 79.742188 438.148438 70.878906 431.035156 Z M 51.527344 489.175781 " style=" stroke:none;fill-rule:nonzero;fill:rgb(93.72549%,80.392157%,22.352941%);fill-opacity:1;" />
<path d="M 425.722656 512 L 436.394531 512 C 445.980469 511.960938 453.71875 504.160156 453.679688 494.574219 C 453.671875 492.738281 453.375 490.917969 452.796875 489.175781 L 433.445312 431.035156 C 424.578125 438.148438 415.011719 444.34375 404.894531 449.519531 Z M 425.722656 512 " style=" stroke:none;fill-rule:nonzero;fill:rgb(93.72549%,80.392157%,22.352941%);fill-opacity:1;" />
<path d="M 35.210938 78.101562 L 35.210938 26.035156 C 35.210938 16.449219 27.441406 8.679688 17.855469 8.679688 C 8.273438 8.679688 0.5 16.449219 0.5 26.035156 L 0.5 242.984375 L 35.210938 242.984375 Z M 35.210938 78.101562 " style=" stroke:none;fill-rule:nonzero;fill:rgb(77.647059%,77.254902%,79.215686%);fill-opacity:1;" />
<path d="M 139.347656 78.101562 C 148.921875 78.128906 156.675781 85.882812 156.703125 95.457031 L 156.703125 112.8125 L 148.027344 112.8125 C 138.441406 112.8125 130.667969 120.585938 130.667969 130.167969 C 130.667969 139.753906 138.441406 147.523438 148.027344 147.523438 L 200.09375 147.523438 C 209.679688 147.523438 217.449219 139.753906 217.449219 130.167969 C 217.449219 120.582031 209.679688 112.8125 200.09375 112.8125 L 191.414062 112.8125 L 191.414062 95.457031 C 191.414062 66.703125 168.101562 43.390625 139.347656 43.390625 L 35.210938 43.390625 L 35.210938 78.101562 Z M 139.347656 78.101562 " style=" stroke:none;fill-rule:nonzero;fill:rgb(77.647059%,77.254902%,79.215686%);fill-opacity:1;" />
<path d="M 87.28125 8.679688 L 121.992188 8.679688 L 121.992188 43.390625 L 87.28125 43.390625 Z M 87.28125 8.679688 " style=" stroke:none;fill-rule:nonzero;fill:rgb(53.72549%,53.333333%,56.470588%);fill-opacity:1;" />
<path d="M 226.128906 399.1875 L 399.6875 399.1875 L 399.6875 251.660156 C 399.714844 248.730469 399.332031 245.808594 398.558594 242.984375 C 394.625 227.652344 380.804688 216.9375 364.976562 216.949219 L 260.839844 216.949219 C 245.011719 216.9375 231.1875 227.652344 227.257812 242.984375 C 226.480469 245.808594 226.101562 248.730469 226.128906 251.660156 Z M 226.128906 399.1875 " style=" stroke:none;fill-rule:nonzero;fill:rgb(34.117647%,64.313725%,100%);fill-opacity:1;" />
<path d="M 148.027344 17.355469 L 61.246094 17.355469 C 56.453125 17.355469 52.566406 13.46875 52.566406 8.675781 C 52.566406 3.882812 56.453125 0 61.246094 0 L 148.027344 0 C 152.816406 0 156.703125 3.886719 156.703125 8.679688 C 156.703125 13.472656 152.820312 17.355469 148.027344 17.355469 Z M 148.027344 17.355469 " style=" stroke:none;fill-rule:nonzero;fill:rgb(53.72549%,53.333333%,56.470588%);fill-opacity:1;" />
</g>
</svg>