<svg xmlns="http://www.w3.org/2000/svg" height="512pt" version="1.1" viewBox="0 -79 512.00089 512" width="512pt">
<g id="surface1">
<path d="M 44.136719 229.519531 L 0 229.519531 L 0 353.105469 L 35.3125 353.105469 L 35.3125 317.792969 C 35.3125 308.042969 43.214844 300.136719 52.964844 300.136719 L 459.035156 300.136719 C 468.785156 300.136719 476.691406 308.042969 476.691406 317.792969 L 476.691406 353.105469 L 512 353.105469 L 512 229.519531 Z M 44.136719 229.519531 " style=" stroke:none;fill-rule:nonzero;fill:rgb(50.196078%,40.392157%,28.627451%);fill-opacity:1;" />
<path d="M 503.171875 194.207031 L 503.171875 185.378906 C 503.171875 165.878906 487.363281 150.070312 467.863281 150.070312 L 44.136719 150.070312 C 24.636719 150.070312 8.828125 165.878906 8.828125 185.378906 L 8.828125 194.207031 C 8.828125 213.707031 24.636719 229.519531 44.136719 229.519531 L 467.863281 229.519531 C 487.363281 229.519531 503.171875 213.707031 503.171875 194.207031 Z M 503.171875 194.207031 " style=" stroke:none;fill-rule:nonzero;fill:rgb(34.117647%,64.313725%,100%);fill-opacity:1;" />
<path d="M 70.621094 105.933594 C 70.671875 62.074219 106.214844 26.539062 150.070312 26.484375 L 361.929688 26.484375 C 405.785156 26.535156 441.324219 62.074219 441.378906 105.933594 L 441.378906 150.070312 L 467.863281 150.070312 L 467.863281 105.933594 C 467.863281 47.429688 420.433594 0 361.929688 0 L 150.070312 0 C 91.566406 0 44.136719 47.425781 44.136719 105.933594 L 44.136719 150.070312 L 70.621094 150.070312 Z M 70.621094 105.933594 " style=" stroke:none;fill-rule:nonzero;fill:rgb(75.294118%,67.058824%,56.862745%);fill-opacity:1;" />
<path d="M 361.929688 26.484375 L 150.070312 26.484375 C 106.191406 26.484375 70.621094 62.054688 70.621094 105.933594 L 70.621094 150.070312 L 123.585938 150.070312 L 123.585938 114.757812 C 123.585938 105.007812 131.492188 97.105469 141.242188 97.105469 L 211.863281 97.105469 C 221.613281 97.105469 229.515625 105.007812 229.515625 114.757812 L 229.515625 150.070312 L 282.480469 150.070312 L 282.480469 114.757812 C 282.480469 105.007812 290.386719 97.105469 300.136719 97.105469 L 370.757812 97.105469 C 380.507812 97.105469 388.414062 105.007812 388.414062 114.757812 L 388.414062 150.070312 L 441.378906 150.070312 L 441.378906 105.933594 C 441.378906 62.054688 405.808594 26.484375 361.929688 26.484375 Z M 361.929688 26.484375 " style=" stroke:none;fill-rule:nonzero;fill:rgb(74.117647%,85.882353%,100%);fill-opacity:1;" />
<path d="M 123.585938 114.757812 L 123.585938 150.070312 L 229.519531 150.070312 L 229.519531 114.757812 C 229.519531 105.007812 221.613281 97.105469 211.863281 97.105469 L 141.242188 97.105469 C 131.492188 97.105469 123.585938 105.007812 123.585938 114.757812 Z M 123.585938 114.757812 " style=" stroke:none;fill-rule:nonzero;fill:rgb(14.117647%,53.333333%,100%);fill-opacity:1;" />
<path d="M 282.484375 114.757812 L 282.484375 150.070312 L 388.414062 150.070312 L 388.414062 114.757812 C 388.414062 105.007812 380.507812 97.105469 370.757812 97.105469 L 300.136719 97.105469 C 290.386719 97.105469 282.484375 105.007812 282.484375 114.757812 Z M 282.484375 114.757812 " style=" stroke:none;fill-rule:nonzero;fill:rgb(14.117647%,53.333333%,100%);fill-opacity:1;" />
</g>
</svg>