<svg xmlns="http://www.w3.org/2000/svg" height="512pt" version="1.1" viewBox="0 -44 512.00001 512" width="512pt">
<g id="surface1">
<path d="M 432.550781 105.929688 L 494.34375 105.929688 L 494.34375 35.3125 L 17.65625 35.3125 L 17.65625 105.929688 Z M 432.550781 105.929688 " style=" stroke:none;fill-rule:nonzero;fill:rgb(78.823529%,93.333333%,68.235294%);fill-opacity:1;" />
<path d="M 432.550781 211.863281 L 494.34375 211.863281 L 494.34375 141.242188 L 17.65625 141.242188 L 17.65625 211.863281 Z M 432.550781 211.863281 " style=" stroke:none;fill-rule:nonzero;fill:rgb(78.823529%,93.333333%,68.235294%);fill-opacity:1;" />
<path d="M 432.550781 264.828125 L 0 264.828125 L 0 300.136719 L 512 300.136719 L 512 264.828125 Z M 432.550781 264.828125 " style=" stroke:none;fill-rule:nonzero;fill:rgb(54.509804%,36.862745%,23.529412%);fill-opacity:1;" />
<path d="M 44.136719 300.136719 L 79.449219 300.136719 L 79.449219 423.722656 L 44.136719 423.722656 Z M 44.136719 300.136719 " style=" stroke:none;fill-rule:nonzero;fill:rgb(66.27451%,48.627451%,31.372549%);fill-opacity:1;" />
<path d="M 432.550781 300.136719 L 467.863281 300.136719 L 467.863281 423.722656 L 432.550781 423.722656 Z M 432.550781 300.136719 " style=" stroke:none;fill-rule:nonzero;fill:rgb(66.27451%,48.627451%,31.372549%);fill-opacity:1;" />
<path d="M 44.136719 211.863281 L 79.449219 211.863281 L 79.449219 264.828125 L 44.136719 264.828125 Z M 44.136719 211.863281 " style=" stroke:none;fill-rule:nonzero;fill:rgb(66.27451%,48.627451%,31.372549%);fill-opacity:1;" />
<path d="M 432.550781 211.863281 L 467.863281 211.863281 L 467.863281 264.828125 L 432.550781 264.828125 Z M 432.550781 211.863281 " style=" stroke:none;fill-rule:nonzero;fill:rgb(66.27451%,48.627451%,31.372549%);fill-opacity:1;" />
<path d="M 44.136719 105.929688 L 79.449219 105.929688 L 79.449219 141.242188 L 44.136719 141.242188 Z M 44.136719 105.929688 " style=" stroke:none;fill-rule:nonzero;fill:rgb(66.27451%,48.627451%,31.372549%);fill-opacity:1;" />
<path d="M 432.550781 105.929688 L 467.863281 105.929688 L 467.863281 141.242188 L 432.550781 141.242188 Z M 432.550781 105.929688 " style=" stroke:none;fill-rule:nonzero;fill:rgb(66.27451%,48.627451%,31.372549%);fill-opacity:1;" />
<path d="M 432.550781 0 L 467.863281 0 L 467.863281 35.3125 L 432.550781 35.3125 Z M 432.550781 0 " style=" stroke:none;fill-rule:nonzero;fill:rgb(66.27451%,48.627451%,31.372549%);fill-opacity:1;" />
<path d="M 44.136719 0 L 79.449219 0 L 79.449219 35.3125 L 44.136719 35.3125 Z M 44.136719 0 " style=" stroke:none;fill-rule:nonzero;fill:rgb(66.27451%,48.627451%,31.372549%);fill-opacity:1;" />
</g>
</svg>