<svg xmlns="http://www.w3.org/2000/svg" height="464pt" version="1.1" viewBox="-48 0 464 464" width="464pt">
<g id="surface1">
<path d="M 40 168 C 37.226562 168 34.65625 166.5625 33.199219 164.203125 C 31.742188 161.847656 31.609375 158.902344 32.847656 156.425781 L 48.847656 124.425781 C 50.824219 120.46875 55.628906 118.863281 59.585938 120.839844 C 63.539062 122.816406 65.144531 127.621094 63.167969 131.574219 L 47.167969 163.574219 C 45.8125 166.289062 43.035156 168.003906 40 168 Z M 40 168 " style=" stroke:none;fill-rule:nonzero;fill:rgb(86.666667%,69.803922%,0%);fill-opacity:1;" />
<path d="M 104 168 C 100.953125 168.015625 98.160156 166.300781 96.800781 163.574219 L 80.800781 131.574219 C 78.824219 127.621094 80.429688 122.816406 84.382812 120.839844 C 88.339844 118.863281 93.144531 120.46875 95.121094 124.425781 L 111.121094 156.425781 C 112.355469 158.898438 112.226562 161.835938 110.777344 164.191406 C 109.328125 166.546875 106.765625 167.988281 104 168 Z M 104 168 " style=" stroke:none;fill-rule:nonzero;fill:rgb(86.666667%,69.803922%,0%);fill-opacity:1;" />
<path d="M 112 152 L 0 152 C -8.835938 152 -16 159.164062 -16 168 L -16 424 C -16 432.835938 -8.835938 440 0 440 L 336 440 C 344.835938 440 352 432.835938 352 424 L 352 168 C 352 159.164062 344.835938 152 336 152 Z M 320 408 L 16 408 L 16 312 L 320 312 Z M 320 184 L 320 280 L 16 280 L 16 184 Z M 320 184 " style=" stroke:none;fill-rule:nonzero;fill:rgb(76.078431%,70.980392%,60.784314%);fill-opacity:1;" />
<path d="M 16 408 L 320 408 L 320 312 L 16 312 Z M 168 336 C 176.835938 336 184 343.164062 184 352 C 184 360.835938 176.835938 368 168 368 C 159.164062 368 152 360.835938 152 352 C 152 343.164062 159.164062 336 168 336 Z M 168 336 " style=" stroke:none;fill-rule:nonzero;fill:rgb(66.27451%,48.627451%,31.372549%);fill-opacity:1;" />
<path d="M 16 280 L 320 280 L 320 184 L 16 184 Z M 168 208 C 176.835938 208 184 215.164062 184 224 C 184 232.835938 176.835938 240 168 240 C 159.164062 240 152 232.835938 152 224 C 152 215.164062 159.164062 208 168 208 Z M 168 208 " style=" stroke:none;fill-rule:nonzero;fill:rgb(66.27451%,48.627451%,31.372549%);fill-opacity:1;" />
<path d="M 0 440 L 32 440 L 32 464 L 0 464 Z M 0 440 " style=" stroke:none;fill-rule:nonzero;fill:rgb(66.27451%,48.627451%,31.372549%);fill-opacity:1;" />
<path d="M 304 440 L 336 440 L 336 464 L 304 464 Z M 304 440 " style=" stroke:none;fill-rule:nonzero;fill:rgb(66.27451%,48.627451%,31.372549%);fill-opacity:1;" />
<path d="M 184 224 C 184 232.835938 176.835938 240 168 240 C 159.164062 240 152 232.835938 152 224 C 152 215.164062 159.164062 208 168 208 C 176.835938 208 184 215.164062 184 224 Z M 184 224 " style=" stroke:none;fill-rule:nonzero;fill:rgb(76.078431%,70.980392%,60.784314%);fill-opacity:1;" />
<path d="M 184 352 C 184 360.835938 176.835938 368 168 368 C 159.164062 368 152 360.835938 152 352 C 152 343.164062 159.164062 336 168 336 C 176.835938 336 184 343.164062 184 352 Z M 184 352 " style=" stroke:none;fill-rule:nonzero;fill:rgb(76.078431%,70.980392%,60.784314%);fill-opacity:1;" />
<path d="M 318.769531 73.847656 L 292.105469 9.847656 C 289.621094 3.886719 283.796875 0 277.335938 0 L 250.664062 0 C 244.203125 0 238.378906 3.886719 235.894531 9.847656 L 209.230469 73.847656 C 207.175781 78.785156 207.722656 84.425781 210.6875 88.875 C 213.65625 93.324219 218.652344 96 224 96 L 304 96 C 309.347656 96 314.34375 93.324219 317.3125 88.875 C 320.277344 84.425781 320.824219 78.785156 318.769531 73.847656 Z M 318.769531 73.847656 " style=" stroke:none;fill-rule:nonzero;fill:rgb(60.784314%,78.823529%,100%);fill-opacity:1;" />
<path d="M 233.601562 129.695312 C 231.484375 134.632812 231.984375 140.300781 234.9375 144.789062 C 237.886719 149.277344 242.894531 151.984375 248.265625 152 L 279.734375 152 C 285.113281 152 290.132812 149.296875 293.09375 144.804688 C 296.054688 140.316406 296.558594 134.640625 294.441406 129.695312 L 280 96 L 248 96 Z M 233.601562 129.695312 " style=" stroke:none;fill-rule:nonzero;fill:rgb(34.117647%,64.313725%,100%);fill-opacity:1;" />
<path d="M 112 104 C 112 81.910156 94.089844 64 72 64 C 49.910156 64 32 81.910156 32 104 C 32 126.089844 49.910156 144 72 144 C 94.089844 144 112 126.089844 112 104 Z M 72 88 L 72 104 L 88 112 L 72 104 Z M 72 88 " style=" stroke:none;fill-rule:nonzero;fill:rgb(100%,85.490196%,26.666667%);fill-opacity:1;" />
<path d="M 88 120 C 86.761719 120 85.539062 119.710938 84.433594 119.160156 L 68.433594 111.160156 C 65.714844 109.808594 64 107.035156 64 104 L 64 88 C 64 83.582031 67.582031 80 72 80 C 76.417969 80 80 83.582031 80 88 L 80 99.054688 L 91.574219 104.839844 C 94.898438 106.496094 96.644531 110.222656 95.792969 113.835938 C 94.941406 117.449219 91.714844 120.003906 88 120 Z M 88 120 " style=" stroke:none;fill-rule:nonzero;fill:rgb(100%,31.372549%,13.72549%);fill-opacity:1;" />
</g>
</svg>