<svg xmlns="http://www.w3.org/2000/svg" height="1084pt" version="1.1" viewBox="0 -280 1084.1 1084" width="1084pt">
<g id="surface1">
<path d="M 616.867188 187.015625 L 689.117188 167.65625 L 766.5 456.460938 L 694.25 475.820312 Z M 616.867188 187.015625 " style=" stroke:none;fill-rule:nonzero;fill:rgb(100%,89.411765%,46.666667%);fill-opacity:1;" />
<path d="M 990.699219 56.148438 L 93.601562 56.148438 C 73 56.148438 56.199219 72.851562 56.199219 93.550781 L 56.199219 429.949219 C 56.199219 450.550781 72.898438 467.351562 93.601562 467.351562 L 131 467.351562 L 131 168.351562 L 280.398438 168.351562 L 280.398438 130.949219 L 355.199219 130.949219 L 355.199219 168.351562 L 430 168.351562 L 430 205.75 L 542.101562 205.75 L 542.101562 168.351562 L 616.898438 168.351562 L 616.898438 467.351562 L 990.699219 467.351562 C 1011.300781 467.351562 1028.101562 450.648438 1028.101562 429.949219 L 1028.101562 93.550781 C 1028 72.851562 1011.300781 56.148438 990.699219 56.148438 Z M 694.300781 475.851562 L 616.898438 187.050781 L 689.101562 167.75 L 766.5 456.550781 Z M 694.300781 475.851562 " style=" stroke:none;fill-rule:nonzero;fill:rgb(94.509804%,94.901961%,94.901961%);fill-opacity:1;" />
<path d="M 130.898438 168.351562 L 205.699219 168.351562 L 205.699219 467.351562 L 130.898438 467.351562 Z M 130.898438 168.351562 " style=" stroke:none;fill-rule:nonzero;fill:rgb(14.117647%,53.333333%,100%);fill-opacity:1;" />
<path d="M 430 168.351562 L 355.199219 168.351562 L 355.199219 467.351562 L 430 467.351562 Z M 430 168.351562 " style=" stroke:none;fill-rule:nonzero;fill:rgb(100%,58.039216%,47.058824%);fill-opacity:1;" />
<path d="M 542.101562 168.351562 L 542.101562 467.351562 L 616.898438 467.351562 L 616.898438 168.351562 Z M 542.101562 168.351562 " style=" stroke:none;fill-rule:nonzero;fill:rgb(64.313725%,88.627451%,46.27451%);fill-opacity:1;" />
<path d="M 205.699219 168.351562 L 280.5 168.351562 L 280.5 467.351562 L 205.699219 467.351562 Z M 205.699219 168.351562 " style=" stroke:none;fill-rule:nonzero;fill:rgb(36.862745%,67.45098%,14.117647%);fill-opacity:1;" />
<path d="M 355.199219 130.949219 L 280.398438 130.949219 L 280.398438 467.351562 L 355.199219 467.351562 Z M 355.199219 130.949219 " style=" stroke:none;fill-rule:nonzero;fill:rgb(100%,87.058824%,9.019608%);fill-opacity:1;" />
<path d="M 430 205.648438 L 542.101562 205.648438 L 542.101562 467.351562 L 430 467.351562 Z M 430 205.648438 " style=" stroke:none;fill-rule:nonzero;fill:rgb(92.156863%,74.901961%,0%);fill-opacity:1;" />
<path d="M 1009.300781 0.0507812 L 74.800781 0.0507812 C 33.5 0.0507812 0 33.550781 0 74.851562 L 0 448.648438 C 0 489.949219 33.5 523.449219 74.800781 523.449219 L 1009.300781 523.449219 C 1050.601562 523.449219 1084.101562 489.949219 1084.101562 448.648438 L 1084.101562 74.851562 C 1084.101562 33.550781 1050.601562 0.0507812 1009.300781 0.0507812 Z M 1028 429.949219 C 1028 450.550781 1011.300781 467.351562 990.601562 467.351562 L 93.5 467.351562 C 72.898438 467.351562 56.101562 450.648438 56.101562 429.949219 L 56.101562 93.550781 C 56.101562 72.949219 72.800781 56.148438 93.5 56.148438 L 990.601562 56.148438 C 1011.199219 56.148438 1028 72.851562 1028 93.550781 Z M 1028 429.949219 " style=" stroke:none;fill-rule:nonzero;fill:rgb(58.431373%,47.058824%,33.72549%);fill-opacity:1;" />
</g>
</svg>