<svg xmlns="http://www.w3.org/2000/svg" height="464pt" version="1.1" viewBox="-72 0 464 464" width="464pt">
<g id="surface1">
<path d="M 152 328.003906 L 182.910156 319.722656 L 203.613281 396.996094 L 172.703125 405.277344 Z M 152 328.003906 " style=" stroke:none;fill-rule:nonzero;fill:rgb(100%,87.058824%,9.019608%);fill-opacity:1;" />
<path d="M 152.003906 16.003906 L 182.914062 7.722656 L 207.757812 100.449219 L 176.847656 108.734375 Z M 152.003906 16.003906 " style=" stroke:none;fill-rule:nonzero;fill:rgb(100%,85.490196%,66.666667%);fill-opacity:1;" />
<path d="M 0 0 L 0 464 L 24 464 L 24 0 Z M 0 0 " style=" stroke:none;fill-rule:nonzero;fill:rgb(58.431373%,47.058824%,33.72549%);fill-opacity:1;" />
<path d="M 296 248 L 296 464 L 320 464 L 320 0 L 296 0 Z M 296 248 " style=" stroke:none;fill-rule:nonzero;fill:rgb(58.431373%,47.058824%,33.72549%);fill-opacity:1;" />
<path d="M 296 248 L 24 248 L 24 280 L 296 280 Z M 296 248 " style=" stroke:none;fill-rule:nonzero;fill:rgb(58.431373%,47.058824%,33.72549%);fill-opacity:1;" />
<path d="M 296 136 L 296 104 L 24 104 L 24 136 Z M 296 136 " style=" stroke:none;fill-rule:nonzero;fill:rgb(58.431373%,47.058824%,33.72549%);fill-opacity:1;" />
<path d="M 152 400 L 24 400 L 24 432 L 296 432 L 296 400 Z M 152 400 " style=" stroke:none;fill-rule:nonzero;fill:rgb(58.431373%,47.058824%,33.72549%);fill-opacity:1;" />
<path d="M 56 24 L 88 24 L 88 104 L 56 104 Z M 56 24 " style=" stroke:none;fill-rule:nonzero;fill:rgb(100%,58.039216%,47.058824%);fill-opacity:1;" />
<path d="M 88 24 L 120 24 L 120 104 L 88 104 Z M 88 24 " style=" stroke:none;fill-rule:nonzero;fill:rgb(60.784314%,78.823529%,100%);fill-opacity:1;" />
<path d="M 152 104 L 152 8 L 120 8 L 120 104 Z M 152 104 " style=" stroke:none;fill-rule:nonzero;fill:rgb(100%,73.72549%,67.058824%);fill-opacity:1;" />
<path d="M 24 216 L 120 216 L 120 248 L 24 248 Z M 24 216 " style=" stroke:none;fill-rule:nonzero;fill:rgb(34.117647%,64.313725%,100%);fill-opacity:1;" />
<path d="M 24 184 L 120 184 L 120 216 L 24 216 Z M 24 184 " style=" stroke:none;fill-rule:nonzero;fill:rgb(74.117647%,85.882353%,100%);fill-opacity:1;" />
<path d="M 241.089844 239.71875 L 261.796875 162.441406 L 292.707031 170.726562 L 272 248 Z M 241.089844 239.71875 " style=" stroke:none;fill-rule:nonzero;fill:rgb(74.117647%,85.882353%,100%);fill-opacity:1;" />
<path d="M 56 320 L 88 320 L 88 400 L 56 400 Z M 56 320 " style=" stroke:none;fill-rule:nonzero;fill:rgb(30.588235%,56.470588%,11.764706%);fill-opacity:1;" />
<path d="M 88 320 L 120 320 L 120 400 L 88 400 Z M 88 320 " style=" stroke:none;fill-rule:nonzero;fill:rgb(80%,64.313725%,0%);fill-opacity:1;" />
<path d="M 120 304 L 120 400 L 152 400 L 152 304 Z M 120 304 " style=" stroke:none;fill-rule:nonzero;fill:rgb(100%,89.411765%,46.666667%);fill-opacity:1;" />
</g>
</svg>