<svg xmlns="http://www.w3.org/2000/svg" height="512pt" version="1.1" viewBox="0 -26 512.00001 512" width="512pt">
<g id="surface1">
<path d="M 61.792969 414.898438 L 114.757812 414.898438 L 114.757812 459.035156 L 61.792969 459.035156 Z M 61.792969 414.898438 " style=" stroke:none;fill-rule:nonzero;fill:rgb(54.509804%,36.862745%,23.529412%);fill-opacity:1;" />
<path d="M 397.242188 414.898438 L 450.207031 414.898438 L 450.207031 459.035156 L 397.242188 459.035156 Z M 397.242188 414.898438 " style=" stroke:none;fill-rule:nonzero;fill:rgb(54.509804%,36.862745%,23.529412%);fill-opacity:1;" />
<path d="M 35.3125 414.898438 L 476.691406 414.898438 L 476.691406 44.136719 L 35.3125 44.136719 Z M 273.65625 70.621094 L 450.207031 70.621094 L 450.207031 158.894531 L 273.65625 158.894531 Z M 273.65625 185.378906 L 450.207031 185.378906 L 450.207031 273.65625 L 273.65625 273.65625 Z M 273.65625 300.136719 L 450.207031 300.136719 L 450.207031 388.414062 L 273.65625 388.414062 Z M 61.792969 70.621094 L 238.34375 70.621094 L 238.34375 158.894531 L 61.792969 158.894531 Z M 61.792969 185.378906 L 238.34375 185.378906 L 238.34375 273.65625 L 61.792969 273.65625 Z M 61.792969 300.136719 L 238.34375 300.136719 L 238.34375 388.414062 L 61.792969 388.414062 Z M 61.792969 300.136719 " style=" stroke:none;fill-rule:nonzero;fill:rgb(66.27451%,48.627451%,31.372549%);fill-opacity:1;" />
<path d="M 0 44.136719 L 512 44.136719 L 512 0 L 0 0 Z M 0 44.136719 " style=" stroke:none;fill-rule:nonzero;fill:rgb(54.509804%,36.862745%,23.529412%);fill-opacity:1;" />
<path d="M 238.34375 70.621094 L 61.792969 70.621094 L 61.792969 158.894531 L 238.34375 158.894531 Z M 150.070312 132.414062 C 140.316406 132.414062 132.414062 124.507812 132.414062 114.757812 C 132.414062 105.007812 140.320312 97.105469 150.070312 97.105469 C 159.820312 97.105469 167.722656 105.007812 167.722656 114.757812 C 167.722656 124.507812 159.820312 132.414062 150.070312 132.414062 Z M 150.070312 132.414062 " style=" stroke:none;fill-rule:nonzero;fill:rgb(76.862745%,60.392157%,42.352941%);fill-opacity:1;" />
<path d="M 450.207031 70.621094 L 273.65625 70.621094 L 273.65625 158.894531 L 450.207031 158.894531 Z M 361.929688 132.414062 C 352.179688 132.414062 344.277344 124.507812 344.277344 114.757812 C 344.277344 105.007812 352.179688 97.105469 361.929688 97.105469 C 371.679688 97.105469 379.585938 105.007812 379.585938 114.757812 C 379.585938 124.507812 371.683594 132.414062 361.929688 132.414062 Z M 361.929688 132.414062 " style=" stroke:none;fill-rule:nonzero;fill:rgb(76.862745%,60.392157%,42.352941%);fill-opacity:1;" />
<path d="M 450.207031 185.378906 L 273.65625 185.378906 L 273.65625 273.65625 L 450.207031 273.65625 Z M 361.929688 247.171875 C 352.179688 247.171875 344.277344 239.269531 344.277344 229.519531 C 344.277344 219.765625 352.179688 211.863281 361.929688 211.863281 C 371.679688 211.863281 379.585938 219.765625 379.585938 229.519531 C 379.585938 239.269531 371.683594 247.171875 361.929688 247.171875 Z M 361.929688 247.171875 " style=" stroke:none;fill-rule:nonzero;fill:rgb(76.862745%,60.392157%,42.352941%);fill-opacity:1;" />
<path d="M 238.34375 185.378906 L 61.792969 185.378906 L 61.792969 273.65625 L 238.34375 273.65625 Z M 150.070312 247.171875 C 140.316406 247.171875 132.414062 239.269531 132.414062 229.519531 C 132.414062 219.765625 140.320312 211.863281 150.070312 211.863281 C 159.820312 211.863281 167.722656 219.765625 167.722656 229.519531 C 167.722656 239.269531 159.820312 247.171875 150.070312 247.171875 Z M 150.070312 247.171875 " style=" stroke:none;fill-rule:nonzero;fill:rgb(76.862745%,60.392157%,42.352941%);fill-opacity:1;" />
<path d="M 450.207031 300.136719 L 273.65625 300.136719 L 273.65625 388.414062 L 450.207031 388.414062 Z M 361.929688 361.929688 C 352.179688 361.929688 344.277344 354.027344 344.277344 344.277344 C 344.277344 334.523438 352.179688 326.621094 361.929688 326.621094 C 371.679688 326.621094 379.585938 334.527344 379.585938 344.277344 C 379.585938 354.027344 371.683594 361.929688 361.929688 361.929688 Z M 361.929688 361.929688 " style=" stroke:none;fill-rule:nonzero;fill:rgb(76.862745%,60.392157%,42.352941%);fill-opacity:1;" />
<path d="M 238.34375 300.136719 L 61.792969 300.136719 L 61.792969 388.414062 L 238.34375 388.414062 Z M 150.070312 361.929688 C 140.316406 361.929688 132.414062 354.027344 132.414062 344.277344 C 132.414062 334.523438 140.320312 326.621094 150.070312 326.621094 C 159.820312 326.621094 167.722656 334.527344 167.722656 344.277344 C 167.722656 354.027344 159.820312 361.929688 150.070312 361.929688 Z M 150.070312 361.929688 " style=" stroke:none;fill-rule:nonzero;fill:rgb(76.862745%,60.392157%,42.352941%);fill-opacity:1;" />
<path d="M 167.722656 114.757812 C 167.722656 124.507812 159.820312 132.414062 150.070312 132.414062 C 140.320312 132.414062 132.414062 124.507812 132.414062 114.757812 C 132.414062 105.007812 140.320312 97.101562 150.070312 97.101562 C 159.820312 97.101562 167.722656 105.007812 167.722656 114.757812 Z M 167.722656 114.757812 " style=" stroke:none;fill-rule:nonzero;fill:rgb(66.27451%,48.627451%,31.372549%);fill-opacity:1;" />
<path d="M 379.585938 114.757812 C 379.585938 124.507812 371.679688 132.414062 361.929688 132.414062 C 352.179688 132.414062 344.277344 124.507812 344.277344 114.757812 C 344.277344 105.007812 352.179688 97.101562 361.929688 97.101562 C 371.679688 97.101562 379.585938 105.007812 379.585938 114.757812 Z M 379.585938 114.757812 " style=" stroke:none;fill-rule:nonzero;fill:rgb(66.27451%,48.627451%,31.372549%);fill-opacity:1;" />
<path d="M 379.585938 229.519531 C 379.585938 239.269531 371.679688 247.171875 361.929688 247.171875 C 352.179688 247.171875 344.277344 239.269531 344.277344 229.519531 C 344.277344 219.765625 352.179688 211.863281 361.929688 211.863281 C 371.679688 211.863281 379.585938 219.765625 379.585938 229.519531 Z M 379.585938 229.519531 " style=" stroke:none;fill-rule:nonzero;fill:rgb(66.27451%,48.627451%,31.372549%);fill-opacity:1;" />
<path d="M 379.585938 344.277344 C 379.585938 354.027344 371.679688 361.929688 361.929688 361.929688 C 352.179688 361.929688 344.277344 354.027344 344.277344 344.277344 C 344.277344 334.527344 352.179688 326.621094 361.929688 326.621094 C 371.679688 326.621094 379.585938 334.527344 379.585938 344.277344 Z M 379.585938 344.277344 " style=" stroke:none;fill-rule:nonzero;fill:rgb(66.27451%,48.627451%,31.372549%);fill-opacity:1;" />
<path d="M 167.722656 229.519531 C 167.722656 239.269531 159.820312 247.171875 150.070312 247.171875 C 140.320312 247.171875 132.414062 239.269531 132.414062 229.519531 C 132.414062 219.765625 140.320312 211.863281 150.070312 211.863281 C 159.820312 211.863281 167.722656 219.765625 167.722656 229.519531 Z M 167.722656 229.519531 " style=" stroke:none;fill-rule:nonzero;fill:rgb(66.27451%,48.627451%,31.372549%);fill-opacity:1;" />
<path d="M 167.722656 344.277344 C 167.722656 354.027344 159.820312 361.929688 150.070312 361.929688 C 140.320312 361.929688 132.414062 354.027344 132.414062 344.277344 C 132.414062 334.527344 140.320312 326.621094 150.070312 326.621094 C 159.820312 326.621094 167.722656 334.527344 167.722656 344.277344 Z M 167.722656 344.277344 " style=" stroke:none;fill-rule:nonzero;fill:rgb(66.27451%,48.627451%,31.372549%);fill-opacity:1;" />
<path d="M 150.070312 141.242188 C 135.441406 141.242188 123.585938 129.382812 123.585938 114.757812 C 123.585938 100.132812 135.441406 88.277344 150.070312 88.277344 C 164.695312 88.277344 176.550781 100.132812 176.550781 114.757812 C 176.550781 129.382812 164.695312 141.242188 150.070312 141.242188 Z M 150.070312 105.929688 C 145.195312 105.929688 141.242188 109.882812 141.242188 114.757812 C 141.242188 119.632812 145.191406 123.585938 150.070312 123.585938 C 154.945312 123.585938 158.898438 119.636719 158.898438 114.757812 C 158.898438 109.882812 154.945312 105.929688 150.070312 105.929688 Z M 150.070312 105.929688 " style=" stroke:none;fill-rule:nonzero;fill:rgb(54.509804%,36.862745%,23.529412%);fill-opacity:1;" />
<path d="M 361.929688 141.242188 C 347.304688 141.242188 335.449219 129.382812 335.449219 114.757812 C 335.449219 100.132812 347.304688 88.277344 361.929688 88.277344 C 376.558594 88.277344 388.414062 100.132812 388.414062 114.757812 C 388.414062 129.382812 376.558594 141.242188 361.929688 141.242188 Z M 361.929688 105.929688 C 357.054688 105.929688 353.101562 109.882812 353.101562 114.757812 C 353.101562 119.632812 357.054688 123.585938 361.929688 123.585938 C 366.808594 123.585938 370.757812 119.636719 370.757812 114.757812 C 370.757812 109.882812 366.808594 105.929688 361.929688 105.929688 Z M 361.929688 105.929688 " style=" stroke:none;fill-rule:nonzero;fill:rgb(54.509804%,36.862745%,23.529412%);fill-opacity:1;" />
<path d="M 361.929688 256 C 347.304688 256 335.449219 244.144531 335.449219 229.519531 C 335.449219 214.890625 347.304688 203.035156 361.929688 203.035156 C 376.558594 203.035156 388.414062 214.890625 388.414062 229.519531 C 388.414062 244.144531 376.558594 256 361.929688 256 Z M 361.929688 220.691406 C 357.054688 220.691406 353.101562 224.640625 353.101562 229.519531 C 353.101562 234.394531 357.054688 238.34375 361.929688 238.34375 C 366.808594 238.34375 370.757812 234.394531 370.757812 229.519531 C 370.757812 224.640625 366.808594 220.691406 361.929688 220.691406 Z M 361.929688 220.691406 " style=" stroke:none;fill-rule:nonzero;fill:rgb(54.509804%,36.862745%,23.529412%);fill-opacity:1;" />
<path d="M 361.929688 370.757812 C 347.304688 370.757812 335.449219 358.902344 335.449219 344.277344 C 335.449219 329.648438 347.304688 317.792969 361.929688 317.792969 C 376.558594 317.792969 388.414062 329.648438 388.414062 344.277344 C 388.414062 358.902344 376.558594 370.757812 361.929688 370.757812 Z M 361.929688 335.449219 C 357.054688 335.449219 353.101562 339.398438 353.101562 344.277344 C 353.101562 349.152344 357.054688 353.105469 361.929688 353.105469 C 366.808594 353.105469 370.757812 349.152344 370.757812 344.277344 C 370.757812 339.402344 366.808594 335.449219 361.929688 335.449219 Z M 361.929688 335.449219 " style=" stroke:none;fill-rule:nonzero;fill:rgb(54.509804%,36.862745%,23.529412%);fill-opacity:1;" />
<path d="M 150.070312 256 C 135.441406 256 123.585938 244.144531 123.585938 229.519531 C 123.585938 214.890625 135.441406 203.035156 150.070312 203.035156 C 164.695312 203.035156 176.550781 214.890625 176.550781 229.519531 C 176.550781 244.144531 164.695312 256 150.070312 256 Z M 150.070312 220.691406 C 145.195312 220.691406 141.242188 224.640625 141.242188 229.519531 C 141.242188 234.394531 145.191406 238.34375 150.070312 238.34375 C 154.945312 238.34375 158.898438 234.394531 158.898438 229.519531 C 158.898438 224.640625 154.945312 220.691406 150.070312 220.691406 Z M 150.070312 220.691406 " style=" stroke:none;fill-rule:nonzero;fill:rgb(54.509804%,36.862745%,23.529412%);fill-opacity:1;" />
<path d="M 150.070312 370.757812 C 135.441406 370.757812 123.585938 358.902344 123.585938 344.277344 C 123.585938 329.648438 135.441406 317.792969 150.070312 317.792969 C 164.695312 317.792969 176.550781 329.648438 176.550781 344.277344 C 176.550781 358.902344 164.695312 370.757812 150.070312 370.757812 Z M 150.070312 335.449219 C 145.195312 335.449219 141.242188 339.398438 141.242188 344.277344 C 141.242188 349.152344 145.191406 353.105469 150.070312 353.105469 C 154.945312 353.105469 158.898438 349.152344 158.898438 344.277344 C 158.898438 339.402344 154.945312 335.449219 150.070312 335.449219 Z M 150.070312 335.449219 " style=" stroke:none;fill-rule:nonzero;fill:rgb(54.509804%,36.862745%,23.529412%);fill-opacity:1;" />
</g>
</svg>