<svg xmlns="http://www.w3.org/2000/svg" height="512pt" version="1.1" viewBox="0 -66 512.00095 512" width="512pt">
<g id="surface1">
<path d="M 141.242188 282.484375 L 370.757812 282.484375 L 370.757812 334.917969 C 382.585938 333.066406 394.328125 330.769531 406.070312 328.210938 L 406.070312 247.171875 L 105.929688 247.171875 L 105.929688 328.210938 C 117.671875 330.769531 129.414062 333.066406 141.242188 334.917969 Z M 141.242188 282.484375 " style=" stroke:none;fill-rule:nonzero;fill:rgb(94.117647%,44.705882%,68.235294%);fill-opacity:1;" />
<path d="M 467.863281 229.515625 C 467.863281 219.765625 459.957031 211.863281 450.207031 211.863281 L 61.792969 211.863281 C 52.042969 211.863281 44.136719 219.765625 44.136719 229.515625 C 44.136719 239.269531 52.042969 247.171875 61.792969 247.171875 L 450.207031 247.171875 C 459.957031 247.171875 467.863281 239.269531 467.863281 229.515625 Z M 467.863281 229.515625 " style=" stroke:none;fill-rule:nonzero;fill:rgb(95.686275%,56.470588%,75.294118%);fill-opacity:1;" />
<path d="M 97.101562 88.277344 L 97.101562 17.65625 C 97.101562 7.90625 89.199219 0 79.449219 0 C 69.699219 0 61.792969 7.90625 61.792969 17.65625 L 61.792969 211.863281 L 97.105469 211.863281 L 97.105469 88.277344 Z M 97.101562 88.277344 " style=" stroke:none;fill-rule:nonzero;fill:rgb(96.862745%,68.627451%,81.960784%);fill-opacity:1;" />
<path d="M 414.898438 211.863281 L 450.207031 211.863281 L 450.207031 17.65625 C 450.207031 7.90625 442.300781 0 432.550781 0 C 422.800781 0 414.898438 7.90625 414.898438 17.65625 Z M 414.898438 211.863281 " style=" stroke:none;fill-rule:nonzero;fill:rgb(96.862745%,68.627451%,81.960784%);fill-opacity:1;" />
<path d="M 273.65625 88.277344 L 308.964844 88.277344 L 308.964844 211.863281 L 273.65625 211.863281 Z M 273.65625 88.277344 " style=" stroke:none;fill-rule:nonzero;fill:rgb(94.117647%,44.705882%,68.235294%);fill-opacity:1;" />
<path d="M 132.414062 88.277344 L 167.726562 88.277344 L 167.726562 211.863281 L 132.414062 211.863281 Z M 132.414062 88.277344 " style=" stroke:none;fill-rule:nonzero;fill:rgb(94.117647%,44.705882%,68.235294%);fill-opacity:1;" />
<path d="M 203.035156 88.277344 L 238.34375 88.277344 L 238.34375 211.863281 L 203.035156 211.863281 Z M 203.035156 88.277344 " style=" stroke:none;fill-rule:nonzero;fill:rgb(94.117647%,44.705882%,68.235294%);fill-opacity:1;" />
<path d="M 344.277344 88.277344 L 379.585938 88.277344 L 379.585938 211.863281 L 344.277344 211.863281 Z M 344.277344 88.277344 " style=" stroke:none;fill-rule:nonzero;fill:rgb(94.117647%,44.705882%,68.235294%);fill-opacity:1;" />
<path d="M 132.414062 88.277344 L 414.898438 88.277344 L 414.898438 52.964844 L 97.101562 52.964844 L 97.101562 88.277344 Z M 132.414062 88.277344 " style=" stroke:none;fill-rule:nonzero;fill:rgb(96.862745%,68.627451%,81.960784%);fill-opacity:1;" />
<path d="M 238.34375 88.277344 L 273.65625 88.277344 L 273.65625 211.863281 L 238.34375 211.863281 Z M 238.34375 88.277344 " style=" stroke:none;fill-rule:nonzero;fill:rgb(94.509804%,94.901961%,94.901961%);fill-opacity:1;" />
<path d="M 308.964844 88.277344 L 344.277344 88.277344 L 344.277344 211.863281 L 308.964844 211.863281 Z M 308.964844 88.277344 " style=" stroke:none;fill-rule:nonzero;fill:rgb(94.509804%,94.901961%,94.901961%);fill-opacity:1;" />
<path d="M 379.585938 88.277344 L 414.898438 88.277344 L 414.898438 211.863281 L 379.585938 211.863281 Z M 379.585938 88.277344 " style=" stroke:none;fill-rule:nonzero;fill:rgb(94.509804%,94.901961%,94.901961%);fill-opacity:1;" />
<path d="M 167.722656 88.277344 L 203.035156 88.277344 L 203.035156 211.863281 L 167.722656 211.863281 Z M 167.722656 88.277344 " style=" stroke:none;fill-rule:nonzero;fill:rgb(94.509804%,94.901961%,94.901961%);fill-opacity:1;" />
<path d="M 97.101562 88.277344 L 132.414062 88.277344 L 132.414062 211.863281 L 97.101562 211.863281 Z M 97.101562 88.277344 " style=" stroke:none;fill-rule:nonzero;fill:rgb(94.509804%,94.901961%,94.901961%);fill-opacity:1;" />
<path d="M 489.667969 306.316406 L 443.761719 318.941406 C 431.226562 322.382812 418.691406 325.472656 406.070312 328.210938 C 394.328125 330.769531 382.585938 333.066406 370.757812 334.917969 C 294.765625 347.453125 217.234375 347.453125 141.242188 334.917969 C 129.410156 333.066406 117.671875 330.769531 105.929688 328.210938 C 93.304688 325.472656 80.769531 322.382812 68.234375 318.941406 L 22.332031 306.316406 C 20.808594 305.902344 19.234375 305.691406 17.65625 305.699219 C 7.917969 305.726562 0.0273438 313.617188 0 323.355469 C -0.015625 330.492188 4.761719 336.753906 11.652344 338.625 L 68.238281 354.25 C 191.117188 388.148438 320.882812 388.148438 443.761719 354.25 L 500.347656 338.625 C 507.238281 336.753906 512.015625 330.492188 512 323.355469 C 512.007812 313.601562 504.109375 305.691406 494.359375 305.683594 C 492.773438 305.683594 491.195312 305.898438 489.667969 306.316406 Z M 489.667969 306.316406 " style=" stroke:none;fill-rule:nonzero;fill:rgb(94.117647%,44.705882%,68.235294%);fill-opacity:1;" />
</g>
</svg>