<svg xmlns="http://www.w3.org/2000/svg" height="512pt" version="1.1" viewBox="-79 0 512 512.00001" width="512pt">
<g id="surface1">
<path d="M 70.621094 370.757812 L 282.480469 370.757812 L 282.480469 335.449219 L 70.621094 335.449219 Z M 70.621094 370.757812 " style=" stroke:none;fill-rule:nonzero;fill:rgb(37.647059%,22.352941%,7.45098%);fill-opacity:1;" />
<path d="M 35.308594 335.449219 L 70.621094 335.449219 L 70.621094 512 L 35.308594 512 Z M 35.308594 335.449219 " style=" stroke:none;fill-rule:nonzero;fill:rgb(45.882353%,29.803922%,16.078431%);fill-opacity:1;" />
<path d="M 282.480469 335.449219 L 317.792969 335.449219 L 317.792969 512 L 282.480469 512 Z M 282.480469 335.449219 " style=" stroke:none;fill-rule:nonzero;fill:rgb(45.882353%,29.803922%,16.078431%);fill-opacity:1;" />
<path d="M 264.828125 264.828125 L 26.484375 264.828125 C 16.730469 264.828125 8.828125 272.730469 8.828125 282.480469 L 8.828125 317.792969 C 8.828125 327.542969 16.734375 335.449219 26.484375 335.449219 L 326.621094 335.449219 C 336.371094 335.449219 344.277344 327.542969 344.277344 317.792969 L 344.277344 282.480469 C 344.277344 272.730469 336.371094 264.828125 326.621094 264.828125 Z M 264.828125 264.828125 " style=" stroke:none;fill-rule:nonzero;fill:rgb(54.509804%,36.862745%,23.529412%);fill-opacity:1;" />
<path d="M 88.277344 264.828125 L 264.828125 264.828125 L 264.828125 17.65625 C 264.828125 7.90625 256.921875 0 247.171875 0 L 105.929688 0 C 96.179688 0 88.277344 7.90625 88.277344 17.65625 Z M 88.277344 264.828125 " style=" stroke:none;fill-rule:nonzero;fill:rgb(58.431373%,47.058824%,33.72549%);fill-opacity:1;" />
<path d="M 26.484375 194.207031 L 52.964844 194.207031 L 52.964844 264.828125 L 26.484375 264.828125 Z M 26.484375 194.207031 " style=" stroke:none;fill-rule:nonzero;fill:rgb(66.27451%,48.627451%,31.372549%);fill-opacity:1;" />
<path d="M 300.136719 194.207031 L 326.621094 194.207031 L 326.621094 264.828125 L 300.136719 264.828125 Z M 300.136719 194.207031 " style=" stroke:none;fill-rule:nonzero;fill:rgb(66.27451%,48.627451%,31.372549%);fill-opacity:1;" />
<path d="M 335.449219 158.898438 L 264.828125 158.898438 L 264.828125 194.207031 L 335.449219 194.207031 C 345.199219 194.207031 353.101562 186.304688 353.101562 176.554688 C 353.101562 166.804688 345.199219 158.898438 335.449219 158.898438 Z M 335.449219 158.898438 " style=" stroke:none;fill-rule:nonzero;fill:rgb(54.509804%,36.862745%,23.529412%);fill-opacity:1;" />
<path d="M 88.277344 194.207031 L 88.277344 158.894531 L 17.65625 158.894531 C 7.902344 158.894531 0 166.800781 0 176.550781 C 0 186.300781 7.90625 194.207031 17.65625 194.207031 Z M 88.277344 194.207031 " style=" stroke:none;fill-rule:nonzero;fill:rgb(54.509804%,36.862745%,23.529412%);fill-opacity:1;" />
</g>
</svg>