<svg xmlns="http://www.w3.org/2000/svg" height="512pt" version="1.1" viewBox="-124 0 512 512.00001" width="512pt">
<g id="surface1">
<path d="M 17.65625 317.792969 L 17.65625 512 L 52.964844 512 L 52.964844 317.792969 Z M 17.65625 317.792969 " style=" stroke:none;fill-rule:nonzero;fill:rgb(60.784314%,78.823529%,100%);fill-opacity:1;" />
<path d="M 211.863281 370.757812 L 211.863281 512 L 247.171875 512 L 247.171875 317.792969 L 211.863281 317.792969 Z M 211.863281 370.757812 " style=" stroke:none;fill-rule:nonzero;fill:rgb(60.784314%,78.823529%,100%);fill-opacity:1;" />
<path d="M 52.964844 317.792969 L 211.863281 317.792969 L 211.863281 370.757812 L 52.964844 370.757812 Z M 52.964844 317.792969 " style=" stroke:none;fill-rule:nonzero;fill:rgb(60.784314%,78.823529%,100%);fill-opacity:1;" />
<path d="M 194.207031 264.828125 L 0 264.828125 L 0 317.792969 L 264.828125 317.792969 L 264.828125 264.828125 Z M 194.207031 264.828125 " style=" stroke:none;fill-rule:nonzero;fill:rgb(74.117647%,85.882353%,100%);fill-opacity:1;" />
<path d="M 35.3125 0 L 70.621094 0 L 70.621094 35.3125 L 35.3125 35.3125 Z M 35.3125 0 " style=" stroke:none;fill-rule:nonzero;fill:rgb(81.960784%,90.588235%,97.254902%);fill-opacity:1;" />
<path d="M 194.207031 0 L 229.519531 0 L 229.519531 35.3125 L 194.207031 35.3125 Z M 194.207031 0 " style=" stroke:none;fill-rule:nonzero;fill:rgb(81.960784%,90.588235%,97.254902%);fill-opacity:1;" />
<path d="M 194.207031 141.242188 L 247.171875 141.242188 L 247.171875 35.3125 L 17.65625 35.3125 L 17.65625 141.242188 Z M 194.207031 141.242188 " style=" stroke:none;fill-rule:nonzero;fill:rgb(60.784314%,78.823529%,100%);fill-opacity:1;" />
<path d="M 35.3125 141.242188 L 70.621094 141.242188 L 70.621094 264.828125 L 35.3125 264.828125 Z M 35.3125 141.242188 " style=" stroke:none;fill-rule:nonzero;fill:rgb(81.960784%,90.588235%,97.254902%);fill-opacity:1;" />
<path d="M 194.207031 141.242188 L 229.519531 141.242188 L 229.519531 264.828125 L 194.207031 264.828125 Z M 194.207031 141.242188 " style=" stroke:none;fill-rule:nonzero;fill:rgb(81.960784%,90.588235%,97.254902%);fill-opacity:1;" />
</g>
</svg>