<svg xmlns="http://www.w3.org/2000/svg" height="512pt" version="1.1" viewBox="-132 0 512 512.00054" width="512pt">
<g id="surface1">
<path d="M 62.105469 253.207031 C 59.089844 253.738281 56.070312 254.273438 53.234375 254.804688 C 48.351562 255.78125 43.738281 256.84375 39.390625 258 C 15.171875 264.476562 0 273.703125 0 283.90625 C 0 294.105469 15.171875 303.335938 39.390625 309.8125 C 67.152344 316.542969 95.648438 319.761719 124.207031 319.390625 C 152.769531 319.761719 181.265625 316.542969 209.023438 309.8125 C 233.246094 303.332031 248.417969 294.105469 248.417969 283.90625 C 248.417969 273.703125 233.246094 264.476562 209.023438 258 C 204.679688 256.816406 200.0625 255.75 195.183594 254.804688 C 192.347656 254.273438 189.328125 253.738281 186.3125 253.207031 C 145.15625 246.820312 103.261719 246.820312 62.105469 253.207031 Z M 62.105469 253.207031 " style=" stroke:none;fill-rule:nonzero;fill:rgb(34.117647%,64.313725%,100%);fill-opacity:1;" />
<path d="M 186.3125 144.703125 C 189.417969 143.015625 192.347656 141.242188 195.1875 139.378906 C 216.316406 126.808594 229.664062 104.414062 230.675781 79.847656 C 230.671875 35.753906 183.03125 0 124.210938 0 C 65.386719 0 17.746094 35.753906 17.746094 79.847656 C 18.753906 104.414062 32.105469 126.808594 53.234375 139.378906 C 56.074219 141.242188 59 143.019531 62.105469 144.703125 C 101.09375 164.695312 147.324219 164.695312 186.3125 144.703125 Z M 168.570312 62.105469 C 178.371094 62.105469 186.3125 70.050781 186.3125 79.847656 C 186.3125 89.648438 178.367188 97.59375 168.570312 97.59375 C 158.769531 97.59375 150.824219 89.648438 150.824219 79.847656 C 150.824219 70.050781 158.769531 62.105469 168.570312 62.105469 Z M 79.847656 97.59375 C 70.046875 97.59375 62.105469 89.648438 62.105469 79.847656 C 62.105469 70.050781 70.050781 62.105469 79.847656 62.105469 C 89.648438 62.105469 97.59375 70.050781 97.59375 79.847656 C 97.59375 89.648438 89.648438 97.59375 79.847656 97.59375 Z M 79.847656 97.59375 " style=" stroke:none;fill-rule:nonzero;fill:rgb(60.784314%,78.823529%,100%);fill-opacity:1;" />
<path d="M 39.390625 309.8125 C 42.644531 320.484375 47.882812 330.445312 54.828125 339.179688 L 18.632812 501.011719 C 17.589844 505.664062 20.414062 510.308594 25.019531 511.527344 L 25.695312 511.703125 C 30.28125 512.917969 35.011719 510.304688 36.429688 505.777344 L 81.535156 361.710938 C 108.125 376.261719 140.292969 376.261719 166.882812 361.710938 L 211.988281 505.777344 C 213.40625 510.304688 218.136719 512.917969 222.722656 511.703125 L 223.398438 511.527344 C 228.007812 510.308594 230.828125 505.664062 229.785156 501.011719 L 193.589844 339.179688 C 200.535156 330.445312 205.773438 320.484375 209.023438 309.8125 C 181.265625 316.542969 152.769531 319.761719 124.207031 319.394531 C 95.648438 319.761719 67.152344 316.542969 39.390625 309.8125 Z M 39.390625 309.8125 " style=" stroke:none;fill-rule:nonzero;fill:rgb(60.784314%,78.823529%,100%);fill-opacity:1;" />
<path d="M 97.59375 79.847656 C 97.59375 89.648438 89.648438 97.59375 79.847656 97.59375 C 70.050781 97.59375 62.105469 89.648438 62.105469 79.847656 C 62.105469 70.050781 70.050781 62.105469 79.847656 62.105469 C 89.648438 62.105469 97.59375 70.050781 97.59375 79.847656 Z M 97.59375 79.847656 " style=" stroke:none;fill-rule:nonzero;fill:rgb(74.117647%,85.882353%,100%);fill-opacity:1;" />
<path d="M 186.3125 79.847656 C 186.3125 89.648438 178.371094 97.59375 168.570312 97.59375 C 158.769531 97.59375 150.824219 89.648438 150.824219 79.847656 C 150.824219 70.050781 158.769531 62.105469 168.570312 62.105469 C 178.371094 62.105469 186.3125 70.050781 186.3125 79.847656 Z M 186.3125 79.847656 " style=" stroke:none;fill-rule:nonzero;fill:rgb(74.117647%,85.882353%,100%);fill-opacity:1;" />
<path d="M 124.210938 248.417969 C 145.007812 248.339844 165.773438 249.945312 186.3125 253.207031 L 186.3125 144.703125 C 147.324219 164.695312 101.09375 164.695312 62.105469 144.703125 L 62.105469 253.207031 C 82.644531 249.945312 103.414062 248.339844 124.210938 248.417969 Z M 124.210938 248.417969 " style=" stroke:none;fill-rule:nonzero;fill:rgb(74.117647%,85.882353%,100%);fill-opacity:1;" />
<path d="M 79.847656 106.464844 C 65.148438 106.464844 53.234375 94.546875 53.234375 79.847656 C 53.234375 65.148438 65.148438 53.230469 79.847656 53.230469 C 94.546875 53.230469 106.464844 65.148438 106.464844 79.847656 C 106.464844 94.546875 94.550781 106.464844 79.847656 106.464844 Z M 79.847656 70.976562 C 74.949219 70.976562 70.976562 74.949219 70.976562 79.847656 C 70.976562 84.75 74.949219 88.722656 79.847656 88.722656 C 84.75 88.722656 88.722656 84.75 88.722656 79.847656 C 88.722656 74.949219 84.75 70.976562 79.847656 70.976562 Z M 79.847656 70.976562 " style=" stroke:none;fill-rule:nonzero;fill:rgb(34.117647%,64.313725%,100%);fill-opacity:1;" />
<path d="M 168.570312 106.464844 C 153.871094 106.464844 141.953125 94.546875 141.953125 79.847656 C 141.953125 65.148438 153.871094 53.230469 168.570312 53.230469 C 183.269531 53.230469 195.1875 65.148438 195.1875 79.847656 C 195.1875 94.546875 183.269531 106.464844 168.570312 106.464844 Z M 168.570312 70.976562 C 163.671875 70.976562 159.699219 74.949219 159.699219 79.847656 C 159.699219 84.75 163.667969 88.722656 168.570312 88.722656 C 173.46875 88.722656 177.441406 84.75 177.441406 79.847656 C 177.441406 74.949219 173.46875 70.976562 168.570312 70.976562 Z M 168.570312 70.976562 " style=" stroke:none;fill-rule:nonzero;fill:rgb(34.117647%,64.313725%,100%);fill-opacity:1;" />
</g>
</svg>