<svg xmlns="http://www.w3.org/2000/svg" height="512pt" version="1.1" viewBox="0 0 512.0009 512" width="512pt">
<g id="surface1">
<path d="M 176.550781 44.136719 L 176.550781 0 L 0 0 L 0 512 L 176.550781 512 Z M 176.550781 44.136719 " style=" stroke:none;fill-rule:nonzero;fill:rgb(50.196078%,40.392157%,28.627451%);fill-opacity:1;" />
<path d="M 406.070312 88.277344 L 512 88.277344 L 512 211.863281 L 406.070312 211.863281 Z M 406.070312 88.277344 " style=" stroke:none;fill-rule:nonzero;fill:rgb(75.294118%,67.058824%,56.862745%);fill-opacity:1;" />
<path d="M 300.136719 300.136719 L 300.136719 512 L 512 512 L 512 300.136719 Z M 476.691406 476.691406 L 335.449219 476.691406 L 335.449219 423.726562 L 476.6875 423.726562 L 476.6875 476.691406 Z M 476.691406 388.414062 L 335.449219 388.414062 L 335.449219 335.449219 L 476.6875 335.449219 L 476.6875 388.414062 Z M 476.691406 388.414062 " style=" stroke:none;fill-rule:nonzero;fill:rgb(58.431373%,47.058824%,33.72549%);fill-opacity:1;" />
<path d="M 229.519531 44.136719 L 406.070312 44.136719 L 406.070312 0 L 176.550781 0 L 176.550781 44.136719 Z M 229.519531 44.136719 " style=" stroke:none;fill-rule:nonzero;fill:rgb(58.431373%,47.058824%,33.72549%);fill-opacity:1;" />
<path d="M 353.105469 88.277344 C 362.855469 88.277344 370.757812 96.179688 370.757812 105.929688 L 370.757812 229.515625 L 335.449219 229.515625 L 335.449219 105.933594 C 335.449219 96.179688 343.351562 88.277344 353.105469 88.277344 L 353.105469 44.136719 L 291.308594 44.136719 L 291.308594 88.277344 C 301.0625 88.277344 308.964844 96.179688 308.964844 105.929688 L 308.964844 247.171875 L 273.65625 247.171875 L 273.65625 105.933594 C 273.65625 96.179688 281.558594 88.277344 291.308594 88.277344 L 291.308594 44.136719 L 229.515625 44.136719 L 229.515625 88.277344 C 239.265625 88.277344 247.171875 96.179688 247.171875 105.929688 L 247.171875 247.171875 L 211.859375 247.171875 L 211.859375 105.933594 C 211.859375 96.179688 219.765625 88.277344 229.515625 88.277344 L 229.515625 44.136719 L 176.550781 44.136719 L 176.550781 300.136719 L 406.066406 300.136719 L 406.066406 44.136719 L 353.101562 44.136719 L 353.101562 88.277344 Z M 353.105469 88.277344 " style=" stroke:none;fill-rule:nonzero;fill:rgb(92.156863%,89.803922%,86.666667%);fill-opacity:1;" />
<path d="M 335.449219 388.414062 L 476.6875 388.414062 L 476.6875 335.449219 L 335.449219 335.449219 Z M 335.449219 388.414062 " style=" stroke:none;fill-rule:nonzero;fill:rgb(85.098039%,80%,73.72549%);fill-opacity:1;" />
<path d="M 335.449219 476.691406 L 476.6875 476.691406 L 476.6875 423.726562 L 335.449219 423.726562 Z M 335.449219 476.691406 " style=" stroke:none;fill-rule:nonzero;fill:rgb(85.098039%,80%,73.72549%);fill-opacity:1;" />
<path d="M 406.070312 211.863281 L 512 211.863281 L 512 300.136719 L 406.070312 300.136719 Z M 406.070312 211.863281 " style=" stroke:none;fill-rule:nonzero;fill:rgb(70.196078%,60.392157%,48.627451%);fill-opacity:1;" />
<path d="M 406.070312 44.136719 L 406.070312 88.277344 L 512 88.277344 L 512 0 L 406.070312 0 Z M 406.070312 44.136719 " style=" stroke:none;fill-rule:nonzero;fill:rgb(85.098039%,80%,73.72549%);fill-opacity:1;" />
<path d="M 176.550781 300.136719 L 176.550781 512 L 300.136719 512 L 300.136719 300.136719 Z M 273.65625 485.519531 L 203.035156 485.519531 L 203.035156 450.207031 L 273.65625 450.207031 Z M 273.65625 423.726562 L 203.035156 423.726562 L 203.035156 388.414062 L 273.65625 388.414062 Z M 273.65625 361.929688 L 203.035156 361.929688 L 203.035156 326.621094 L 273.65625 326.621094 Z M 273.65625 361.929688 " style=" stroke:none;fill-rule:nonzero;fill:rgb(75.294118%,67.058824%,56.862745%);fill-opacity:1;" />
<path d="M 203.035156 326.621094 L 273.65625 326.621094 L 273.65625 361.933594 L 203.035156 361.933594 Z M 203.035156 326.621094 " style=" stroke:none;fill-rule:nonzero;fill:rgb(85.098039%,80%,73.72549%);fill-opacity:1;" />
<path d="M 203.035156 388.414062 L 273.65625 388.414062 L 273.65625 423.726562 L 203.035156 423.726562 Z M 203.035156 388.414062 " style=" stroke:none;fill-rule:nonzero;fill:rgb(85.098039%,80%,73.72549%);fill-opacity:1;" />
<path d="M 203.035156 450.207031 L 273.65625 450.207031 L 273.65625 485.519531 L 203.035156 485.519531 Z M 203.035156 450.207031 " style=" stroke:none;fill-rule:nonzero;fill:rgb(85.098039%,80%,73.72549%);fill-opacity:1;" />
<path d="M 414.898438 370.757812 L 397.242188 370.757812 C 392.367188 370.757812 388.414062 366.808594 388.414062 361.929688 C 388.414062 357.054688 392.367188 353.101562 397.242188 353.101562 L 414.898438 353.101562 C 419.773438 353.101562 423.722656 357.054688 423.722656 361.929688 C 423.722656 366.808594 419.773438 370.757812 414.898438 370.757812 Z M 414.898438 370.757812 " style=" stroke:none;fill-rule:nonzero;fill:rgb(94.509804%,94.901961%,94.901961%);fill-opacity:1;" />
<path d="M 423.722656 459.035156 L 397.242188 459.035156 C 392.367188 459.035156 388.414062 455.082031 388.414062 450.207031 C 388.414062 445.332031 392.367188 441.378906 397.242188 441.378906 L 423.722656 441.378906 C 428.597656 441.378906 432.550781 445.332031 432.550781 450.207031 C 432.550781 455.082031 428.597656 459.035156 423.722656 459.035156 Z M 423.722656 459.035156 " style=" stroke:none;fill-rule:nonzero;fill:rgb(94.509804%,94.901961%,94.901961%);fill-opacity:1;" />
<path d="M 238.34375 44.136719 L 238.34375 97.105469 C 238.34375 101.980469 234.394531 105.933594 229.515625 105.933594 C 224.640625 105.933594 220.6875 101.980469 220.6875 97.105469 L 220.6875 44.136719 Z M 238.34375 44.136719 " style=" stroke:none;fill-rule:nonzero;fill:rgb(34.117647%,64.313725%,100%);fill-opacity:1;" />
<path d="M 300.136719 44.136719 L 300.136719 97.105469 C 300.136719 101.980469 296.1875 105.933594 291.308594 105.933594 C 286.433594 105.933594 282.480469 101.980469 282.480469 97.105469 L 282.480469 44.136719 Z M 300.136719 44.136719 " style=" stroke:none;fill-rule:nonzero;fill:rgb(34.117647%,64.313725%,100%);fill-opacity:1;" />
<path d="M 361.929688 44.136719 L 361.929688 97.105469 C 361.929688 101.980469 357.980469 105.933594 353.101562 105.933594 C 348.226562 105.933594 344.273438 101.980469 344.273438 97.105469 L 344.273438 44.136719 Z M 361.929688 44.136719 " style=" stroke:none;fill-rule:nonzero;fill:rgb(34.117647%,64.313725%,100%);fill-opacity:1;" />
<path d="M 211.863281 105.933594 L 211.863281 247.171875 L 247.171875 247.171875 L 247.171875 105.933594 C 247.171875 96.179688 239.269531 88.277344 229.519531 88.277344 C 219.765625 88.277344 211.863281 96.179688 211.863281 105.933594 Z M 211.863281 105.933594 " style=" stroke:none;fill-rule:nonzero;fill:rgb(93.72549%,80.392157%,22.352941%);fill-opacity:1;" />
<path d="M 273.65625 105.933594 L 273.65625 247.171875 L 308.964844 247.171875 L 308.964844 105.933594 C 308.964844 96.179688 301.0625 88.277344 291.3125 88.277344 C 281.5625 88.277344 273.65625 96.179688 273.65625 105.933594 Z M 273.65625 105.933594 " style=" stroke:none;fill-rule:nonzero;fill:rgb(100%,84.705882%,22.352941%);fill-opacity:1;" />
<path d="M 335.449219 105.933594 L 335.449219 229.519531 L 370.757812 229.519531 L 370.757812 105.933594 C 370.757812 96.179688 362.855469 88.277344 353.105469 88.277344 C 343.355469 88.277344 335.449219 96.179688 335.449219 105.933594 Z M 335.449219 105.933594 " style=" stroke:none;fill-rule:nonzero;fill:rgb(100%,87.058824%,9.019608%);fill-opacity:1;" />
</g>
</svg>