<svg xmlns="http://www.w3.org/2000/svg" height="464pt" version="1.1" viewBox="0 -56 464 464" width="464pt">
<g id="surface1">
<path d="M 32 96 L 0 96 L 0 128 L 464 128 L 464 96 Z M 32 96 " style=" stroke:none;fill-rule:nonzero;fill:rgb(45.882353%,29.803922%,16.078431%);fill-opacity:1;" />
<path d="M 40 176 L 424 176 L 424 128 L 40 128 Z M 40 176 " style=" stroke:none;fill-rule:nonzero;fill:rgb(66.27451%,48.627451%,31.372549%);fill-opacity:1;" />
<path d="M 40 176 L 72 176 L 72 352 L 40 352 Z M 40 176 " style=" stroke:none;fill-rule:nonzero;fill:rgb(66.27451%,48.627451%,31.372549%);fill-opacity:1;" />
<path d="M 392 176 L 424 176 L 424 352 L 392 352 Z M 392 176 " style=" stroke:none;fill-rule:nonzero;fill:rgb(66.27451%,48.627451%,31.372549%);fill-opacity:1;" />
<path d="M 280 32 L 280 72 C 280 85.253906 290.746094 96 304 96 C 317.253906 96 328 85.253906 328 72 L 328 32 Z M 280 32 " style=" stroke:none;fill-rule:nonzero;fill:rgb(34.117647%,64.313725%,100%);fill-opacity:1;" />
<path d="M 416 32 L 368 32 L 368 72 C 368 85.253906 378.746094 96 392 96 C 405.253906 96 416 85.253906 416 72 Z M 416 32 " style=" stroke:none;fill-rule:nonzero;fill:rgb(34.117647%,64.313725%,100%);fill-opacity:1;" />
<path d="M 176 64 L 32 64 L 32 96 L 176 96 Z M 176 64 " style=" stroke:none;fill-rule:nonzero;fill:rgb(34.117647%,64.313725%,100%);fill-opacity:1;" />
<path d="M 192 64 L 192 32 L 48 32 L 48 64 Z M 192 64 " style=" stroke:none;fill-rule:nonzero;fill:rgb(36.862745%,67.45098%,14.117647%);fill-opacity:1;" />
<path d="M 176 0 L 32 0 L 32 32 L 176 32 Z M 176 0 " style=" stroke:none;fill-rule:nonzero;fill:rgb(100%,88.627451%,43.137255%);fill-opacity:1;" />
</g>
</svg>