<svg xmlns="http://www.w3.org/2000/svg" height="700pt" version="1.1" viewBox="0 -12 700.2 700" width="700pt">
<g id="surface1">
<path d="M 301.800781 289.699219 L 205.199219 289.699219 C 198.5 289.699219 193.101562 284.300781 193.101562 277.601562 C 193.101562 276.300781 193.300781 275 193.699219 273.800781 L 217.800781 201.398438 C 219.398438 196.5 224.101562 193.101562 229.199219 193.101562 L 277.5 193.101562 C 282.699219 193.101562 287.300781 196.398438 288.898438 201.398438 L 313 273.800781 C 315.101562 280.101562 311.699219 287 305.398438 289.101562 C 304.398438 289.5 303.101562 289.699219 301.800781 289.699219 Z M 222 265.601562 L 285.101562 265.601562 L 269 217.300781 L 238.101562 217.300781 Z M 222 265.601562 " style=" stroke:none;fill-rule:nonzero;fill:rgb(47.058824%,46.27451%,50.196078%);fill-opacity:1;" />
<path d="M 615.699219 241.398438 C 629 241.398438 639.800781 230.601562 639.800781 217.300781 L 639.800781 205.199219 C 639.800781 191.898438 629 181.101562 615.699219 181.101562 L 603.601562 181.101562 L 603.601562 241.5 L 615.699219 241.5 Z M 615.699219 241.398438 " style=" stroke:none;fill-rule:nonzero;fill:rgb(77.647059%,77.254902%,79.215686%);fill-opacity:1;" />
<path d="M 205.199219 265.601562 L 0 265.601562 L 0 313.898438 L 700.199219 313.898438 L 700.199219 265.601562 Z M 205.199219 265.601562 " style=" stroke:none;fill-rule:nonzero;fill:rgb(54.509804%,36.862745%,23.529412%);fill-opacity:1;" />
<path d="M 410.5 434.601562 L 651.898438 434.601562 L 651.898438 313.898438 L 410.5 313.898438 Z M 555.300781 350.101562 Z M 555.300781 350.101562 " style=" stroke:none;fill-rule:nonzero;fill:rgb(76.862745%,60.392157%,42.352941%);fill-opacity:1;" />
<path d="M 410.5 555.300781 L 651.898438 555.300781 L 651.898438 434.601562 L 410.5 434.601562 Z M 555.300781 470.800781 Z M 555.300781 470.800781 " style=" stroke:none;fill-rule:nonzero;fill:rgb(66.27451%,48.627451%,31.372549%);fill-opacity:1;" />
<path d="M 410.5 676 L 651.898438 676 L 651.898438 555.300781 L 410.5 555.300781 Z M 555.300781 591.5 Z M 555.300781 591.5 " style=" stroke:none;fill-rule:nonzero;fill:rgb(54.509804%,36.862745%,23.529412%);fill-opacity:1;" />
<path d="M 48.300781 313.898438 L 96.601562 313.898438 L 96.601562 676 L 48.300781 676 Z M 48.300781 313.898438 " style=" stroke:none;fill-rule:nonzero;fill:rgb(66.27451%,48.627451%,31.372549%);fill-opacity:1;" />
<path d="M 422.5 217.300781 C 435.800781 217.300781 446.601562 206.5 446.601562 193.199219 L 446.601562 24.199219 C 446.601562 10.898438 435.800781 0.101562 422.5 0.101562 L 84.5 0.101562 C 71.199219 0.101562 60.398438 10.898438 60.398438 24.199219 L 60.398438 193.199219 C 60.398438 206.5 71.199219 217.300781 84.5 217.300781 Z M 96.601562 181.101562 L 96.601562 36.199219 L 410.5 36.199219 L 410.5 181.101562 Z M 96.601562 181.101562 " style=" stroke:none;fill-rule:nonzero;fill:rgb(53.72549%,53.333333%,56.470588%);fill-opacity:1;" />
<path d="M 96.601562 36.199219 L 410.5 36.199219 L 410.5 181.101562 L 96.601562 181.101562 Z M 96.601562 36.199219 " style=" stroke:none;fill-rule:nonzero;fill:rgb(74.117647%,85.882353%,100%);fill-opacity:1;" />
<path d="M 531.199219 169 L 531.199219 241.398438 C 531.199219 254.699219 542 265.5 555.300781 265.5 L 579.398438 265.5 C 592.699219 265.5 603.5 254.699219 603.5 241.398438 L 603.5 169 Z M 531.199219 169 " style=" stroke:none;fill-rule:nonzero;fill:rgb(87.843137%,87.843137%,88.627451%);fill-opacity:1;" />
<path d="M 555.300781 362.101562 L 507 362.101562 C 500.300781 362.101562 494.898438 356.699219 494.898438 350 C 494.898438 343.300781 500.300781 337.898438 507 337.898438 L 555.300781 337.898438 C 562 337.898438 567.398438 343.300781 567.398438 350 C 567.398438 356.699219 562 362.101562 555.300781 362.101562 Z M 555.300781 362.101562 " style=" stroke:none;fill-rule:nonzero;fill:rgb(37.647059%,22.352941%,7.45098%);fill-opacity:1;" />
<path d="M 555.300781 482.898438 L 507 482.898438 C 500.300781 482.898438 494.898438 477.5 494.898438 470.800781 C 494.898438 464.101562 500.300781 458.699219 507 458.699219 L 555.300781 458.699219 C 562 458.699219 567.398438 464.101562 567.398438 470.800781 C 567.398438 477.5 562 482.898438 555.300781 482.898438 Z M 555.300781 482.898438 " style=" stroke:none;fill-rule:nonzero;fill:rgb(37.647059%,22.352941%,7.45098%);fill-opacity:1;" />
<path d="M 555.300781 603.601562 L 507 603.601562 C 500.300781 603.601562 494.898438 598.199219 494.898438 591.5 C 494.898438 584.800781 500.300781 579.398438 507 579.398438 L 555.300781 579.398438 C 562 579.398438 567.398438 584.800781 567.398438 591.5 C 567.398438 598.199219 562 603.601562 555.300781 603.601562 Z M 555.300781 603.601562 " style=" stroke:none;fill-rule:nonzero;fill:rgb(37.647059%,22.352941%,7.45098%);fill-opacity:1;" />
</g>
</svg>