<svg xmlns="http://www.w3.org/2000/svg" height="512pt" version="1.1" viewBox="0 -2 512.00001 512" width="512pt">
<g id="surface1">
<path d="M 467.863281 242.628906 C 462.988281 242.628906 459.035156 238.679688 459.035156 233.804688 L 459.035156 110.21875 C 459.035156 105.34375 462.988281 101.390625 467.863281 101.390625 C 472.738281 101.390625 476.691406 105.339844 476.691406 110.21875 L 476.691406 233.804688 C 476.691406 238.679688 472.738281 242.628906 467.863281 242.628906 Z M 467.863281 242.628906 " style=" stroke:none;fill-rule:nonzero;fill:rgb(74.117647%,85.882353%,100%);fill-opacity:1;" />
<path d="M 211.863281 224.976562 L 0 224.976562 L 0 260.285156 L 512 260.285156 L 512 224.976562 Z M 211.863281 224.976562 " style=" stroke:none;fill-rule:nonzero;fill:rgb(45.882353%,29.803922%,16.078431%);fill-opacity:1;" />
<path d="M 238.34375 313.253906 L 203.035156 313.253906 L 132.414062 507.460938 L 167.722656 507.460938 L 180.523438 472.148438 L 190.234375 445.664062 Z M 238.34375 313.253906 " style=" stroke:none;fill-rule:nonzero;fill:rgb(65.490196%,53.72549%,40%);fill-opacity:1;" />
<path d="M 321.765625 445.664062 L 331.476562 472.148438 L 344.277344 507.460938 L 379.585938 507.460938 L 308.964844 313.253906 L 273.65625 313.253906 Z M 321.765625 445.664062 " style=" stroke:none;fill-rule:nonzero;fill:rgb(65.490196%,53.72549%,40%);fill-opacity:1;" />
<path d="M 203.035156 313.253906 L 308.964844 313.253906 L 308.964844 260.285156 L 203.035156 260.285156 Z M 203.035156 313.253906 " style=" stroke:none;fill-rule:nonzero;fill:rgb(50.196078%,40.392157%,28.627451%);fill-opacity:1;" />
<path d="M 343.023438 17.660156 L 318.046875 42.625 L 367.984375 92.5625 L 392.960938 67.597656 C 399.855469 60.703125 399.859375 49.527344 392.964844 42.628906 C 392.964844 42.628906 392.960938 42.625 392.960938 42.625 L 367.984375 17.660156 C 361.09375 10.765625 349.917969 10.765625 343.023438 17.660156 Z M 343.023438 17.660156 " style=" stroke:none;fill-rule:nonzero;fill:rgb(74.117647%,85.882353%,100%);fill-opacity:1;" />
<path d="M 211.863281 189.664062 L 52.964844 189.664062 L 52.964844 224.976562 L 211.863281 224.976562 Z M 211.863281 189.664062 " style=" stroke:none;fill-rule:nonzero;fill:rgb(34.117647%,64.313725%,100%);fill-opacity:1;" />
<path d="M 229.519531 189.664062 L 229.519531 154.355469 L 70.621094 154.355469 L 70.621094 189.664062 Z M 229.519531 189.664062 " style=" stroke:none;fill-rule:nonzero;fill:rgb(49.411765%,83.921569%,24.313725%);fill-opacity:1;" />
<path d="M 211.863281 119.042969 L 52.964844 119.042969 L 52.964844 154.355469 L 211.863281 154.355469 Z M 211.863281 119.042969 " style=" stroke:none;fill-rule:nonzero;fill:rgb(100%,71.372549%,33.333333%);fill-opacity:1;" />
<path d="M 190.234375 445.664062 L 180.523438 472.148438 L 331.476562 472.148438 L 321.765625 445.664062 Z M 190.234375 445.664062 " style=" stroke:none;fill-rule:nonzero;fill:rgb(65.490196%,53.72549%,40%);fill-opacity:1;" />
<path d="M 238.34375 295.597656 L 229.515625 295.597656 C 224.640625 295.597656 220.6875 291.644531 220.6875 286.769531 C 220.6875 281.894531 224.640625 277.941406 229.515625 277.941406 L 238.34375 277.941406 C 243.21875 277.941406 247.171875 281.894531 247.171875 286.769531 C 247.171875 291.644531 243.21875 295.597656 238.34375 295.597656 Z M 238.34375 295.597656 " style=" stroke:none;fill-rule:nonzero;fill:rgb(76.862745%,60.392157%,42.352941%);fill-opacity:1;" />
<path d="M 282.484375 295.597656 L 273.65625 295.597656 C 268.78125 295.597656 264.828125 291.644531 264.828125 286.769531 C 264.828125 281.894531 268.78125 277.941406 273.65625 277.941406 L 282.484375 277.941406 C 287.359375 277.941406 291.3125 281.894531 291.3125 286.769531 C 291.308594 291.644531 287.359375 295.597656 282.484375 295.597656 Z M 282.484375 295.597656 " style=" stroke:none;fill-rule:nonzero;fill:rgb(76.862745%,60.392157%,42.352941%);fill-opacity:1;" />
<path d="M 455.378906 88.90625 C 453.039062 88.90625 450.792969 87.976562 449.136719 86.320312 L 399.199219 36.382812 C 395.8125 32.875 395.910156 27.289062 399.417969 23.902344 C 402.839844 20.597656 408.261719 20.597656 411.683594 23.902344 L 461.621094 73.839844 C 465.066406 77.285156 465.066406 82.875 461.621094 86.320312 C 459.964844 87.976562 457.71875 88.90625 455.378906 88.90625 Z M 455.378906 88.90625 " style=" stroke:none;fill-rule:nonzero;fill:rgb(74.117647%,85.882353%,100%);fill-opacity:1;" />
<path d="M 480.34375 80.082031 C 473.449219 73.183594 462.273438 73.183594 455.375 80.078125 C 448.480469 86.96875 448.480469 98.148438 455.371094 105.046875 C 462.265625 111.941406 473.445312 111.941406 480.339844 105.046875 C 480.34375 105.046875 480.34375 105.046875 480.34375 105.046875 C 487.238281 98.148438 487.238281 86.972656 480.34375 80.082031 Z M 480.34375 80.082031 " style=" stroke:none;fill-rule:nonzero;fill:rgb(60.784314%,78.823529%,100%);fill-opacity:1;" />
<path d="M 405.441406 5.167969 C 398.546875 -1.722656 387.371094 -1.722656 380.476562 5.167969 L 367.984375 17.660156 L 392.960938 42.625 L 405.441406 30.144531 C 412.339844 23.25 412.339844 12.070312 405.449219 5.175781 C 405.445312 5.171875 405.445312 5.171875 405.441406 5.167969 Z M 405.441406 5.167969 " style=" stroke:none;fill-rule:nonzero;fill:rgb(60.784314%,78.823529%,100%);fill-opacity:1;" />
</g>
</svg>