<svg xmlns="http://www.w3.org/2000/svg" height="511pt" version="1.1" viewBox="-4 1 511 511.99959" width="511pt">
<g id="surface1">
<path d="M 52.566406 459.933594 L 139.347656 321.085938 L 200.875 419.582031 L 312.386719 251.660156 L 451.753906 459.933594 L 451.753906 182.234375 L 52.566406 182.234375 Z M 200.09375 234.304688 C 214.472656 234.304688 226.128906 245.960938 226.128906 260.339844 C 226.128906 274.714844 214.472656 286.371094 200.09375 286.371094 C 185.714844 286.371094 174.058594 274.714844 174.058594 260.339844 C 174.058594 245.960938 185.714844 234.304688 200.09375 234.304688 Z M 200.09375 234.304688 " style=" stroke:none;fill-rule:nonzero;fill:rgb(76.078431%,87.45098%,96.470588%);fill-opacity:1;" />
<path d="M 200.875 419.578125 L 174.058594 459.933594 L 451.753906 459.933594 L 312.386719 251.660156 Z M 200.875 419.578125 " style=" stroke:none;fill-rule:nonzero;fill:rgb(36.862745%,67.45098%,14.117647%);fill-opacity:1;" />
<path d="M 139.347656 321.085938 L 52.566406 459.933594 L 174.058594 459.933594 L 200.875 419.578125 Z M 139.347656 321.085938 " style=" stroke:none;fill-rule:nonzero;fill:rgb(30.588235%,56.470588%,11.764706%);fill-opacity:1;" />
<path d="M 226.128906 260.339844 C 226.128906 274.714844 214.472656 286.371094 200.09375 286.371094 C 185.714844 286.371094 174.058594 274.714844 174.058594 260.339844 C 174.058594 245.960938 185.714844 234.304688 200.09375 234.304688 C 214.472656 234.304688 226.128906 245.960938 226.128906 260.339844 Z M 226.128906 260.339844 " style=" stroke:none;fill-rule:nonzero;fill:rgb(100%,47.45098%,33.72549%);fill-opacity:1;" />
<path d="M 382.332031 147.523438 C 380.03125 147.523438 377.824219 146.609375 376.195312 144.980469 L 252.160156 20.945312 L 128.125 144.980469 C 124.679688 148.3125 119.183594 148.214844 115.855469 144.769531 C 112.609375 141.40625 112.609375 136.074219 115.855469 132.710938 L 246.027344 2.539062 C 249.414062 -0.847656 254.90625 -0.847656 258.296875 2.539062 L 388.464844 132.710938 C 391.855469 136.101562 391.855469 141.59375 388.464844 144.984375 C 386.835938 146.609375 384.632812 147.523438 382.332031 147.523438 Z M 382.332031 147.523438 " style=" stroke:none;fill-rule:nonzero;fill:rgb(45.882353%,29.803922%,16.078431%);fill-opacity:1;" />
<path d="M 130.667969 130.167969 L 17.855469 130.167969 C 8.269531 130.167969 0.5 137.9375 0.5 147.523438 L 0.5 494.644531 C 0.5 504.230469 8.269531 512 17.855469 512 L 486.46875 512 C 496.054688 512 503.824219 504.230469 503.824219 494.644531 L 503.824219 147.523438 C 503.824219 137.9375 496.050781 130.167969 486.46875 130.167969 Z M 451.753906 459.933594 L 52.566406 459.933594 L 52.566406 182.234375 L 451.753906 182.234375 Z M 451.753906 459.933594 " style=" stroke:none;fill-rule:nonzero;fill:rgb(70.196078%,60.392157%,48.627451%);fill-opacity:1;" />
</g>
</svg>