<svg xmlns="http://www.w3.org/2000/svg" height="512pt" version="1.1" viewBox="0 0 512 512.00089" width="512pt">
<g id="surface1">
<path d="M 203.035156 52.96875 L 114.757812 52.96875 C 109.882812 52.972656 105.929688 49.019531 105.925781 44.144531 C 105.925781 41.460938 107.144531 38.921875 109.242188 37.246094 L 153.378906 1.9375 C 156.605469 -0.644531 161.1875 -0.644531 164.414062 1.9375 L 208.550781 37.246094 C 212.359375 40.292969 212.976562 45.847656 209.929688 49.65625 C 208.257812 51.75 205.71875 52.96875 203.035156 52.96875 Z M 139.925781 35.3125 L 177.882812 35.3125 L 158.894531 20.128906 Z M 139.925781 35.3125 " style=" stroke:none;fill-rule:nonzero;fill:rgb(87.843137%,87.843137%,88.627451%);fill-opacity:1;" />
<path d="M 432.550781 494.34375 C 427.675781 494.34375 423.722656 490.394531 423.722656 485.515625 L 423.722656 141.242188 C 423.722656 136.367188 427.671875 132.414062 432.550781 132.414062 C 437.425781 132.414062 441.375 136.367188 441.375 141.242188 L 441.375 485.515625 C 441.375 490.394531 437.425781 494.34375 432.550781 494.34375 Z M 432.550781 494.34375 " style=" stroke:none;fill-rule:nonzero;fill:rgb(81.960784%,82.745098%,83.137255%);fill-opacity:1;" />
<path d="M 70.621094 406.070312 L 247.171875 406.070312 L 247.171875 476.691406 L 70.621094 476.691406 Z M 70.621094 406.070312 " style=" stroke:none;fill-rule:nonzero;fill:rgb(66.27451%,48.627451%,31.372549%);fill-opacity:1;" />
<path d="M 70.621094 370.757812 C 70.621094 361.007812 62.714844 353.105469 52.964844 353.105469 L 17.65625 353.105469 C 7.90625 353.105469 0 361.011719 0 370.757812 L 0 476.691406 L 70.621094 476.691406 Z M 70.621094 370.757812 " style=" stroke:none;fill-rule:nonzero;fill:rgb(66.27451%,48.627451%,31.372549%);fill-opacity:1;" />
<path d="M 247.171875 353.105469 L 247.171875 476.691406 L 317.792969 476.691406 L 317.792969 370.757812 C 317.792969 361.007812 309.886719 353.105469 300.136719 353.105469 Z M 247.171875 353.105469 " style=" stroke:none;fill-rule:nonzero;fill:rgb(66.27451%,48.627451%,31.372549%);fill-opacity:1;" />
<path d="M 70.621094 406.070312 L 247.171875 406.070312 L 247.171875 370.757812 C 247.171875 361.007812 255.074219 353.105469 264.824219 353.105469 L 282.480469 353.105469 L 282.480469 264.828125 C 282.480469 245.328125 266.671875 229.519531 247.171875 229.519531 L 70.621094 229.519531 C 51.121094 229.519531 35.308594 245.328125 35.308594 264.828125 L 35.308594 353.105469 L 52.964844 353.105469 C 62.714844 353.105469 70.621094 361.011719 70.621094 370.757812 Z M 70.621094 406.070312 " style=" stroke:none;fill-rule:nonzero;fill:rgb(54.509804%,36.862745%,23.529412%);fill-opacity:1;" />
<path d="M 17.65625 476.691406 L 52.964844 476.691406 L 52.964844 512 L 17.65625 512 Z M 17.65625 476.691406 " style=" stroke:none;fill-rule:nonzero;fill:rgb(54.509804%,36.862745%,23.529412%);fill-opacity:1;" />
<path d="M 264.824219 476.691406 L 300.136719 476.691406 L 300.136719 512 L 264.824219 512 Z M 264.824219 476.691406 " style=" stroke:none;fill-rule:nonzero;fill:rgb(54.509804%,36.862745%,23.529412%);fill-opacity:1;" />
<path d="M 397.238281 0.00390625 L 353.101562 141.242188 L 511.996094 141.242188 L 467.859375 0.00390625 Z M 397.238281 0.00390625 " style=" stroke:none;fill-rule:nonzero;fill:rgb(86.27451%,95.686275%,79.215686%);fill-opacity:1;" />
<path d="M 379.585938 476.691406 L 485.515625 476.691406 C 495.265625 476.691406 503.171875 484.59375 503.171875 494.34375 C 503.171875 504.097656 495.265625 512 485.515625 512 L 379.585938 512 C 369.832031 512 361.929688 504.09375 361.929688 494.34375 C 361.929688 484.59375 369.832031 476.691406 379.585938 476.691406 Z M 379.585938 476.691406 " style=" stroke:none;fill-rule:nonzero;fill:rgb(70.196078%,60.392157%,48.627451%);fill-opacity:1;" />
<path d="M 273.652344 52.96875 C 273.652344 43.21875 265.75 35.3125 256 35.3125 L 61.792969 35.3125 C 52.042969 35.3125 44.136719 43.21875 44.136719 52.96875 L 44.136719 158.898438 C 44.136719 168.648438 52.042969 176.554688 61.792969 176.554688 L 256 176.554688 C 265.75 176.554688 273.652344 168.648438 273.652344 158.898438 Z M 247.171875 150.070312 L 70.621094 150.070312 L 70.621094 61.796875 L 247.171875 61.796875 Z M 247.171875 150.070312 " style=" stroke:none;fill-rule:nonzero;fill:rgb(92.156863%,74.901961%,0%);fill-opacity:1;" />
<path d="M 70.621094 61.796875 L 247.171875 61.796875 L 247.171875 150.070312 L 70.621094 150.070312 Z M 70.621094 61.796875 " style=" stroke:none;fill-rule:nonzero;fill:rgb(86.666667%,100%,98.431373%);fill-opacity:1;" />
</g>
</svg>