<svg xmlns="http://www.w3.org/2000/svg" height="464pt" version="1.1" viewBox="0 0 464 464" width="464pt">
<g id="surface1">
<path d="M 208 159.601562 L 208 328 C 208 332.417969 204.417969 336 200 336 L 120 336 C 93.492188 336 72 357.492188 72 384 L 72 404.320312 C 59.425781 411.5625 53.289062 426.351562 57.039062 440.371094 C 60.789062 454.386719 73.488281 464.136719 88 464.136719 C 102.511719 464.136719 115.210938 454.386719 118.960938 440.371094 C 122.710938 426.351562 116.574219 411.5625 104 404.320312 L 104 384 C 104.027344 375.175781 111.175781 368.027344 120 368 L 200 368 C 208.824219 368.027344 215.972656 375.175781 216 384 L 216 404.320312 C 203.425781 411.5625 197.289062 426.351562 201.039062 440.371094 C 204.789062 454.386719 217.488281 464.136719 232 464.136719 C 246.511719 464.136719 259.210938 454.386719 262.960938 440.371094 C 266.710938 426.351562 260.574219 411.5625 248 404.320312 L 248 384 C 248.027344 375.175781 255.175781 368.027344 264 368 L 352 368 C 360.824219 368.027344 367.972656 375.175781 368 384 L 368 404.320312 C 355.492188 411.480469 349.328125 426.132812 352.960938 440.078125 C 355.835938 451.441406 364.765625 460.28125 376.160156 463.039062 C 391.628906 466.921875 407.597656 458.816406 413.597656 444.039062 C 419.59375 429.261719 413.796875 412.320312 400 404.320312 L 400 384 C 400 357.492188 378.507812 336 352 336 L 264 336 C 259.582031 336 256 332.417969 256 328 L 256 159.601562 C 248.078125 159.839844 240.078125 160 232 160 C 223.921875 160 215.921875 159.839844 208 159.601562 Z M 208 159.601562 " style=" stroke:none;fill-rule:nonzero;fill:rgb(67.45098%,67.058824%,69.411765%);fill-opacity:1;" />
<path d="M 232 0 C 103.839844 0 0 35.839844 0 80 C 0 121.359375 91.121094 155.441406 208 159.601562 C 215.921875 159.839844 223.921875 160 232 160 C 240.078125 160 248.078125 159.839844 256 159.601562 C 372.878906 155.441406 464 121.359375 464 80 C 464 35.839844 360.160156 0 232 0 Z M 232 0 " style=" stroke:none;fill-rule:nonzero;fill:rgb(87.843137%,87.843137%,88.627451%);fill-opacity:1;" />
</g>
</svg>