<svg xmlns="http://www.w3.org/2000/svg" height="511pt" version="1.1" viewBox="-94 1 511 511.9991" width="511pt">
<g id="surface1">
<path d="M 99.304688 476.070312 C 89.382812 476.070312 81.339844 484.113281 81.339844 494.035156 L 81.339844 512 L 243.027344 512 L 243.027344 494.035156 C 243.027344 484.113281 234.984375 476.070312 225.0625 476.070312 Z M 99.304688 476.070312 " style=" stroke:none;fill-rule:nonzero;fill:rgb(45.882353%,29.803922%,16.078431%);fill-opacity:1;" />
<path d="M 135.234375 440.140625 C 125.3125 440.140625 117.269531 448.183594 117.269531 458.105469 L 117.269531 476.070312 L 207.09375 476.070312 L 207.09375 458.105469 C 207.09375 448.183594 199.050781 440.140625 189.128906 440.140625 Z M 135.234375 440.140625 " style=" stroke:none;fill-rule:nonzero;fill:rgb(66.27451%,48.627451%,31.372549%);fill-opacity:1;" />
<path d="M 162.183594 134.738281 C 157.222656 134.738281 153.199219 130.714844 153.199219 125.753906 L 153.199219 26.949219 C 153.199219 21.988281 157.222656 17.964844 162.183594 17.964844 C 167.144531 17.964844 171.164062 21.984375 171.164062 26.949219 L 171.164062 125.753906 C 171.164062 130.714844 167.144531 134.738281 162.183594 134.738281 Z M 162.183594 134.738281 " style=" stroke:none;fill-rule:nonzero;fill:rgb(81.960784%,82.745098%,83.137255%);fill-opacity:1;" />
<path d="M 144.21875 150.90625 C 143.617188 150.902344 143.015625 150.84375 142.421875 150.726562 C 96.480469 141.21875 63.496094 100.808594 63.375 53.894531 C 63.375 48.933594 67.398438 44.910156 72.359375 44.910156 C 77.320312 44.910156 81.339844 48.933594 81.339844 53.894531 C 81.441406 92.277344 108.429688 125.339844 146.015625 133.121094 C 150.878906 134.105469 154.019531 138.847656 153.03125 143.710938 C 152.179688 147.898438 148.492188 150.910156 144.21875 150.90625 Z M 144.21875 150.90625 " style=" stroke:none;fill-rule:nonzero;fill:rgb(81.960784%,82.745098%,83.137255%);fill-opacity:1;" />
<path d="M 180.148438 150.90625 C 175.1875 150.910156 171.164062 146.890625 171.15625 141.933594 C 171.152344 137.65625 174.160156 133.972656 178.351562 133.121094 C 215.9375 125.339844 242.925781 92.277344 243.027344 53.894531 C 243.027344 48.933594 247.046875 44.914062 252.007812 44.914062 C 256.96875 44.914062 260.992188 48.933594 260.992188 53.894531 C 260.871094 100.808594 227.886719 141.21875 181.945312 150.726562 C 181.351562 150.84375 180.75 150.902344 180.148438 150.90625 Z M 180.148438 150.90625 " style=" stroke:none;fill-rule:nonzero;fill:rgb(81.960784%,82.745098%,83.137255%);fill-opacity:1;" />
<path d="M 144.21875 214.5 C 143.867188 214.5 143.515625 214.480469 143.167969 214.4375 C 90.601562 208.261719 44.398438 176.714844 19.507812 130.003906 C 17.167969 125.621094 18.828125 120.175781 23.207031 117.839844 C 27.589844 115.503906 33.035156 117.160156 35.371094 121.542969 C 57.476562 163.066406 98.535156 191.117188 145.25 196.617188 C 150.167969 197.277344 153.621094 201.792969 152.960938 206.710938 C 152.371094 211.113281 148.65625 214.421875 144.21875 214.5 Z M 144.21875 214.5 " style=" stroke:none;fill-rule:nonzero;fill:rgb(81.960784%,82.745098%,83.137255%);fill-opacity:1;" />
<path d="M 180.148438 214.5 C 175.1875 214.484375 171.179688 210.453125 171.195312 205.492188 C 171.207031 200.949219 174.609375 197.132812 179.117188 196.597656 C 225.835938 191.097656 266.890625 163.046875 289 121.523438 C 291.335938 117.140625 296.78125 115.484375 301.160156 117.820312 C 305.542969 120.15625 307.199219 125.601562 304.863281 129.984375 C 279.96875 176.695312 233.765625 208.242188 181.199219 214.417969 C 180.851562 214.46875 180.5 214.496094 180.148438 214.5 Z M 180.148438 214.5 " style=" stroke:none;fill-rule:nonzero;fill:rgb(81.960784%,82.745098%,83.137255%);fill-opacity:1;" />
<path d="M 144.21875 440.140625 L 180.148438 440.140625 L 180.148438 134.738281 C 180.074219 124.847656 172.074219 116.84375 162.183594 116.773438 C 152.273438 116.800781 144.25 124.828125 144.21875 134.738281 Z M 144.21875 440.140625 " style=" stroke:none;fill-rule:nonzero;fill:rgb(67.45098%,67.058824%,69.411765%);fill-opacity:1;" />
<path d="M 180.148438 17.964844 C 180.148438 27.886719 172.105469 35.929688 162.183594 35.929688 C 152.261719 35.929688 144.21875 27.886719 144.21875 17.964844 C 144.21875 8.042969 152.261719 0 162.183594 0 C 172.105469 0 180.148438 8.042969 180.148438 17.964844 Z M 180.148438 17.964844 " style=" stroke:none;fill-rule:nonzero;fill:rgb(66.27451%,48.627451%,31.372549%);fill-opacity:1;" />
<path d="M 269.972656 44.910156 C 269.972656 54.832031 261.929688 62.875 252.007812 62.875 C 242.085938 62.875 234.042969 54.832031 234.042969 44.910156 C 234.042969 34.992188 242.085938 26.949219 252.007812 26.949219 C 261.929688 26.949219 269.972656 34.992188 269.972656 44.910156 Z M 269.972656 44.910156 " style=" stroke:none;fill-rule:nonzero;fill:rgb(66.27451%,48.627451%,31.372549%);fill-opacity:1;" />
<path d="M 90.324219 44.910156 C 90.324219 54.832031 82.28125 62.875 72.359375 62.875 C 62.4375 62.875 54.394531 54.832031 54.394531 44.910156 C 54.394531 34.992188 62.4375 26.949219 72.359375 26.949219 C 82.28125 26.949219 90.324219 34.992188 90.324219 44.910156 Z M 90.324219 44.910156 " style=" stroke:none;fill-rule:nonzero;fill:rgb(66.27451%,48.627451%,31.372549%);fill-opacity:1;" />
<path d="M 36.429688 107.789062 C 36.429688 117.710938 28.386719 125.753906 18.464844 125.753906 C 8.542969 125.753906 0.5 117.710938 0.5 107.789062 C 0.5 97.867188 8.542969 89.824219 18.464844 89.824219 C 28.386719 89.824219 36.429688 97.867188 36.429688 107.789062 Z M 36.429688 107.789062 " style=" stroke:none;fill-rule:nonzero;fill:rgb(66.27451%,48.627451%,31.372549%);fill-opacity:1;" />
<path d="M 323.867188 107.789062 C 323.867188 117.710938 315.824219 125.753906 305.902344 125.753906 C 295.980469 125.753906 287.9375 117.710938 287.9375 107.789062 C 287.9375 97.867188 295.980469 89.824219 305.902344 89.824219 C 315.824219 89.824219 323.867188 97.867188 323.867188 107.789062 Z M 323.867188 107.789062 " style=" stroke:none;fill-rule:nonzero;fill:rgb(66.27451%,48.627451%,31.372549%);fill-opacity:1;" />
</g>
</svg>