<svg xmlns="http://www.w3.org/2000/svg" height="464pt" version="1.1" viewBox="0 0 464 464" width="464pt">
<g id="surface1">
<path d="M 288 232 L 464 232 L 464 104 L 288 104 Z M 312 176 Z M 312 176 " style=" stroke:none;fill-rule:nonzero;fill:rgb(71.372549%,92.156863%,57.254902%);fill-opacity:1;" />
<path d="M 288 304 L 288 464 L 464 464 L 464 232 L 288 232 Z M 312 256 Z M 312 256 " style=" stroke:none;fill-rule:nonzero;fill:rgb(64.313725%,88.627451%,46.27451%);fill-opacity:1;" />
<path d="M 160 336 L 256 336 L 256 432 L 160 432 Z M 160 336 " style=" stroke:none;fill-rule:nonzero;fill:rgb(53.72549%,53.333333%,56.470588%);fill-opacity:1;" />
<path d="M 0 352 L 128 352 L 128 464 L 0 464 Z M 0 352 " style=" stroke:none;fill-rule:nonzero;fill:rgb(92.156863%,74.901961%,0%);fill-opacity:1;" />
<path d="M 112 0 L 160 0 L 160 32 L 112 32 Z M 112 0 " style=" stroke:none;fill-rule:nonzero;fill:rgb(77.647059%,77.254902%,79.215686%);fill-opacity:1;" />
<path d="M 96 32 L 16 128 L 256 128 L 176 32 Z M 96 32 " style=" stroke:none;fill-rule:nonzero;fill:rgb(67.45098%,67.058824%,69.411765%);fill-opacity:1;" />
<path d="M 312 216 C 307.582031 216 304 212.417969 304 208 L 304 176 C 304 171.582031 307.582031 168 312 168 C 316.417969 168 320 171.582031 320 176 L 320 208 C 320 212.417969 316.417969 216 312 216 Z M 312 216 " style=" stroke:none;fill-rule:nonzero;fill:rgb(30.588235%,56.470588%,11.764706%);fill-opacity:1;" />
<path d="M 312 296 C 307.582031 296 304 292.417969 304 288 L 304 256 C 304 251.582031 307.582031 248 312 248 C 316.417969 248 320 251.582031 320 256 L 320 288 C 320 292.417969 316.417969 296 312 296 Z M 312 296 " style=" stroke:none;fill-rule:nonzero;fill:rgb(30.588235%,56.470588%,11.764706%);fill-opacity:1;" />
<path d="M 104 296 L 24 296 C 19.582031 296 16 292.417969 16 288 C 16 283.582031 19.582031 280 24 280 L 104 280 C 108.417969 280 112 283.582031 112 288 C 112 292.417969 108.417969 296 104 296 Z M 104 296 " style=" stroke:none;fill-rule:nonzero;fill:rgb(37.254902%,30.196078%,21.568627%);fill-opacity:1;" />
<path d="M 40 320 C 35.582031 320 32 316.417969 32 312 L 32 288 C 32 283.582031 35.582031 280 40 280 C 44.417969 280 48 283.582031 48 288 L 48 312 C 48 316.417969 44.417969 320 40 320 Z M 40 320 " style=" stroke:none;fill-rule:nonzero;fill:rgb(37.254902%,30.196078%,21.568627%);fill-opacity:1;" />
<path d="M 88 320 C 83.582031 320 80 316.417969 80 312 L 80 288 C 80 283.582031 83.582031 280 88 280 C 92.417969 280 96 283.582031 96 288 L 96 312 C 96 316.417969 92.417969 320 88 320 Z M 88 320 " style=" stroke:none;fill-rule:nonzero;fill:rgb(37.254902%,30.196078%,21.568627%);fill-opacity:1;" />
<path d="M 248 296 L 168 296 C 163.582031 296 160 292.417969 160 288 C 160 283.582031 163.582031 280 168 280 L 248 280 C 252.417969 280 256 283.582031 256 288 C 256 292.417969 252.417969 296 248 296 Z M 248 296 " style=" stroke:none;fill-rule:nonzero;fill:rgb(37.254902%,30.196078%,21.568627%);fill-opacity:1;" />
<path d="M 184 320 C 179.582031 320 176 316.417969 176 312 L 176 288 C 176 283.582031 179.582031 280 184 280 C 188.417969 280 192 283.582031 192 288 L 192 312 C 192 316.417969 188.417969 320 184 320 Z M 184 320 " style=" stroke:none;fill-rule:nonzero;fill:rgb(37.254902%,30.196078%,21.568627%);fill-opacity:1;" />
<path d="M 232 320 C 227.582031 320 224 316.417969 224 312 L 224 288 C 224 283.582031 227.582031 280 232 280 C 236.417969 280 240 283.582031 240 288 L 240 312 C 240 316.417969 236.417969 320 232 320 Z M 232 320 " style=" stroke:none;fill-rule:nonzero;fill:rgb(37.254902%,30.196078%,21.568627%);fill-opacity:1;" />
<path d="M 128 304 L 128 464 L 288 464 L 288 304 Z M 256 432 L 160 432 L 160 336 L 256 336 Z M 256 432 " style=" stroke:none;fill-rule:nonzero;fill:rgb(75.294118%,67.058824%,56.862745%);fill-opacity:1;" />
<path d="M 0 304 L 128 304 L 128 352 L 0 352 Z M 0 304 " style=" stroke:none;fill-rule:nonzero;fill:rgb(58.431373%,47.058824%,33.72549%);fill-opacity:1;" />
</g>
</svg>