<svg xmlns="http://www.w3.org/2000/svg" height="464pt" version="1.1" viewBox="0 0 464 464" width="464pt">
<g id="surface1">
<path d="M 448 312 L 304 312 C 299.582031 312 296 308.417969 296 304 C 296 299.582031 299.582031 296 304 296 L 448 296 C 452.417969 296 456 299.582031 456 304 C 456 308.417969 452.417969 312 448 312 Z M 448 312 " style=" stroke:none;fill-rule:nonzero;fill:rgb(45.882353%,29.803922%,16.078431%);fill-opacity:1;" />
<path d="M 336 328 C 331.582031 328 328 324.417969 328 320 L 328 304 C 328 299.582031 331.582031 296 336 296 C 340.417969 296 344 299.582031 344 304 L 344 320 C 344 324.417969 340.417969 328 336 328 Z M 336 328 " style=" stroke:none;fill-rule:nonzero;fill:rgb(45.882353%,29.803922%,16.078431%);fill-opacity:1;" />
<path d="M 416 328 C 411.582031 328 408 324.417969 408 320 L 408 304 C 408 299.582031 411.582031 296 416 296 C 420.417969 296 424 299.582031 424 304 L 424 320 C 424 324.417969 420.417969 328 416 328 Z M 416 328 " style=" stroke:none;fill-rule:nonzero;fill:rgb(45.882353%,29.803922%,16.078431%);fill-opacity:1;" />
<path d="M 0 336 L 0 464 L 144 464 L 144 336 Z M 120 416 Z M 120 416 " style=" stroke:none;fill-rule:nonzero;fill:rgb(85.098039%,80%,73.72549%);fill-opacity:1;" />
<path d="M 144 336 L 144 464 L 288 464 L 288 336 Z M 264 416 Z M 264 416 " style=" stroke:none;fill-rule:nonzero;fill:rgb(92.156863%,89.803922%,86.666667%);fill-opacity:1;" />
<path d="M 288 336 L 288 464 L 464 464 L 464 320 L 288 320 Z M 312 344 L 440 344 L 440 440 L 312 440 Z M 312 344 " style=" stroke:none;fill-rule:nonzero;fill:rgb(100%,87.058824%,33.333333%);fill-opacity:1;" />
<path d="M 0 288 L 144 288 L 144 336 L 0 336 Z M 0 288 " style=" stroke:none;fill-rule:nonzero;fill:rgb(58.431373%,47.058824%,33.72549%);fill-opacity:1;" />
<path d="M 288 336 L 288 288 L 144 288 L 144 336 Z M 288 336 " style=" stroke:none;fill-rule:nonzero;fill:rgb(65.490196%,53.72549%,40%);fill-opacity:1;" />
<path d="M 144 48 L 0 48 L 0 160 L 144 160 Z M 120 120 Z M 120 120 " style=" stroke:none;fill-rule:nonzero;fill:rgb(85.098039%,80%,73.72549%);fill-opacity:1;" />
<path d="M 144 160 L 288 160 L 288 48 L 144 48 Z M 264 88 Z M 264 88 " style=" stroke:none;fill-rule:nonzero;fill:rgb(92.156863%,89.803922%,86.666667%);fill-opacity:1;" />
<path d="M 0 0 L 144 0 L 144 48 L 0 48 Z M 0 0 " style=" stroke:none;fill-rule:nonzero;fill:rgb(70.196078%,60.392157%,48.627451%);fill-opacity:1;" />
<path d="M 144 0 L 288 0 L 288 48 L 144 48 Z M 144 0 " style=" stroke:none;fill-rule:nonzero;fill:rgb(75.294118%,67.058824%,56.862745%);fill-opacity:1;" />
<path d="M 408 0 L 352 0 L 352 32 L 296 112 L 464 112 L 408 32 Z M 408 0 " style=" stroke:none;fill-rule:nonzero;fill:rgb(67.45098%,67.058824%,69.411765%);fill-opacity:1;" />
<path d="M 440 344 L 312 344 L 312 440 L 440 440 Z M 360 368 Z M 360 368 " style=" stroke:none;fill-rule:nonzero;fill:rgb(53.72549%,53.333333%,56.470588%);fill-opacity:1;" />
<path d="M 216 280 C 233.671875 280 248 265.671875 248 248 L 184 248 C 184 265.671875 198.328125 280 216 280 Z M 216 280 " style=" stroke:none;fill-rule:nonzero;fill:rgb(87.843137%,87.843137%,88.627451%);fill-opacity:1;" />
<path d="M 128 280 C 145.671875 280 160 265.671875 160 248 L 96 248 C 96 265.671875 110.328125 280 128 280 Z M 128 280 " style=" stroke:none;fill-rule:nonzero;fill:rgb(87.843137%,87.843137%,88.627451%);fill-opacity:1;" />
<path d="M 120 128 C 115.582031 128 112 124.417969 112 120 L 112 88 C 112 83.582031 115.582031 80 120 80 C 124.417969 80 128 83.582031 128 88 L 128 120 C 128 124.417969 124.417969 128 120 128 Z M 120 128 " style=" stroke:none;fill-rule:nonzero;fill:rgb(66.27451%,48.627451%,31.372549%);fill-opacity:1;" />
<path d="M 264 128 C 259.582031 128 256 124.417969 256 120 L 256 88 C 256 83.582031 259.582031 80 264 80 C 268.417969 80 272 83.582031 272 88 L 272 120 C 272 124.417969 268.417969 128 264 128 Z M 264 128 " style=" stroke:none;fill-rule:nonzero;fill:rgb(76.862745%,60.392157%,42.352941%);fill-opacity:1;" />
<path d="M 264 424 C 259.582031 424 256 420.417969 256 416 L 256 384 C 256 379.582031 259.582031 376 264 376 C 268.417969 376 272 379.582031 272 384 L 272 416 C 272 420.417969 268.417969 424 264 424 Z M 264 424 " style=" stroke:none;fill-rule:nonzero;fill:rgb(76.862745%,60.392157%,42.352941%);fill-opacity:1;" />
<path d="M 120 424 C 115.582031 424 112 420.417969 112 416 L 112 384 C 112 379.582031 115.582031 376 120 376 C 124.417969 376 128 379.582031 128 384 L 128 416 C 128 420.417969 124.417969 424 120 424 Z M 120 424 " style=" stroke:none;fill-rule:nonzero;fill:rgb(66.27451%,48.627451%,31.372549%);fill-opacity:1;" />
<path d="M 392 376 L 360 376 C 355.582031 376 352 372.417969 352 368 C 352 363.582031 355.582031 360 360 360 L 392 360 C 396.417969 360 400 363.582031 400 368 C 400 372.417969 396.417969 376 392 376 Z M 392 376 " style=" stroke:none;fill-rule:nonzero;fill:rgb(90.196078%,90.588235%,90.980392%);fill-opacity:1;" />
</g>
</svg>