<svg xmlns="http://www.w3.org/2000/svg" height="674pt" version="1.1" viewBox="0 -70 674 674" width="674pt">
<g id="surface1">
<path d="M 151.101562 325.300781 L 209.199219 325.300781 L 209.199219 278.800781 C 209.199219 266 198.800781 255.601562 186 255.601562 L 46.5 255.601562 L 46.5 23.199219 C 46.5 10.402344 36.101562 0 23.300781 0 C 10.398438 -0.0976562 0 10.300781 0 23.199219 L 0 325.300781 Z M 151.101562 325.300781 " style=" stroke:none;fill-rule:nonzero;fill:rgb(58.431373%,47.058824%,33.72549%);fill-opacity:1;" />
<path d="M 34.898438 534.5 L 58.101562 325.300781 L 23.199219 325.300781 L 0 534.5 Z M 34.898438 534.5 " style=" stroke:none;fill-rule:nonzero;fill:rgb(75.294118%,67.058824%,56.862745%);fill-opacity:1;" />
<path d="M 174.300781 534.5 L 209.199219 534.5 L 185.898438 325.300781 L 151.101562 325.300781 Z M 174.300781 534.5 " style=" stroke:none;fill-rule:nonzero;fill:rgb(75.294118%,67.058824%,56.862745%);fill-opacity:1;" />
<path d="M 627.5 255.601562 L 488.101562 255.601562 C 475.300781 255.601562 464.898438 266 464.898438 278.800781 L 464.898438 325.300781 L 674 325.300781 L 674 23.199219 C 674 10.402344 663.601562 0 650.800781 0 C 638 0 627.601562 10.402344 627.601562 23.199219 L 627.601562 255.601562 Z M 627.5 255.601562 " style=" stroke:none;fill-rule:nonzero;fill:rgb(58.431373%,47.058824%,33.72549%);fill-opacity:1;" />
<path d="M 639.101562 534.5 L 674 534.5 L 650.800781 325.300781 L 615.898438 325.300781 Z M 639.101562 534.5 " style=" stroke:none;fill-rule:nonzero;fill:rgb(75.294118%,67.058824%,56.862745%);fill-opacity:1;" />
<path d="M 464.800781 534.5 L 499.699219 534.5 L 522.898438 325.300781 L 488.101562 325.300781 Z M 464.800781 534.5 " style=" stroke:none;fill-rule:nonzero;fill:rgb(75.294118%,67.058824%,56.862745%);fill-opacity:1;" />
<path d="M 499.699219 139.402344 L 174.300781 139.402344 L 174.300781 185.902344 L 499.699219 185.902344 Z M 499.699219 139.402344 " style=" stroke:none;fill-rule:nonzero;fill:rgb(50.196078%,40.392157%,28.627451%);fill-opacity:1;" />
<path d="M 302.101562 185.902344 L 371.800781 185.902344 L 371.800781 534.5 L 302.101562 534.5 Z M 302.101562 185.902344 " style=" stroke:none;fill-rule:nonzero;fill:rgb(54.509804%,36.862745%,23.529412%);fill-opacity:1;" />
</g>
</svg>