<svg xmlns="http://www.w3.org/2000/svg" height="684pt" version="1.1" viewBox="0 -35 684.8 684" width="684pt">
<g id="surface1">
<path d="M 342.398438 71 C 341.101562 71 339.898438 70.800781 338.699219 70.398438 L 303.300781 58.601562 C 297.101562 56.5 293.800781 49.800781 295.800781 43.699219 C 297.898438 37.5 304.601562 34.199219 310.699219 36.199219 L 340.699219 46.199219 L 371.101562 26 C 376.5 22.398438 383.898438 23.898438 387.5 29.300781 C 391.101562 34.699219 389.601562 42.101562 384.199219 45.699219 L 349 69.101562 C 347 70.300781 344.699219 71 342.398438 71 Z M 342.398438 71 " style=" stroke:none;fill-rule:nonzero;fill:rgb(36.862745%,67.45098%,14.117647%);fill-opacity:1;" />
<path d="M 247.898438 307.398438 L 247.898438 236.601562 L 0 236.601562 L 0 307.398438 Z M 247.898438 307.398438 " style=" stroke:none;fill-rule:nonzero;fill:rgb(45.882353%,29.803922%,16.078431%);fill-opacity:1;" />
<path d="M 436.898438 307.398438 L 684.800781 307.398438 L 684.800781 236.601562 L 436.898438 236.601562 Z M 436.898438 307.398438 " style=" stroke:none;fill-rule:nonzero;fill:rgb(45.882353%,29.803922%,16.078431%);fill-opacity:1;" />
<path d="M 94.398438 307.398438 L 59 307.398438 L 11.800781 614.398438 L 47.199219 614.398438 L 54.5 567.199219 L 60 531.699219 Z M 94.398438 307.398438 " style=" stroke:none;fill-rule:nonzero;fill:rgb(66.27451%,48.627451%,31.372549%);fill-opacity:1;" />
<path d="M 624.800781 531.699219 L 630.300781 567.199219 L 637.601562 614.398438 L 673 614.398438 L 625.800781 307.398438 L 590.398438 307.398438 Z M 624.800781 531.699219 " style=" stroke:none;fill-rule:nonzero;fill:rgb(66.27451%,48.627451%,31.372549%);fill-opacity:1;" />
<path d="M 60 531.699219 L 54.5 567.199219 L 630.300781 567.199219 L 624.800781 531.699219 Z M 60 531.699219 " style=" stroke:none;fill-rule:nonzero;fill:rgb(66.27451%,48.627451%,31.372549%);fill-opacity:1;" />
<path d="M 247.898438 413.699219 L 436.800781 413.699219 L 436.800781 449.101562 L 247.898438 449.101562 Z M 247.898438 413.699219 " style=" stroke:none;fill-rule:nonzero;fill:rgb(86.666667%,69.803922%,0%);fill-opacity:1;" />
<path d="M 247.898438 378.199219 L 436.800781 378.199219 L 436.800781 413.601562 L 247.898438 413.601562 Z M 247.898438 378.199219 " style=" stroke:none;fill-rule:nonzero;fill:rgb(100%,80.392157%,0%);fill-opacity:1;" />
<path d="M 247.898438 378.199219 L 436.898438 378.199219 L 436.898438 236.601562 L 247.898438 236.601562 Z M 247.898438 378.199219 " style=" stroke:none;fill-rule:nonzero;fill:rgb(100%,89.411765%,46.666667%);fill-opacity:1;" />
<path d="M 342.398438 130.300781 C 335.898438 130.300781 330.601562 125 330.601562 118.5 L 330.601562 12.199219 C 330.601562 5.699219 335.898438 0.398438 342.398438 0.398438 C 348.898438 0.398438 354.199219 5.699219 354.199219 12.199219 L 354.199219 118.5 C 354.199219 125 348.898438 130.300781 342.398438 130.300781 Z M 342.398438 130.300781 " style=" stroke:none;fill-rule:nonzero;fill:rgb(36.862745%,67.45098%,14.117647%);fill-opacity:1;" />
<path d="M 307 212.898438 C 307 225.898438 317.601562 236.5 330.601562 236.5 L 354.199219 236.5 C 367.199219 236.5 377.800781 225.898438 377.800781 212.898438 L 366 118.398438 L 318.800781 118.398438 Z M 307 212.898438 " style=" stroke:none;fill-rule:nonzero;fill:rgb(74.117647%,85.882353%,100%);fill-opacity:1;" />
</g>
</svg>