<svg xmlns="http://www.w3.org/2000/svg" height="464pt" version="1.1" viewBox="0 -96 464 464" width="464pt">
<g id="surface1">
<path d="M 96 272 C 95.515625 272 95.035156 271.957031 94.558594 271.871094 C 90.226562 271.0625 87.367188 266.902344 88.160156 262.566406 L 104.160156 174.566406 C 104.949219 170.21875 109.117188 167.335938 113.464844 168.128906 C 117.8125 168.917969 120.695312 173.085938 119.902344 177.433594 L 103.902344 265.433594 C 103.210938 269.246094 99.878906 272.015625 96 272 Z M 96 272 " style=" stroke:none;fill-rule:nonzero;fill:rgb(76.862745%,60.392157%,42.352941%);fill-opacity:1;" />
<path d="M 192 272 C 188.136719 271.996094 184.828125 269.234375 184.136719 265.433594 L 168.136719 177.433594 C 167.34375 173.085938 170.226562 168.917969 174.574219 168.128906 C 178.921875 167.335938 183.089844 170.21875 183.878906 174.566406 L 199.878906 262.566406 C 200.304688 264.902344 199.671875 267.308594 198.148438 269.128906 C 196.625 270.949219 194.375 272.003906 192 272 Z M 192 272 " style=" stroke:none;fill-rule:nonzero;fill:rgb(76.862745%,60.392157%,42.352941%);fill-opacity:1;" />
<path d="M 272 272 C 271.515625 272 271.035156 271.957031 270.558594 271.871094 C 266.226562 271.0625 263.367188 266.902344 264.160156 262.566406 L 280.160156 174.566406 C 280.949219 170.21875 285.117188 167.335938 289.464844 168.128906 C 293.8125 168.917969 296.695312 173.085938 295.902344 177.433594 L 279.902344 265.433594 C 279.210938 269.246094 275.878906 272.015625 272 272 Z M 272 272 " style=" stroke:none;fill-rule:nonzero;fill:rgb(76.862745%,60.392157%,42.352941%);fill-opacity:1;" />
<path d="M 368 272 C 364.136719 271.996094 360.828125 269.234375 360.136719 265.433594 L 344.136719 177.433594 C 343.34375 173.085938 346.226562 168.917969 350.574219 168.128906 C 354.921875 167.335938 359.089844 170.21875 359.878906 174.566406 L 375.878906 262.566406 C 376.304688 264.902344 375.671875 267.308594 374.148438 269.128906 C 372.625 270.949219 370.375 272.003906 368 272 Z M 368 272 " style=" stroke:none;fill-rule:nonzero;fill:rgb(76.862745%,60.392157%,42.352941%);fill-opacity:1;" />
<path d="M 0 56 L 0 88 L 105.335938 88 L 100 56 Z M 0 56 " style=" stroke:none;fill-rule:nonzero;fill:rgb(54.509804%,36.862745%,23.529412%);fill-opacity:1;" />
<path d="M 188 56 L 182.664062 88 L 281.335938 88 L 276 56 Z M 188 56 " style=" stroke:none;fill-rule:nonzero;fill:rgb(54.509804%,36.862745%,23.529412%);fill-opacity:1;" />
<path d="M 358.664062 88 L 464 88 L 464 56 L 364 56 Z M 358.664062 88 " style=" stroke:none;fill-rule:nonzero;fill:rgb(54.509804%,36.862745%,23.529412%);fill-opacity:1;" />
<path d="M 144 56 L 144 88 L 182.664062 88 L 188 56 Z M 144 56 " style=" stroke:none;fill-rule:nonzero;fill:rgb(54.509804%,36.862745%,23.529412%);fill-opacity:1;" />
<path d="M 144 56 L 100 56 L 105.335938 88 L 144 88 Z M 144 56 " style=" stroke:none;fill-rule:nonzero;fill:rgb(54.509804%,36.862745%,23.529412%);fill-opacity:1;" />
<path d="M 320 56 L 276 56 L 281.335938 88 L 320 88 Z M 320 56 " style=" stroke:none;fill-rule:nonzero;fill:rgb(54.509804%,36.862745%,23.529412%);fill-opacity:1;" />
<path d="M 320 56 L 320 88 L 358.664062 88 L 364 56 Z M 320 56 " style=" stroke:none;fill-rule:nonzero;fill:rgb(54.509804%,36.862745%,23.529412%);fill-opacity:1;" />
<path d="M 424 88 L 448 88 L 448 264 L 424 264 Z M 424 88 " style=" stroke:none;fill-rule:nonzero;fill:rgb(66.27451%,48.627451%,31.372549%);fill-opacity:1;" />
<path d="M 16 88 L 40 88 L 40 264 L 16 264 Z M 16 88 " style=" stroke:none;fill-rule:nonzero;fill:rgb(66.27451%,48.627451%,31.372549%);fill-opacity:1;" />
<path d="M 176 144 L 112 144 C 108.09375 144 104.757812 141.175781 104.113281 137.320312 L 88.113281 25.320312 C 87.722656 23 88.375 20.628906 89.894531 18.832031 C 91.414062 17.035156 93.648438 16 96 16 L 192 16 C 194.351562 16 196.585938 17.035156 198.105469 18.832031 C 199.625 20.628906 200.277344 23 199.886719 25.320312 L 183.886719 137.320312 C 183.242188 141.175781 179.90625 144 176 144 Z M 118.777344 128 L 169.222656 128 L 182.550781 32 L 105.449219 32 Z M 118.777344 128 " style=" stroke:none;fill-rule:nonzero;fill:rgb(76.862745%,60.392157%,42.352941%);fill-opacity:1;" />
<path d="M 144 144 C 139.582031 144 136 140.417969 136 136 L 136 24 C 136 19.582031 139.582031 16 144 16 C 148.417969 16 152 19.582031 152 24 L 152 136 C 152 140.417969 148.417969 144 144 144 Z M 144 144 " style=" stroke:none;fill-rule:nonzero;fill:rgb(76.862745%,60.392157%,42.352941%);fill-opacity:1;" />
<path d="M 352 144 L 288 144 C 284.09375 144 280.757812 141.175781 280.113281 137.320312 L 264.113281 25.320312 C 263.722656 23 264.375 20.628906 265.894531 18.832031 C 267.414062 17.035156 269.648438 16 272 16 L 368 16 C 370.351562 16 372.585938 17.035156 374.105469 18.832031 C 375.625 20.628906 376.277344 23 375.886719 25.320312 L 359.886719 137.320312 C 359.242188 141.175781 355.90625 144 352 144 Z M 294.777344 128 L 345.222656 128 L 358.550781 32 L 281.449219 32 Z M 294.777344 128 " style=" stroke:none;fill-rule:nonzero;fill:rgb(76.862745%,60.392157%,42.352941%);fill-opacity:1;" />
<path d="M 320 144 C 315.582031 144 312 140.417969 312 136 L 312 24 C 312 19.582031 315.582031 16 320 16 C 324.417969 16 328 19.582031 328 24 L 328 136 C 328 140.417969 324.417969 144 320 144 Z M 320 144 " style=" stroke:none;fill-rule:nonzero;fill:rgb(76.862745%,60.392157%,42.352941%);fill-opacity:1;" />
<path d="M 192 32 C 200.835938 32 208 24.835938 208 16 C 208 7.164062 200.835938 0 192 0 L 96 0 C 87.164062 0 80 7.164062 80 16 C 80 24.835938 87.164062 32 96 32 Z M 192 32 " style=" stroke:none;fill-rule:nonzero;fill:rgb(100%,88.627451%,43.137255%);fill-opacity:1;" />
<path d="M 368 32 C 376.835938 32 384 24.835938 384 16 C 384 7.164062 376.835938 0 368 0 L 272 0 C 263.164062 0 256 7.164062 256 16 C 256 24.835938 263.164062 32 272 32 Z M 368 32 " style=" stroke:none;fill-rule:nonzero;fill:rgb(100%,88.627451%,43.137255%);fill-opacity:1;" />
<path d="M 288 128 L 272 128 C 263.164062 128 256 135.164062 256 144 L 256 160 C 256 168.835938 263.164062 176 272 176 L 368 176 C 376.835938 176 384 168.835938 384 160 L 384 144 C 384 135.164062 376.835938 128 368 128 Z M 288 128 " style=" stroke:none;fill-rule:nonzero;fill:rgb(100%,88.627451%,43.137255%);fill-opacity:1;" />
<path d="M 112 128 L 96 128 C 87.164062 128 80 135.164062 80 144 L 80 160 C 80 168.835938 87.164062 176 96 176 L 192 176 C 200.835938 176 208 168.835938 208 160 L 208 144 C 208 135.164062 200.835938 128 192 128 Z M 112 128 " style=" stroke:none;fill-rule:nonzero;fill:rgb(100%,88.627451%,43.137255%);fill-opacity:1;" />
</g>
</svg>