<svg xmlns="http://www.w3.org/2000/svg" height="512pt" version="1.1" viewBox="-150 0 512 512.00089" width="512pt">
<g id="surface1">
<path d="M 44.527344 247.171875 C 39.683594 247.171875 35.742188 243.269531 35.699219 238.425781 L 35.3125 176.628906 C 35.265625 171.753906 39.183594 167.769531 44.058594 167.722656 C 48.933594 167.679688 52.921875 171.597656 52.96875 176.472656 L 53.355469 238.265625 C 53.398438 243.140625 49.484375 247.128906 44.609375 247.171875 C 44.609375 247.171875 44.605469 247.171875 44.605469 247.171875 Z M 44.527344 247.171875 " style=" stroke:none;fill-rule:nonzero;fill:rgb(67.45098%,67.058824%,69.411765%);fill-opacity:1;" />
<path d="M 158.898438 17.65625 C 158.898438 7.90625 135.183594 0 105.933594 0 C 76.679688 0 52.96875 7.90625 52.96875 17.65625 C 52.96875 27.40625 76.679688 35.308594 105.933594 35.308594 C 135.183594 35.308594 158.898438 27.40625 158.898438 17.65625 Z M 158.898438 17.65625 " style=" stroke:none;fill-rule:nonzero;fill:rgb(95.686275%,56.470588%,75.294118%);fill-opacity:1;" />
<path d="M 0 158.898438 L 3.269531 150.246094 C 1.25 152.6875 0.101562 155.730469 0 158.898438 Z M 0 158.898438 " style=" stroke:none;fill-rule:nonzero;fill:rgb(76.078431%,70.980392%,60.784314%);fill-opacity:1;" />
<path d="M 208.597656 150.246094 L 211.863281 158.894531 C 211.761719 155.730469 210.613281 152.6875 208.597656 150.246094 Z M 208.597656 150.246094 " style=" stroke:none;fill-rule:nonzero;fill:rgb(76.078431%,70.980392%,60.784314%);fill-opacity:1;" />
<path d="M 123.585938 193.675781 C 173.726562 190.941406 211.863281 176.375 211.863281 158.898438 L 208.597656 150.246094 L 208.507812 150.070312 L 158.898438 17.65625 C 158.898438 27.367188 135.152344 35.3125 105.933594 35.3125 C 76.710938 35.3125 52.964844 27.367188 52.964844 17.65625 L 3.355469 150.070312 L 3.265625 150.246094 L 0 158.898438 C 0 176.375 38.136719 190.941406 88.277344 193.675781 C 94.015625 194.03125 99.929688 194.207031 105.929688 194.207031 C 111.933594 194.207031 117.851562 194.03125 123.585938 193.675781 Z M 123.585938 193.675781 " style=" stroke:none;fill-rule:nonzero;fill:rgb(96.862745%,68.627451%,81.960784%);fill-opacity:1;" />
<path d="M 105.933594 194.207031 C 99.929688 194.207031 94.015625 194.03125 88.277344 193.675781 L 88.277344 476.691406 L 123.589844 476.691406 L 123.589844 193.675781 C 117.851562 194.03125 111.933594 194.207031 105.933594 194.207031 Z M 105.933594 194.207031 " style=" stroke:none;fill-rule:nonzero;fill:rgb(67.45098%,67.058824%,69.411765%);fill-opacity:1;" />
<path d="M 61.792969 256 C 61.792969 265.75 53.890625 273.65625 44.140625 273.65625 C 34.386719 273.65625 26.484375 265.75 26.484375 256 C 26.484375 246.25 34.386719 238.34375 44.140625 238.34375 C 53.890625 238.34375 61.792969 246.25 61.792969 256 Z M 61.792969 256 " style=" stroke:none;fill-rule:nonzero;fill:rgb(94.509804%,94.901961%,94.901961%);fill-opacity:1;" />
<path d="M 88.277344 476.691406 L 88.277344 441.378906 L 35.3125 441.378906 C 15.808594 441.378906 0 457.1875 0 476.691406 C 0 496.191406 15.808594 512 35.3125 512 L 176.554688 512 C 196.054688 512 211.863281 496.191406 211.863281 476.691406 C 211.863281 457.1875 196.054688 441.378906 176.554688 441.378906 L 123.585938 441.378906 L 123.585938 476.691406 Z M 88.277344 476.691406 " style=" stroke:none;fill-rule:nonzero;fill:rgb(74.117647%,85.882353%,100%);fill-opacity:1;" />
<path d="M 44.140625 282.484375 C 29.511719 282.484375 17.65625 270.625 17.65625 256 C 17.65625 241.375 29.511719 229.519531 44.140625 229.519531 C 58.765625 229.519531 70.621094 241.375 70.621094 256 C 70.621094 270.625 58.765625 282.484375 44.140625 282.484375 Z M 44.140625 247.171875 C 39.265625 247.171875 35.3125 251.125 35.3125 256 C 35.3125 260.875 39.261719 264.828125 44.140625 264.828125 C 49.015625 264.828125 52.96875 260.875 52.96875 256 C 52.96875 251.125 49.015625 247.171875 44.140625 247.171875 Z M 44.140625 247.171875 " style=" stroke:none;fill-rule:nonzero;fill:rgb(67.45098%,67.058824%,69.411765%);fill-opacity:1;" />
</g>
</svg>