<svg xmlns="http://www.w3.org/2000/svg" height="512pt" version="1.1" viewBox="-79 0 512 512.00001" width="512pt">
<g id="surface1">
<path d="M 0 194.207031 L 0 423.722656 L 176.550781 423.722656 L 176.550781 194.207031 Z M 132.414062 291.308594 C 142.164062 291.308594 150.066406 299.214844 150.066406 308.964844 C 150.066406 318.714844 142.164062 326.621094 132.414062 326.621094 C 122.664062 326.621094 114.757812 318.714844 114.757812 308.964844 C 114.757812 299.214844 122.664062 291.308594 132.414062 291.308594 Z M 132.414062 291.308594 " style=" stroke:none;fill-rule:nonzero;fill:rgb(70.196078%,60.392157%,48.627451%);fill-opacity:1;" />
<path d="M 335.449219 423.722656 L 353.101562 423.722656 L 353.101562 194.207031 L 176.550781 194.207031 L 176.550781 423.722656 Z M 220.691406 291.308594 C 230.441406 291.308594 238.34375 299.214844 238.34375 308.964844 C 238.34375 318.714844 230.441406 326.621094 220.691406 326.621094 C 210.941406 326.621094 203.035156 318.714844 203.035156 308.964844 C 203.035156 299.214844 210.9375 291.308594 220.691406 291.308594 Z M 220.691406 291.308594 " style=" stroke:none;fill-rule:nonzero;fill:rgb(75.294118%,67.058824%,56.862745%);fill-opacity:1;" />
<path d="M 247.171875 88.277344 C 247.171875 39.523438 215.554688 0 176.550781 0 C 137.550781 0 105.929688 39.523438 105.929688 88.277344 C 105.929688 137.027344 137.550781 176.550781 176.550781 176.550781 C 215.554688 176.550781 247.171875 137.027344 247.171875 88.277344 Z M 247.171875 88.277344 " style=" stroke:none;fill-rule:nonzero;fill:rgb(88.235294%,89.019608%,98.039216%);fill-opacity:1;" />
<path d="M 282.480469 141.242188 L 317.792969 141.242188 L 317.792969 194.207031 L 282.480469 194.207031 Z M 282.480469 141.242188 " style=" stroke:none;fill-rule:nonzero;fill:rgb(74.117647%,85.882353%,100%);fill-opacity:1;" />
<path d="M 17.65625 158.898438 L 88.277344 158.898438 L 88.277344 194.207031 L 17.65625 194.207031 Z M 17.65625 158.898438 " style=" stroke:none;fill-rule:nonzero;fill:rgb(60.784314%,78.823529%,100%);fill-opacity:1;" />
<path d="M 17.65625 423.722656 L 17.65625 512 L 44.136719 512 L 50.503906 473.785156 C 51.921875 465.273438 59.289062 459.035156 67.917969 459.035156 L 285.183594 459.035156 C 293.816406 459.035156 301.179688 465.273438 302.601562 473.785156 L 308.964844 512 L 335.449219 512 L 335.449219 423.722656 Z M 17.65625 423.722656 " style=" stroke:none;fill-rule:nonzero;fill:rgb(50.196078%,40.392157%,28.627451%);fill-opacity:1;" />
<path d="M 238.34375 308.964844 C 238.34375 318.714844 230.441406 326.621094 220.691406 326.621094 C 210.9375 326.621094 203.035156 318.714844 203.035156 308.964844 C 203.035156 299.214844 210.9375 291.3125 220.691406 291.3125 C 230.441406 291.3125 238.34375 299.214844 238.34375 308.964844 Z M 238.34375 308.964844 " style=" stroke:none;fill-rule:nonzero;fill:rgb(70.196078%,60.392157%,48.627451%);fill-opacity:1;" />
<path d="M 150.066406 308.964844 C 150.066406 318.714844 142.164062 326.621094 132.414062 326.621094 C 122.664062 326.621094 114.757812 318.714844 114.757812 308.964844 C 114.757812 299.214844 122.664062 291.3125 132.414062 291.3125 C 142.164062 291.3125 150.066406 299.214844 150.066406 308.964844 Z M 150.066406 308.964844 " style=" stroke:none;fill-rule:nonzero;fill:rgb(65.490196%,53.72549%,40%);fill-opacity:1;" />
<path d="M 220.691406 335.449219 C 206.0625 335.449219 194.207031 323.589844 194.207031 308.964844 C 194.207031 294.339844 206.0625 282.480469 220.691406 282.480469 C 235.316406 282.480469 247.171875 294.339844 247.171875 308.964844 C 247.171875 323.59375 235.316406 335.449219 220.691406 335.449219 Z M 220.691406 300.136719 C 215.816406 300.136719 211.863281 304.089844 211.863281 308.964844 C 211.863281 313.839844 215.8125 317.792969 220.691406 317.792969 C 225.566406 317.792969 229.519531 313.84375 229.519531 308.964844 C 229.519531 304.089844 225.566406 300.136719 220.691406 300.136719 Z M 220.691406 300.136719 " style=" stroke:none;fill-rule:nonzero;fill:rgb(54.509804%,36.862745%,23.529412%);fill-opacity:1;" />
<path d="M 132.414062 335.449219 C 117.789062 335.449219 105.929688 323.589844 105.929688 308.964844 C 105.929688 294.339844 117.789062 282.480469 132.414062 282.480469 C 147.039062 282.480469 158.894531 294.339844 158.894531 308.964844 C 158.894531 323.59375 147.039062 335.449219 132.414062 335.449219 Z M 132.414062 300.136719 C 127.539062 300.136719 123.585938 304.089844 123.585938 308.964844 C 123.585938 313.839844 127.539062 317.792969 132.414062 317.792969 C 137.289062 317.792969 141.242188 313.84375 141.242188 308.964844 C 141.242188 304.089844 137.289062 300.136719 132.414062 300.136719 Z M 132.414062 300.136719 " style=" stroke:none;fill-rule:nonzero;fill:rgb(54.509804%,36.862745%,23.529412%);fill-opacity:1;" />
</g>
</svg>