<svg xmlns="http://www.w3.org/2000/svg" height="512pt" version="1.1" viewBox="0 0 512 512.00002" width="512pt">
<g id="surface1">
<path d="M 476.691406 0 L 35.3125 0 C 15.808594 0 0 15.808594 0 35.3125 L 0 141.242188 L 512 141.242188 L 512 35.3125 C 512 15.808594 496.191406 0 476.691406 0 Z M 256 70.621094 C 246.25 70.621094 238.34375 62.714844 238.34375 52.964844 C 238.34375 43.214844 246.25 35.3125 256 35.3125 C 265.75 35.3125 273.65625 43.214844 273.65625 52.964844 C 273.65625 62.714844 265.75 70.621094 256 70.621094 Z M 256 70.621094 " style=" stroke:none;fill-rule:nonzero;fill:rgb(80.392157%,73.72549%,65.490196%);fill-opacity:1;" />
<path d="M 0 282.484375 L 512 282.484375 L 512 141.242188 L 0 141.242188 Z M 256 176.550781 C 265.75 176.550781 273.65625 184.457031 273.65625 194.207031 C 273.65625 203.957031 265.75 211.863281 256 211.863281 C 246.25 211.863281 238.34375 203.957031 238.34375 194.207031 C 238.34375 184.457031 246.25 176.550781 256 176.550781 Z M 256 176.550781 " style=" stroke:none;fill-rule:nonzero;fill:rgb(75.294118%,67.058824%,56.862745%);fill-opacity:1;" />
<path d="M 0 423.722656 L 512 423.722656 L 512 282.484375 L 0 282.484375 Z M 256 317.792969 C 265.75 317.792969 273.65625 325.699219 273.65625 335.449219 C 273.65625 345.199219 265.75 353.101562 256 353.101562 C 246.25 353.101562 238.34375 345.199219 238.34375 335.449219 C 238.34375 325.699219 246.25 317.792969 256 317.792969 Z M 256 317.792969 " style=" stroke:none;fill-rule:nonzero;fill:rgb(70.196078%,60.392157%,48.627451%);fill-opacity:1;" />
<path d="M 26.484375 459.035156 L 485.515625 459.035156 L 485.515625 423.722656 L 26.484375 423.722656 Z M 26.484375 459.035156 " style=" stroke:none;fill-rule:nonzero;fill:rgb(66.27451%,48.627451%,31.372549%);fill-opacity:1;" />
<path d="M 26.484375 459.035156 L 61.792969 459.035156 L 61.792969 512 L 26.484375 512 Z M 26.484375 459.035156 " style=" stroke:none;fill-rule:nonzero;fill:rgb(45.882353%,29.803922%,16.078431%);fill-opacity:1;" />
<path d="M 450.207031 459.035156 L 485.519531 459.035156 L 485.519531 512 L 450.207031 512 Z M 450.207031 459.035156 " style=" stroke:none;fill-rule:nonzero;fill:rgb(45.882353%,29.803922%,16.078431%);fill-opacity:1;" />
<path d="M 273.65625 335.449219 C 273.65625 345.199219 265.75 353.101562 256 353.101562 C 246.25 353.101562 238.34375 345.199219 238.34375 335.449219 C 238.34375 325.699219 246.25 317.792969 256 317.792969 C 265.75 317.792969 273.65625 325.699219 273.65625 335.449219 Z M 273.65625 335.449219 " style=" stroke:none;fill-rule:nonzero;fill:rgb(70.196078%,60.392157%,48.627451%);fill-opacity:1;" />
<path d="M 273.65625 194.207031 C 273.65625 203.957031 265.75 211.863281 256 211.863281 C 246.25 211.863281 238.34375 203.957031 238.34375 194.207031 C 238.34375 184.457031 246.25 176.550781 256 176.550781 C 265.75 176.550781 273.65625 184.457031 273.65625 194.207031 Z M 273.65625 194.207031 " style=" stroke:none;fill-rule:nonzero;fill:rgb(75.294118%,67.058824%,56.862745%);fill-opacity:1;" />
<path d="M 273.65625 52.964844 C 273.65625 62.714844 265.75 70.621094 256 70.621094 C 246.25 70.621094 238.34375 62.714844 238.34375 52.964844 C 238.34375 43.214844 246.25 35.3125 256 35.3125 C 265.75 35.3125 273.65625 43.214844 273.65625 52.964844 Z M 273.65625 52.964844 " style=" stroke:none;fill-rule:nonzero;fill:rgb(80.392157%,73.72549%,65.490196%);fill-opacity:1;" />
<path d="M 256 361.929688 C 241.375 361.929688 229.519531 350.074219 229.519531 335.449219 C 229.519531 320.820312 241.375 308.964844 256 308.964844 C 270.625 308.964844 282.484375 320.820312 282.484375 335.449219 C 282.484375 350.074219 270.625 361.929688 256 361.929688 Z M 256 326.621094 C 251.125 326.621094 247.171875 330.574219 247.171875 335.449219 C 247.171875 340.324219 251.125 344.277344 256 344.277344 C 260.875 344.277344 264.828125 340.324219 264.828125 335.449219 C 264.828125 330.574219 260.875 326.621094 256 326.621094 Z M 256 326.621094 " style=" stroke:none;fill-rule:nonzero;fill:rgb(41.568627%,33.72549%,23.921569%);fill-opacity:1;" />
<path d="M 256 220.691406 C 241.375 220.691406 229.519531 208.832031 229.519531 194.207031 C 229.519531 179.582031 241.375 167.722656 256 167.722656 C 270.625 167.722656 282.484375 179.582031 282.484375 194.207031 C 282.484375 208.832031 270.625 220.691406 256 220.691406 Z M 256 185.378906 C 251.125 185.378906 247.171875 189.332031 247.171875 194.207031 C 247.171875 199.082031 251.125 203.035156 256 203.035156 C 260.875 203.035156 264.828125 199.082031 264.828125 194.207031 C 264.828125 189.332031 260.875 185.378906 256 185.378906 Z M 256 185.378906 " style=" stroke:none;fill-rule:nonzero;fill:rgb(50.196078%,40.392157%,28.627451%);fill-opacity:1;" />
<path d="M 256 79.449219 C 241.375 79.449219 229.519531 67.589844 229.519531 52.964844 C 229.519531 38.339844 241.375 26.484375 256 26.484375 C 270.625 26.484375 282.484375 38.339844 282.484375 52.964844 C 282.484375 67.589844 270.625 79.449219 256 79.449219 Z M 256 44.136719 C 251.125 44.136719 247.171875 48.089844 247.171875 52.964844 C 247.171875 57.839844 251.125 61.792969 256 61.792969 C 260.875 61.792969 264.828125 57.839844 264.828125 52.964844 C 264.828125 48.089844 260.875 44.136719 256 44.136719 Z M 256 44.136719 " style=" stroke:none;fill-rule:nonzero;fill:rgb(58.431373%,47.058824%,33.72549%);fill-opacity:1;" />
</g>
</svg>