<svg xmlns="http://www.w3.org/2000/svg" height="802pt" version="1.1" viewBox="-143 0 802 802" width="802pt">
<g id="surface1">
<path d="M 421.398438 747.601562 C 413.898438 747.601562 407.800781 741.5 407.800781 734 L 407.800781 706.800781 L 108.800781 706.800781 L 108.800781 734 C 108.800781 741.5 102.699219 747.601562 95.199219 747.601562 C 87.699219 747.601562 81.601562 741.5 81.601562 734 L 81.601562 693.199219 C 81.601562 685.699219 87.699219 679.601562 95.199219 679.601562 L 421.398438 679.601562 C 428.898438 679.601562 435 685.699219 435 693.199219 L 435 734 C 435 741.5 428.898438 747.601562 421.398438 747.601562 Z M 421.398438 747.601562 " style=" stroke:none;fill-rule:nonzero;fill:rgb(84.705882%,84.313725%,85.490196%);fill-opacity:1;" />
<path d="M 258.300781 747.601562 C 250.800781 747.601562 244.699219 741.5 244.699219 734 L 244.699219 638.800781 C 244.699219 631.300781 250.800781 625.199219 258.300781 625.199219 C 265.800781 625.199219 271.898438 631.300781 271.898438 638.800781 L 271.898438 734 C 271.898438 741.5 265.800781 747.601562 258.300781 747.601562 Z M 258.300781 747.601562 " style=" stroke:none;fill-rule:nonzero;fill:rgb(84.705882%,84.313725%,85.490196%);fill-opacity:1;" />
<path d="M 394.199219 353.398438 L 394.199219 27.199219 C 394.199219 12.199219 382 0 367 0 L 149.601562 0 C 134.601562 0 122.398438 12.199219 122.398438 27.199219 L 122.398438 353.398438 Z M 394.199219 353.398438 " style=" stroke:none;fill-rule:nonzero;fill:rgb(34.117647%,33.72549%,36.078431%);fill-opacity:1;" />
<path d="M 203.898438 530.101562 L 312.699219 530.101562 L 312.699219 475.800781 L 203.898438 475.800781 Z M 203.898438 530.101562 " style=" stroke:none;fill-rule:nonzero;fill:rgb(53.72549%,53.333333%,56.470588%);fill-opacity:1;" />
<path d="M 448.601562 761.199219 C 448.601562 776.222656 436.421875 788.398438 421.398438 788.398438 C 406.378906 788.398438 394.199219 776.222656 394.199219 761.199219 C 394.199219 746.179688 406.378906 734 421.398438 734 C 436.421875 734 448.601562 746.179688 448.601562 761.199219 Z M 448.601562 761.199219 " style=" stroke:none;fill-rule:nonzero;fill:rgb(94.509804%,94.901961%,94.901961%);fill-opacity:1;" />
<path d="M 285.5 761.199219 C 285.5 776.222656 273.320312 788.398438 258.300781 788.398438 C 243.277344 788.398438 231.101562 776.222656 231.101562 761.199219 C 231.101562 746.179688 243.277344 734 258.300781 734 C 273.320312 734 285.5 746.179688 285.5 761.199219 Z M 285.5 761.199219 " style=" stroke:none;fill-rule:nonzero;fill:rgb(94.509804%,94.901961%,94.901961%);fill-opacity:1;" />
<path d="M 122.398438 761.199219 C 122.398438 776.222656 110.222656 788.398438 95.199219 788.398438 C 80.179688 788.398438 68 776.222656 68 761.199219 C 68 746.179688 80.179688 734 95.199219 734 C 110.222656 734 122.398438 746.179688 122.398438 761.199219 Z M 122.398438 761.199219 " style=" stroke:none;fill-rule:nonzero;fill:rgb(94.509804%,94.901961%,94.901961%);fill-opacity:1;" />
<path d="M 203.898438 353.398438 L 312.601562 353.398438 L 312.601562 394.199219 L 203.898438 394.199219 Z M 203.898438 353.398438 " style=" stroke:none;fill-rule:nonzero;fill:rgb(53.72549%,53.333333%,56.470588%);fill-opacity:1;" />
<path d="M 421.398438 802 C 398.898438 802 380.601562 783.699219 380.601562 761.199219 C 380.601562 738.699219 398.898438 720.398438 421.398438 720.398438 C 443.898438 720.398438 462.199219 738.699219 462.199219 761.199219 C 462.199219 783.699219 443.898438 802 421.398438 802 Z M 421.398438 747.601562 C 413.898438 747.601562 407.800781 753.699219 407.800781 761.199219 C 407.800781 768.699219 413.898438 774.800781 421.398438 774.800781 C 428.898438 774.800781 435 768.699219 435 761.199219 C 435 753.699219 428.898438 747.601562 421.398438 747.601562 Z M 421.398438 747.601562 " style=" stroke:none;fill-rule:nonzero;fill:rgb(34.117647%,33.72549%,36.078431%);fill-opacity:1;" />
<path d="M 258.300781 802 C 235.800781 802 217.5 783.699219 217.5 761.199219 C 217.5 738.699219 235.800781 720.398438 258.300781 720.398438 C 280.800781 720.398438 299.101562 738.699219 299.101562 761.199219 C 299.101562 783.699219 280.800781 802 258.300781 802 Z M 258.300781 747.601562 C 250.800781 747.601562 244.699219 753.699219 244.699219 761.199219 C 244.699219 768.699219 250.800781 774.800781 258.300781 774.800781 C 265.800781 774.800781 271.898438 768.699219 271.898438 761.199219 C 271.898438 753.699219 265.800781 747.601562 258.300781 747.601562 Z M 258.300781 747.601562 " style=" stroke:none;fill-rule:nonzero;fill:rgb(34.117647%,33.72549%,36.078431%);fill-opacity:1;" />
<path d="M 95.199219 802 C 72.699219 802 54.398438 783.699219 54.398438 761.199219 C 54.398438 738.699219 72.699219 720.398438 95.199219 720.398438 C 117.699219 720.398438 136 738.699219 136 761.199219 C 136 783.699219 117.699219 802 95.199219 802 Z M 95.199219 747.601562 C 87.699219 747.601562 81.601562 753.699219 81.601562 761.199219 C 81.601562 768.699219 87.699219 774.800781 95.199219 774.800781 C 102.699219 774.800781 108.800781 768.699219 108.800781 761.199219 C 108.800781 753.699219 102.699219 747.601562 95.199219 747.601562 Z M 95.199219 747.601562 " style=" stroke:none;fill-rule:nonzero;fill:rgb(34.117647%,33.72549%,36.078431%);fill-opacity:1;" />
<path d="M 475.800781 448.601562 L 421.398438 448.601562 C 413.898438 448.601562 407.800781 442.5 407.800781 435 C 407.800781 427.5 413.898438 421.398438 421.398438 421.398438 L 462.199219 421.398438 L 462.199219 299.101562 C 462.199219 291.601562 468.300781 285.5 475.800781 285.5 C 483.300781 285.5 489.398438 291.601562 489.398438 299.101562 L 489.398438 435 C 489.398438 442.5 483.300781 448.601562 475.800781 448.601562 Z M 475.800781 448.601562 " style=" stroke:none;fill-rule:nonzero;fill:rgb(84.705882%,84.313725%,85.490196%);fill-opacity:1;" />
<path d="M 95.199219 448.601562 L 40.800781 448.601562 C 33.300781 448.601562 27.199219 442.5 27.199219 435 L 27.199219 299.101562 C 27.199219 291.601562 33.300781 285.5 40.800781 285.5 C 48.300781 285.5 54.398438 291.601562 54.398438 299.101562 L 54.398438 421.398438 L 95.199219 421.398438 C 102.699219 421.398438 108.800781 427.5 108.800781 435 C 108.800781 442.5 102.699219 448.601562 95.199219 448.601562 Z M 95.199219 448.601562 " style=" stroke:none;fill-rule:nonzero;fill:rgb(84.705882%,84.313725%,85.490196%);fill-opacity:1;" />
<path d="M 54.398438 244.699219 L 27.199219 244.699219 C 12.199219 244.699219 0 256.898438 0 271.898438 C 0 286.898438 12.199219 299.101562 27.199219 299.101562 L 54.398438 299.101562 C 69.398438 299.101562 81.601562 286.898438 81.601562 271.898438 C 81.601562 256.800781 69.398438 244.699219 54.398438 244.699219 Z M 54.398438 244.699219 " style=" stroke:none;fill-rule:nonzero;fill:rgb(34.117647%,33.72549%,36.078431%);fill-opacity:1;" />
<path d="M 489.398438 244.699219 L 462.199219 244.699219 C 447.199219 244.699219 435 256.898438 435 271.898438 C 435 286.898438 447.199219 299.101562 462.199219 299.101562 L 489.398438 299.101562 C 504.398438 299.101562 516.601562 286.898438 516.601562 271.898438 C 516.601562 256.800781 504.398438 244.699219 489.398438 244.699219 Z M 489.398438 244.699219 " style=" stroke:none;fill-rule:nonzero;fill:rgb(34.117647%,33.72549%,36.078431%);fill-opacity:1;" />
<path d="M 203.898438 475.800781 L 394.199219 475.800781 C 409.199219 475.800781 421.398438 463.601562 421.398438 448.601562 L 421.398438 421.398438 C 421.398438 406.398438 409.199219 394.199219 394.199219 394.199219 L 122.398438 394.199219 C 107.398438 394.199219 95.199219 406.398438 95.199219 421.398438 L 95.199219 448.601562 C 95.199219 463.601562 107.398438 475.800781 122.398438 475.800781 Z M 203.898438 475.800781 " style=" stroke:none;fill-rule:nonzero;fill:rgb(34.117647%,33.72549%,36.078431%);fill-opacity:1;" />
<path d="M 231.101562 638.898438 L 285.5 638.898438 L 285.5 530.101562 L 231.101562 530.101562 Z M 231.101562 638.898438 " style=" stroke:none;fill-rule:nonzero;fill:rgb(67.45098%,67.058824%,69.411765%);fill-opacity:1;" />
</g>
</svg>