<svg xmlns="http://www.w3.org/2000/svg" height="748pt" version="1.1" viewBox="-92 0 748 748.20469" width="748pt">
<g id="surface1">
<path d="M 372.378906 515.898438 L 436.878906 515.898438 C 465.378906 515.898438 488.476562 492.800781 488.476562 464.300781 L 488.476562 438.5 C 488.476562 410 465.378906 386.898438 436.878906 386.898438 L 153.078125 386.898438 L 141.078125 296.601562 L 127.277344 296.601562 C 113.078125 296.601562 101.476562 285 101.476562 270.800781 C 101.578125 256.601562 113.078125 245.101562 127.277344 245 L 134.078125 245 L 104.476562 22.398438 C 102.777344 9.601562 91.878906 0 78.976562 0 L 40.675781 0 C 26.476562 0 14.976562 11.5 14.878906 25.699219 C 14.878906 26.898438 14.976562 28 15.078125 29.199219 L 72.878906 493.300781 C 74.578125 506.199219 85.578125 515.898438 98.578125 515.898438 Z M 372.378906 515.898438 " style=" stroke:none;fill-rule:nonzero;fill:rgb(58.431373%,47.058824%,33.72549%);fill-opacity:1;" />
<path d="M 132.878906 689.800781 L 165.976562 515.800781 L 127.277344 515.800781 L 96.277344 678.398438 C 108.078125 682.601562 120.175781 686.5 132.878906 689.800781 Z M 132.878906 689.800781 " style=" stroke:none;fill-rule:nonzero;fill:rgb(76.078431%,70.980392%,60.784314%);fill-opacity:1;" />
<path d="M 422.675781 692.199219 L 422.777344 692.199219 C 435.078125 689.101562 446.878906 685.601562 458.378906 681.800781 L 411.078125 515.898438 L 372.378906 515.898438 Z M 422.675781 692.199219 " style=" stroke:none;fill-rule:nonzero;fill:rgb(76.078431%,70.980392%,60.784314%);fill-opacity:1;" />
<path d="M 422.675781 692.199219 C 327.378906 715.800781 227.777344 715 132.878906 689.898438 C 120.277344 686.5 108.078125 682.699219 96.378906 678.601562 C 72.878906 670.300781 50.277344 659.898438 28.777344 647.300781 C 21.277344 643 11.777344 644.300781 5.777344 650.398438 C -1.722656 657.898438 -1.824219 670 5.675781 677.601562 C 6.777344 678.699219 7.976562 679.699219 9.378906 680.5 C 34.578125 695.398438 61.277344 707.699219 89.078125 717.199219 C 100.777344 721.300781 113.078125 725.101562 125.578125 728.300781 C 176.675781 741.699219 229.277344 748.398438 282.175781 748.199219 C 333.175781 748.398438 383.976562 742.199219 433.476562 729.800781 C 445.777344 726.699219 457.675781 723.199219 469.175781 719.398438 C 499.078125 709.699219 527.777344 696.699219 554.878906 680.699219 C 563.976562 675.199219 566.878906 663.398438 561.378906 654.300781 C 560.578125 653 559.578125 651.699219 558.476562 650.601562 C 552.175781 644.398438 542.378906 643.199219 534.777344 647.898438 C 510.578125 661.898438 484.976562 673.300781 458.476562 682 C 446.976562 685.898438 435.175781 689.398438 422.878906 692.398438 Z M 422.675781 692.199219 " style=" stroke:none;fill-rule:nonzero;fill:rgb(41.568627%,33.72549%,23.921569%);fill-opacity:1;" />
<path d="M 109.175781 252.601562 C 104.277344 257.398438 101.578125 263.898438 101.578125 270.800781 C 101.578125 285 113.175781 296.601562 127.378906 296.601562 L 488.476562 296.601562 C 502.675781 296.5 514.175781 285 514.277344 270.800781 C 514.277344 256.601562 502.675781 245 488.476562 245 L 127.277344 245 C 120.476562 245 113.878906 247.699219 109.175781 252.601562 Z M 109.175781 252.601562 " style=" stroke:none;fill-rule:nonzero;fill:rgb(41.568627%,33.72549%,23.921569%);fill-opacity:1;" />
<path d="M 372.378906 386.898438 L 411.078125 386.898438 L 436.878906 296.601562 L 398.175781 296.601562 Z M 372.378906 386.898438 " style=" stroke:none;fill-rule:nonzero;fill:rgb(76.078431%,70.980392%,60.784314%);fill-opacity:1;" />
</g>
</svg>