<svg xmlns="http://www.w3.org/2000/svg" height="512.00001pt" version="1.1" viewBox="0 0 512.00001 512.00001" width="512.00001pt">
<g id="surface1">
<path d="M 370.757812 423.722656 L 0 423.722656 L 0 459.035156 L 512 459.035156 L 512 423.722656 Z M 370.757812 423.722656 " style=" stroke:none;fill-rule:nonzero;fill:rgb(45.882353%,29.803922%,16.078431%);fill-opacity:1;" />
<path d="M 70.621094 512 C 80.371094 512 88.277344 504.09375 88.277344 494.34375 L 88.277344 459.035156 L 52.964844 459.035156 L 52.964844 494.34375 C 52.964844 504.097656 60.871094 512 70.621094 512 Z M 70.621094 512 " style=" stroke:none;fill-rule:nonzero;fill:rgb(54.509804%,36.862745%,23.529412%);fill-opacity:1;" />
<path d="M 256 512 C 265.75 512 273.65625 504.09375 273.65625 494.34375 L 273.65625 459.035156 L 238.34375 459.035156 L 238.34375 494.34375 C 238.34375 504.097656 246.25 512 256 512 Z M 256 512 " style=" stroke:none;fill-rule:nonzero;fill:rgb(54.509804%,36.862745%,23.529412%);fill-opacity:1;" />
<path d="M 441.378906 512 C 451.128906 512 459.035156 504.09375 459.035156 494.34375 L 459.035156 459.035156 L 423.722656 459.035156 L 423.722656 494.34375 C 423.722656 504.097656 431.628906 512 441.378906 512 Z M 441.378906 512 " style=" stroke:none;fill-rule:nonzero;fill:rgb(54.509804%,36.862745%,23.529412%);fill-opacity:1;" />
<path d="M 445.519531 158.898438 L 0 158.898438 L 0 194.207031 L 512 194.207031 L 512 158.898438 Z M 445.519531 158.898438 " style=" stroke:none;fill-rule:nonzero;fill:rgb(45.882353%,29.803922%,16.078431%);fill-opacity:1;" />
<path d="M 70.621094 247.171875 C 80.371094 247.171875 88.277344 239.269531 88.277344 229.519531 L 88.277344 194.207031 L 52.964844 194.207031 L 52.964844 229.519531 C 52.964844 239.269531 60.871094 247.171875 70.621094 247.171875 Z M 70.621094 247.171875 " style=" stroke:none;fill-rule:nonzero;fill:rgb(54.509804%,36.862745%,23.529412%);fill-opacity:1;" />
<path d="M 256 247.171875 C 265.75 247.171875 273.65625 239.269531 273.65625 229.519531 L 273.65625 194.207031 L 238.34375 194.207031 L 238.34375 229.519531 C 238.34375 239.269531 246.25 247.171875 256 247.171875 Z M 256 247.171875 " style=" stroke:none;fill-rule:nonzero;fill:rgb(54.509804%,36.862745%,23.529412%);fill-opacity:1;" />
<path d="M 441.378906 247.171875 C 451.128906 247.171875 459.035156 239.269531 459.035156 229.519531 L 459.035156 194.207031 L 423.722656 194.207031 L 423.722656 229.519531 C 423.722656 239.269531 431.628906 247.171875 441.378906 247.171875 Z M 441.378906 247.171875 " style=" stroke:none;fill-rule:nonzero;fill:rgb(54.509804%,36.862745%,23.529412%);fill-opacity:1;" />
<path d="M 35.3125 388.414062 L 194.207031 388.414062 L 194.207031 423.722656 L 35.3125 423.722656 Z M 35.3125 388.414062 " style=" stroke:none;fill-rule:nonzero;fill:rgb(60.784314%,78.823529%,100%);fill-opacity:1;" />
<path d="M 35.3125 353.105469 L 194.207031 353.105469 L 194.207031 388.414062 L 35.3125 388.414062 Z M 35.3125 353.105469 " style=" stroke:none;fill-rule:nonzero;fill:rgb(60.784314%,78.823529%,100%);fill-opacity:1;" />
<path d="M 35.3125 317.792969 L 194.207031 317.792969 L 194.207031 353.105469 L 35.3125 353.105469 Z M 35.3125 317.792969 " style=" stroke:none;fill-rule:nonzero;fill:rgb(60.784314%,78.823529%,100%);fill-opacity:1;" />
<path d="M 335.449219 370.757812 L 229.519531 370.757812 C 229.519531 400.011719 253.230469 423.722656 282.484375 423.722656 C 311.734375 423.722656 335.449219 400.011719 335.449219 370.757812 Z M 335.449219 370.757812 " style=" stroke:none;fill-rule:nonzero;fill:rgb(14.117647%,53.333333%,100%);fill-opacity:1;" />
<path d="M 370.757812 317.792969 L 494.34375 317.792969 L 494.34375 423.722656 L 370.757812 423.722656 Z M 370.757812 317.792969 " style=" stroke:none;fill-rule:nonzero;fill:rgb(100%,76.862745%,46.666667%);fill-opacity:1;" />
<path d="M 185.378906 26.484375 L 44.136719 26.484375 L 44.136719 158.898438 L 185.378906 158.898438 Z M 185.378906 26.484375 " style=" stroke:none;fill-rule:nonzero;fill:rgb(100%,85.490196%,66.666667%);fill-opacity:1;" />
<path d="M 203.035156 26.484375 L 203.035156 0 L 26.484375 0 L 26.484375 26.484375 Z M 203.035156 26.484375 " style=" stroke:none;fill-rule:nonzero;fill:rgb(100%,71.372549%,33.333333%);fill-opacity:1;" />
<path d="M 247.171875 88.277344 L 353.105469 88.277344 L 353.105469 158.894531 L 247.171875 158.894531 Z M 247.171875 88.277344 " style=" stroke:none;fill-rule:nonzero;fill:rgb(100%,73.72549%,67.058824%);fill-opacity:1;" />
<path d="M 361.929688 88.277344 L 361.929688 61.792969 L 238.34375 61.792969 L 238.34375 88.277344 Z M 361.929688 88.277344 " style=" stroke:none;fill-rule:nonzero;fill:rgb(100%,58.039216%,47.058824%);fill-opacity:1;" />
<path d="M 481.15625 119.683594 L 467.863281 0 L 423.722656 0 L 410.429688 119.683594 C 408.273438 139.066406 422.242188 156.527344 441.621094 158.679688 C 442.914062 158.824219 444.21875 158.898438 445.519531 158.898438 L 446.066406 158.898438 C 465.566406 158.894531 481.375 143.082031 481.371094 123.582031 C 481.371094 122.28125 481.300781 120.980469 481.15625 119.683594 Z M 481.15625 119.683594 " style=" stroke:none;fill-rule:nonzero;fill:rgb(74.117647%,85.882353%,100%);fill-opacity:1;" />
<path d="M 141.242188 61.792969 L 88.277344 61.792969 C 83.402344 61.792969 79.449219 57.839844 79.449219 52.964844 C 79.449219 48.089844 83.398438 44.136719 88.277344 44.136719 L 141.242188 44.136719 C 146.117188 44.136719 150.070312 48.089844 150.070312 52.964844 C 150.070312 57.839844 146.117188 61.792969 141.242188 61.792969 Z M 141.242188 61.792969 " style=" stroke:none;fill-rule:nonzero;fill:rgb(100%,71.372549%,33.333333%);fill-opacity:1;" />
</g>
</svg>