<svg xmlns="http://www.w3.org/2000/svg" height="512pt" version="1.1" viewBox="0 -88 512.00001 512" width="512pt">
<g id="surface1">
<path d="M 441.378906 159.78125 L 441.378906 211.863281 L 70.621094 211.863281 L 70.621094 123.585938 C 70.621094 113.835938 62.714844 105.929688 52.964844 105.929688 L 17.65625 105.929688 C 7.90625 105.929688 0 113.835938 0 123.585938 L 0 264.828125 C 0 274.578125 7.90625 282.480469 17.65625 282.480469 L 494.34375 282.480469 C 504.097656 282.480469 512 274.578125 512 264.828125 L 512 123.585938 C 512 113.835938 504.09375 105.929688 494.34375 105.929688 L 459.035156 105.929688 C 449.285156 105.929688 441.378906 113.835938 441.378906 123.585938 Z M 441.378906 159.78125 " style=" stroke:none;fill-rule:nonzero;fill:rgb(41.568627%,33.72549%,23.921569%);fill-opacity:1;" />
<path d="M 35.3125 282.484375 L 70.621094 282.484375 L 70.621094 335.449219 L 35.3125 335.449219 Z M 35.3125 282.484375 " style=" stroke:none;fill-rule:nonzero;fill:rgb(50.196078%,40.392157%,28.627451%);fill-opacity:1;" />
<path d="M 441.378906 282.484375 L 476.691406 282.484375 L 476.691406 335.449219 L 441.378906 335.449219 Z M 441.378906 282.484375 " style=" stroke:none;fill-rule:nonzero;fill:rgb(50.196078%,40.392157%,28.627451%);fill-opacity:1;" />
<path d="M 132.414062 158.898438 C 155.1875 158.898438 176.375 153.601562 194.207031 159.78125 L 194.207031 0 L 88.277344 0 C 78.523438 0 70.621094 7.90625 70.621094 17.65625 L 70.621094 159.777344 C 88.453125 153.601562 109.640625 158.898438 132.414062 158.898438 Z M 132.414062 158.898438 " style=" stroke:none;fill-rule:nonzero;fill:rgb(58.431373%,47.058824%,33.72549%);fill-opacity:1;" />
<path d="M 132.414062 150.070312 C 111.421875 149.882812 90.542969 153.164062 70.621094 159.777344 L 70.621094 211.863281 L 194.207031 211.863281 L 194.207031 159.777344 C 174.285156 153.164062 153.40625 149.882812 132.414062 150.070312 Z M 132.414062 150.070312 " style=" stroke:none;fill-rule:nonzero;fill:rgb(37.254902%,30.196078%,21.568627%);fill-opacity:1;" />
<path d="M 256 158.898438 C 278.777344 158.898438 299.960938 153.601562 317.792969 159.78125 L 317.792969 0 L 194.207031 0 L 194.207031 159.777344 C 212.039062 153.601562 233.226562 158.898438 256 158.898438 Z M 256 158.898438 " style=" stroke:none;fill-rule:nonzero;fill:rgb(65.490196%,53.72549%,40%);fill-opacity:1;" />
<path d="M 256 150.070312 C 235.007812 149.882812 214.128906 153.164062 194.207031 159.777344 L 194.207031 211.863281 L 317.792969 211.863281 L 317.792969 159.777344 C 297.871094 153.164062 276.992188 149.882812 256 150.070312 Z M 256 150.070312 " style=" stroke:none;fill-rule:nonzero;fill:rgb(50.196078%,40.392157%,28.627451%);fill-opacity:1;" />
<path d="M 379.585938 158.898438 C 402.363281 158.898438 423.546875 153.601562 441.378906 159.78125 L 441.378906 17.65625 C 441.378906 7.90625 433.476562 0 423.726562 0 L 317.792969 0 L 317.792969 159.78125 C 335.625 153.601562 356.8125 158.898438 379.585938 158.898438 Z M 379.585938 158.898438 " style=" stroke:none;fill-rule:nonzero;fill:rgb(58.431373%,47.058824%,33.72549%);fill-opacity:1;" />
<path d="M 317.792969 159.78125 L 317.792969 211.863281 L 441.378906 211.863281 L 441.378906 159.78125 C 401.203125 146.832031 357.972656 146.832031 317.792969 159.78125 Z M 317.792969 159.78125 " style=" stroke:none;fill-rule:nonzero;fill:rgb(37.254902%,30.196078%,21.568627%);fill-opacity:1;" />
</g>
</svg>