<svg xmlns="http://www.w3.org/2000/svg" height="746pt" version="1.1" viewBox="0 -77 746.5 746" width="746pt">
<g id="surface1">
<path d="M 643.601562 0.25 L 103 0.25 C 46.101562 0.25 0 46.351562 0 103.25 L 0 283.449219 C 0 340.351562 46.101562 386.449219 103 386.449219 L 643.5 386.449219 C 700.398438 386.449219 746.5 340.351562 746.5 283.449219 L 746.5 103.25 C 746.5 46.351562 700.398438 0.25 643.601562 0.25 Z M 167.398438 309.148438 C 146.101562 309.148438 128.800781 291.851562 128.800781 270.550781 C 128.800781 249.25 146.101562 231.949219 167.398438 231.949219 C 188.699219 231.949219 206 249.25 206 270.550781 C 206 291.851562 188.699219 309.148438 167.398438 309.148438 Z M 167.398438 154.648438 C 146.101562 154.648438 128.800781 137.351562 128.800781 116.050781 C 128.800781 94.75 146.101562 77.449219 167.398438 77.449219 C 188.699219 77.449219 206 94.75 206 116.050781 C 206 137.351562 188.699219 154.648438 167.398438 154.648438 Z M 373.300781 309.148438 C 352 309.148438 334.699219 291.851562 334.699219 270.550781 C 334.699219 249.25 352 231.949219 373.300781 231.949219 C 394.601562 231.949219 411.898438 249.25 411.898438 270.550781 C 411.898438 291.851562 394.601562 309.148438 373.300781 309.148438 Z M 373.300781 154.648438 C 352 154.648438 334.699219 137.351562 334.699219 116.050781 C 334.699219 94.75 352 77.449219 373.300781 77.449219 C 394.601562 77.449219 411.898438 94.75 411.898438 116.050781 C 411.898438 137.351562 394.601562 154.648438 373.300781 154.648438 Z M 579.199219 309.148438 C 557.898438 309.148438 540.601562 291.851562 540.601562 270.550781 C 540.601562 249.25 557.898438 231.949219 579.199219 231.949219 C 600.5 231.949219 617.800781 249.25 617.800781 270.550781 C 617.800781 291.851562 600.5 309.148438 579.199219 309.148438 Z M 579.199219 154.648438 C 557.898438 154.648438 540.601562 137.351562 540.601562 116.050781 C 540.601562 94.75 557.898438 77.449219 579.199219 77.449219 C 600.5 77.449219 617.800781 94.75 617.800781 116.050781 C 617.800781 137.351562 600.5 154.648438 579.199219 154.648438 Z M 579.199219 154.648438 " style=" stroke:none;fill-rule:nonzero;fill:rgb(66.27451%,48.627451%,31.372549%);fill-opacity:1;" />
<path d="M 164.601562 569.75 C 166.199219 582.648438 177.199219 592.351562 190.101562 592.25 L 196.101562 592.25 C 209.101562 592.25 220 582.550781 221.601562 569.75 L 244.5 386.351562 L 141.5 386.351562 Z M 164.601562 569.75 " style=" stroke:none;fill-rule:nonzero;fill:rgb(45.882353%,29.803922%,16.078431%);fill-opacity:1;" />
<path d="M 524.898438 569.75 C 526.5 582.648438 537.5 592.351562 550.398438 592.25 L 556.398438 592.25 C 569.398438 592.25 580.300781 582.550781 581.898438 569.75 L 604.800781 386.351562 L 501.800781 386.351562 Z M 524.898438 569.75 " style=" stroke:none;fill-rule:nonzero;fill:rgb(45.882353%,29.803922%,16.078431%);fill-opacity:1;" />
<path d="M 411.898438 116.050781 C 411.898438 137.367188 394.617188 154.648438 373.300781 154.648438 C 351.980469 154.648438 334.699219 137.367188 334.699219 116.050781 C 334.699219 94.730469 351.980469 77.449219 373.300781 77.449219 C 394.617188 77.449219 411.898438 94.730469 411.898438 116.050781 Z M 411.898438 116.050781 " style=" stroke:none;fill-rule:nonzero;fill:rgb(54.509804%,36.862745%,23.529412%);fill-opacity:1;" />
<path d="M 411.898438 270.550781 C 411.898438 291.867188 394.617188 309.148438 373.300781 309.148438 C 351.980469 309.148438 334.699219 291.867188 334.699219 270.550781 C 334.699219 249.230469 351.980469 231.949219 373.300781 231.949219 C 394.617188 231.949219 411.898438 249.230469 411.898438 270.550781 Z M 411.898438 270.550781 " style=" stroke:none;fill-rule:nonzero;fill:rgb(54.509804%,36.862745%,23.529412%);fill-opacity:1;" />
<path d="M 617.800781 116.050781 C 617.800781 137.367188 600.519531 154.648438 579.199219 154.648438 C 557.882812 154.648438 540.601562 137.367188 540.601562 116.050781 C 540.601562 94.730469 557.882812 77.449219 579.199219 77.449219 C 600.519531 77.449219 617.800781 94.730469 617.800781 116.050781 Z M 617.800781 116.050781 " style=" stroke:none;fill-rule:nonzero;fill:rgb(54.509804%,36.862745%,23.529412%);fill-opacity:1;" />
<path d="M 617.800781 270.550781 C 617.800781 291.867188 600.519531 309.148438 579.199219 309.148438 C 557.882812 309.148438 540.601562 291.867188 540.601562 270.550781 C 540.601562 249.230469 557.882812 231.949219 579.199219 231.949219 C 600.519531 231.949219 617.800781 249.230469 617.800781 270.550781 Z M 617.800781 270.550781 " style=" stroke:none;fill-rule:nonzero;fill:rgb(54.509804%,36.862745%,23.529412%);fill-opacity:1;" />
<path d="M 206 116.050781 C 206 137.367188 188.71875 154.648438 167.398438 154.648438 C 146.082031 154.648438 128.800781 137.367188 128.800781 116.050781 C 128.800781 94.730469 146.082031 77.449219 167.398438 77.449219 C 188.71875 77.449219 206 94.730469 206 116.050781 Z M 206 116.050781 " style=" stroke:none;fill-rule:nonzero;fill:rgb(54.509804%,36.862745%,23.529412%);fill-opacity:1;" />
<path d="M 206 270.550781 C 206 291.867188 188.71875 309.148438 167.398438 309.148438 C 146.082031 309.148438 128.800781 291.867188 128.800781 270.550781 C 128.800781 249.230469 146.082031 231.949219 167.398438 231.949219 C 188.71875 231.949219 206 249.230469 206 270.550781 Z M 206 270.550781 " style=" stroke:none;fill-rule:nonzero;fill:rgb(54.509804%,36.862745%,23.529412%);fill-opacity:1;" />
</g>
</svg>