<svg xmlns="http://www.w3.org/2000/svg" height="512pt" version="1.1" viewBox="0 -62 512.00089 512" width="512pt">
<g id="surface1">
<path d="M 476.691406 0 L 35.3125 0 C 15.808594 0 0 15.808594 0 35.308594 L 0 70.621094 C 0 90.121094 15.808594 105.933594 35.3125 105.933594 L 476.691406 105.933594 C 496.191406 105.933594 512 90.121094 512 70.621094 L 512 35.308594 C 512 15.808594 496.191406 0 476.691406 0 Z M 476.691406 0 " style=" stroke:none;fill-rule:nonzero;fill:rgb(50.196078%,40.392157%,28.627451%);fill-opacity:1;" />
<path d="M 16.859375 156.964844 C 6.160156 186.550781 8.972656 219.34375 24.550781 246.679688 L 40.042969 273.875 C 58.976562 307.105469 58.820312 347.894531 39.625 380.972656 L 35.308594 388.414062 L 61.792969 388.414062 L 68.097656 381.070312 C 96.347656 348.105469 101.984375 301.375 82.378906 262.636719 C 64.308594 226.914062 67.601562 184.101562 90.925781 151.558594 L 123.585938 105.929688 L 35.3125 105.929688 Z M 16.859375 156.964844 " style=" stroke:none;fill-rule:nonzero;fill:rgb(70.196078%,60.392157%,48.627451%);fill-opacity:1;" />
<path d="M 421.074219 151.558594 C 444.390625 184.105469 447.675781 226.917969 429.59375 262.636719 C 409.988281 301.375 415.625 348.105469 443.878906 381.070312 L 450.207031 388.414062 L 476.6875 388.414062 L 472.371094 380.972656 C 453.179688 347.890625 453.023438 307.105469 471.957031 273.875 L 487.449219 246.679688 C 503.027344 219.34375 505.839844 186.550781 495.136719 156.964844 L 476.6875 105.929688 L 388.414062 105.929688 Z M 421.074219 151.558594 " style=" stroke:none;fill-rule:nonzero;fill:rgb(70.196078%,60.392157%,48.627451%);fill-opacity:1;" />
<path d="M 247.171875 317.792969 L 264.828125 317.792969 L 291.308594 105.929688 L 220.691406 105.929688 Z M 247.171875 317.792969 " style=" stroke:none;fill-rule:nonzero;fill:rgb(75.294118%,67.058824%,56.862745%);fill-opacity:1;" />
</g>
</svg>