<svg xmlns="http://www.w3.org/2000/svg" height="604pt" version="1.1" viewBox="0 -10 604.9 604" width="604pt">
<g id="surface1">
<path d="M 125.199219 229.851562 L 156.5 229.851562 L 156.5 281.949219 L 125.199219 281.949219 Z M 125.199219 229.851562 " style=" stroke:none;fill-rule:nonzero;fill:rgb(47.058824%,46.27451%,50.196078%);fill-opacity:1;" />
<path d="M 448.5 229.851562 L 479.800781 229.851562 L 479.800781 281.949219 L 448.5 281.949219 Z M 448.5 229.851562 " style=" stroke:none;fill-rule:nonzero;fill:rgb(47.058824%,46.27451%,50.196078%);fill-opacity:1;" />
<path d="M 448.5 282.050781 L 20.898438 282.050781 C 9.398438 282.050781 0 291.351562 0 302.949219 L 0 511.449219 C 0 522.949219 9.300781 532.351562 20.898438 532.351562 L 584 532.351562 C 595.5 532.351562 604.898438 523.050781 604.898438 511.449219 L 604.898438 302.851562 C 604.898438 291.351562 595.601562 281.949219 584 281.949219 L 448.5 281.949219 Z M 333.800781 490.550781 L 41.800781 490.550781 L 41.800781 427.949219 L 333.800781 427.949219 Z M 333.800781 386.351562 L 41.800781 386.351562 L 41.800781 323.75 L 333.800781 323.75 Z M 563.199219 490.550781 L 375.5 490.550781 L 375.5 323.75 L 563.199219 323.75 Z M 563.199219 490.550781 " style=" stroke:none;fill-rule:nonzero;fill:rgb(58.431373%,47.058824%,33.72549%);fill-opacity:1;" />
<path d="M 41.800781 532.351562 L 83.5 532.351562 L 83.5 584.449219 L 41.800781 584.449219 Z M 41.800781 532.351562 " style=" stroke:none;fill-rule:nonzero;fill:rgb(41.568627%,33.72549%,23.921569%);fill-opacity:1;" />
<path d="M 521.5 532.351562 L 563.199219 532.351562 L 563.199219 584.449219 L 521.5 584.449219 Z M 521.5 532.351562 " style=" stroke:none;fill-rule:nonzero;fill:rgb(41.568627%,33.72549%,23.921569%);fill-opacity:1;" />
<path d="M 375.5 490.550781 L 563.199219 490.550781 L 563.199219 323.75 L 375.5 323.75 Z M 531.898438 386.351562 Z M 531.898438 386.351562 " style=" stroke:none;fill-rule:nonzero;fill:rgb(76.078431%,70.980392%,60.784314%);fill-opacity:1;" />
<path d="M 41.800781 386.351562 L 333.800781 386.351562 L 333.800781 323.75 L 41.800781 323.75 Z M 198.199219 355.050781 Z M 198.199219 355.050781 " style=" stroke:none;fill-rule:nonzero;fill:rgb(76.078431%,70.980392%,60.784314%);fill-opacity:1;" />
<path d="M 41.800781 490.550781 L 333.800781 490.550781 L 333.800781 427.949219 L 41.800781 427.949219 Z M 198.199219 459.351562 Z M 198.199219 459.351562 " style=" stroke:none;fill-rule:nonzero;fill:rgb(76.078431%,70.980392%,60.784314%);fill-opacity:1;" />
<path d="M 448.5 250.75 L 521.5 250.75 C 533 250.75 542.398438 241.449219 542.398438 229.851562 L 542.398438 21.351562 C 542.398438 9.851562 533.101562 0.449219 521.5 0.449219 L 83.5 0.449219 C 72 0.449219 62.601562 9.75 62.601562 21.351562 L 62.601562 229.949219 C 62.601562 241.449219 71.898438 250.851562 83.5 250.851562 L 448.5 250.851562 Z M 93.898438 219.449219 L 93.898438 31.75 L 511 31.75 L 511 219.449219 Z M 93.898438 219.449219 " style=" stroke:none;fill-rule:nonzero;fill:rgb(53.72549%,53.333333%,56.470588%);fill-opacity:1;" />
<path d="M 93.898438 31.75 L 511 31.75 L 511 219.449219 L 93.898438 219.449219 Z M 93.898438 31.75 " style=" stroke:none;fill-rule:nonzero;fill:rgb(74.117647%,85.882353%,100%);fill-opacity:1;" />
<path d="M 531.898438 438.449219 C 526.101562 438.449219 521.5 433.75 521.5 428.050781 L 521.5 386.351562 C 521.5 380.550781 526.199219 375.949219 531.898438 375.949219 C 537.699219 375.949219 542.300781 380.648438 542.300781 386.351562 L 542.300781 428.050781 C 542.398438 433.75 537.699219 438.449219 531.898438 438.449219 Z M 531.898438 438.449219 " style=" stroke:none;fill-rule:nonzero;fill:rgb(45.882353%,29.803922%,16.078431%);fill-opacity:1;" />
<path d="M 198.199219 365.449219 L 177.300781 365.449219 C 171.5 365.449219 166.898438 360.75 166.898438 355.050781 C 166.898438 349.25 171.601562 344.648438 177.300781 344.648438 L 198.199219 344.648438 C 204 344.648438 208.601562 349.351562 208.601562 355.050781 C 208.601562 360.75 204 365.449219 198.199219 365.449219 Z M 198.199219 365.449219 " style=" stroke:none;fill-rule:nonzero;fill:rgb(45.882353%,29.803922%,16.078431%);fill-opacity:1;" />
<path d="M 198.199219 469.75 L 177.300781 469.75 C 171.5 469.75 166.898438 465.050781 166.898438 459.351562 C 166.898438 453.550781 171.601562 448.949219 177.300781 448.949219 L 198.199219 448.949219 C 204 448.949219 208.601562 453.648438 208.601562 459.351562 C 208.601562 465.050781 204 469.75 198.199219 469.75 Z M 198.199219 469.75 " style=" stroke:none;fill-rule:nonzero;fill:rgb(45.882353%,29.803922%,16.078431%);fill-opacity:1;" />
</g>
</svg>