<svg xmlns="http://www.w3.org/2000/svg" height="780pt" version="1.1" viewBox="-126 0 780 780" width="780pt">
<g id="surface1">
<path d="M 264.398438 304.101562 L 264.398438 647.800781 L 528.800781 647.800781 L 528.800781 304.101562 Z M 304.101562 502.398438 Z M 304.101562 502.398438 " style=" stroke:none;fill-rule:nonzero;fill:rgb(75.294118%,67.058824%,56.862745%);fill-opacity:1;" />
<path d="M 264.398438 304.101562 L 0 304.101562 L 0 647.800781 L 264.398438 647.800781 Z M 224.699219 502.398438 Z M 224.699219 502.398438 " style=" stroke:none;fill-rule:nonzero;fill:rgb(70.196078%,60.392157%,48.627451%);fill-opacity:1;" />
<path d="M 26.398438 647.800781 L 26.398438 780 L 66.101562 780 L 75.601562 722.800781 C 77.699219 710.101562 88.800781 700.699219 101.699219 700.699219 L 427.101562 700.699219 C 440 700.699219 451.101562 710 453.199219 722.800781 L 462.699219 780 L 502.398438 780 L 502.398438 647.800781 Z M 26.398438 647.800781 " style=" stroke:none;fill-rule:nonzero;fill:rgb(50.196078%,40.392157%,28.627451%);fill-opacity:1;" />
<path d="M 198.300781 132.199219 C 183.699219 132.199219 171.898438 144 171.898438 158.601562 L 171.898438 171.800781 L 224.800781 171.800781 L 224.800781 158.601562 C 224.699219 144 212.898438 132.199219 198.300781 132.199219 Z M 198.300781 132.199219 " style=" stroke:none;fill-rule:nonzero;fill:rgb(34.117647%,64.313725%,100%);fill-opacity:1;" />
<path d="M 330.5 132.199219 C 315.898438 132.199219 304.101562 144 304.101562 158.601562 L 304.101562 171.800781 L 357 171.800781 L 357 158.601562 C 356.898438 144 345.101562 132.199219 330.5 132.199219 Z M 330.5 132.199219 " style=" stroke:none;fill-rule:nonzero;fill:rgb(34.117647%,64.313725%,100%);fill-opacity:1;" />
<path d="M 264.398438 185.101562 C 257.101562 185.101562 251.199219 179.199219 251.199219 171.898438 L 251.199219 66.101562 C 251.199219 29.601562 280.800781 0 317.300781 0 C 353.800781 0 383.398438 29.601562 383.398438 66.101562 C 383.398438 73.398438 377.5 79.300781 370.199219 79.300781 C 362.898438 79.300781 357 73.398438 357 66.101562 C 357 44.199219 339.199219 26.398438 317.300781 26.398438 C 295.398438 26.398438 277.601562 44.199219 277.601562 66.101562 L 277.601562 171.898438 C 277.601562 179.199219 271.699219 185.101562 264.398438 185.101562 Z M 264.398438 185.101562 " style=" stroke:none;fill-rule:nonzero;fill:rgb(81.960784%,82.745098%,83.137255%);fill-opacity:1;" />
<path d="M 304.101562 515.601562 C 296.800781 515.601562 290.898438 509.699219 290.898438 502.398438 L 290.898438 449.5 C 290.898438 442.199219 296.800781 436.300781 304.101562 436.300781 C 311.398438 436.300781 317.300781 442.199219 317.300781 449.5 L 317.300781 502.398438 C 317.300781 509.699219 311.398438 515.601562 304.101562 515.601562 Z M 304.101562 515.601562 " style=" stroke:none;fill-rule:nonzero;fill:rgb(37.647059%,22.352941%,7.45098%);fill-opacity:1;" />
<path d="M 224.699219 515.601562 C 217.398438 515.601562 211.5 509.699219 211.5 502.398438 L 211.5 449.5 C 211.5 442.199219 217.398438 436.300781 224.699219 436.300781 C 232 436.300781 237.898438 442.199219 237.898438 449.5 L 237.898438 502.398438 C 238 509.699219 232 515.601562 224.699219 515.601562 Z M 224.699219 515.601562 " style=" stroke:none;fill-rule:nonzero;fill:rgb(37.647059%,22.352941%,7.45098%);fill-opacity:1;" />
<path d="M 391.800781 304.101562 C 400.601562 298.300781 408.800781 291.601562 416.300781 284.101562 C 446.101562 254.398438 462.800781 214 462.699219 171.898438 L 66.101562 171.898438 C 66 225.101562 92.699219 274.800781 137.101562 304.101562 Z M 391.800781 304.101562 " style=" stroke:none;fill-rule:nonzero;fill:rgb(60.784314%,78.823529%,100%);fill-opacity:1;" />
</g>
</svg>