<svg height="512pt" viewBox="0 0 512 512" width="512pt" xmlns="http://www.w3.org/2000/svg"><path d="m512 256c0 141.386719-114.613281 256-256 256s-256-114.613281-256-256 114.613281-256 256-256 256 114.613281 256 256zm0 0" fill="#555a66"/><path d="m278.480469 511.007812c129.375-11.261718 231.179687-118.738281 233.460937-250.492187l-123.082031-133.628906 12.984375 62.910156-117.640625-117.636719-14.390625 179.257813-117.679688-117.679688-29.0625 13.902344-14.285156 73.742187 29.660156 92.617188 86.183594 86.183594-28.738281 28.230468zm0 0" fill="#333940"/><path d="m296.773438 307.773438v-206.183594c0-22.519532-18.253907-40.773438-40.773438-40.773438s-40.773438 18.253906-40.773438 40.773438v206.183594c-23.273437 13.902343-38.863281 39.328124-38.863281 68.40625 0 43.980468 35.65625 79.636718 79.636719 79.636718s79.636719-35.65625 79.636719-79.636718c0-29.078126-15.589844-54.503907-38.863281-68.40625zm0 0" fill="#fff"/><path d="m296.773438 307.773438v-206.183594c0-22.519532-18.253907-40.773438-40.773438-40.773438-.0625 0-.128906.003906-.191406.003906v394.992188c.066406 0 .128906.003906.191406.003906 43.980469 0 79.636719-35.65625 79.636719-79.636718 0-29.078126-15.589844-54.503907-38.863281-68.40625zm0 0" fill="#e9edf5"/><path d="m268.742188 328.804688v-145.664063c0-7.039063-5.707032-12.742187-12.742188-12.742187s-12.742188 5.703124-12.742188 12.742187v145.664063c-21.371093 5.734374-36.988281 25.535156-36.292968 48.871093.78125 26.265625 22.632812 47.496094 48.90625 47.558594 27.152344.070313 49.183594-21.917969 49.183594-49.054687 0-22.6875-15.398438-41.765626-36.3125-47.375zm0 0" fill="#fe8e00"/><path d="m268.742188 328.804688v-145.664063c0-7.039063-5.707032-12.742187-12.742188-12.742187-.0625 0-.125.007812-.191406.007812v254.828125h.066406c27.148438.070313 49.183594-21.917969 49.183594-49.054687-.003906-22.6875-15.402344-41.765626-36.316406-47.375zm0 0" fill="#fe6a16"/><path d="m133.617188 318.828125c-27.191407-27.191406-42.167969-63.34375-42.167969-101.800781 0-38.457032 14.976562-74.613282 42.167969-101.804688l21.210937 21.210938c-21.523437 21.527344-33.378906 50.148437-33.378906 80.589844 0 30.445312 11.855469 59.066406 33.378906 80.589843zm0 0" fill="#53edf5"/><path d="m164.972656 287.476562c-38.847656-38.847656-38.847656-102.054687 0-140.898437l21.210938 21.210937c-27.148438 27.148438-27.148438 71.324219 0 98.472657zm0 0" fill="#53edf5"/><g fill="#40deed"><path d="m378.382812 318.828125-21.210937-21.210937c21.523437-21.527344 33.378906-50.148438 33.378906-80.589844s-11.855469-59.0625-33.378906-80.589844l21.210937-21.214844c27.191407 27.195313 42.167969 63.347656 42.167969 101.804688 0 38.457031-14.976562 74.609375-42.167969 101.800781zm0 0"/><path d="m347.027344 287.476562-21.210938-21.214843c27.148438-27.148438 27.148438-71.324219 0-98.472657l21.210938-21.210937c38.847656 38.84375 38.847656 102.050781 0 140.898437zm0 0"/></g></svg>