<svg height="512pt" viewBox="0 0 512 512" width="512pt" xmlns="http://www.w3.org/2000/svg"><path d="m512 256c0 141.386719-114.613281 256-256 256s-256-114.613281-256-256 114.613281-256 256-256 256 114.613281 256 256zm0 0" fill="#4a7aff"/><path d="m512 256c0-20.933594-2.53125-41.273438-7.269531-60.746094l-118.253907-118.253906-262.902343 358 69.101562 69.101562c20.253907 5.152344 41.46875 7.898438 63.324219 7.898438 141.386719 0 256-114.613281 256-256zm0 0" fill="#0053bf"/><path d="m210.824219 77h175.652343v358h-175.652343zm0 0" fill="#e9edf5"/><path d="m210.824219 256.5h175.652343v178.5h-175.652343zm0 0" fill="#dce1eb"/><path d="m233.324219 141.570312h21v207.371094h-21zm0 0" fill="#bec3d2"/><path d="m233.324219 256.5h21v92.441406h-21zm0 0" fill="#afb4c8"/><path d="m272.523438 181h99.476562v83.332031h-99.476562zm0 0" fill="#53edf5"/><path d="m321.882812 181h50.117188v83.332031h-50.117188zm0 0" fill="#42cbea"/><path d="m123.574219 77h87.824219v358h-87.824219zm0 0" fill="#fff"/><path d="m123.574219 256.5h87.824219v178.5h-87.824219zm0 0" fill="#e9edf5"/><path d="m164.085938 141.570312h21v207.371094h-21zm0 0" fill="#bec3d2"/><path d="m164.085938 256.5h21v92.441406h-21zm0 0" fill="#afb4c8"/><path d="m280.332031 192.667969h24.667969v24.667969h-24.667969zm0 0" fill="#33ccde"/><path d="m309.929688 192.667969h24.664062v24.667969h-24.664062zm0 0" fill="#33ccde"/><path d="m321.882812 192.667969h12.710938v24.667969h-12.710938zm0 0" fill="#25bbcc"/><path d="m339.929688 192.667969h24.664062v24.667969h-24.664062zm0 0" fill="#25bbcc"/><path d="m280.332031 225.332031h24.667969v24.667969h-24.667969zm0 0" fill="#33ccde"/><path d="m309.929688 225.332031h24.664062v24.667969h-24.664062zm0 0" fill="#33ccde"/><g fill="#25bbcc"><path d="m321.882812 225.332031h12.710938v24.667969h-12.710938zm0 0"/><path d="m339.929688 225.332031h24.664062v24.667969h-24.664062zm0 0"/></g></svg>