<svg height="512pt" viewBox="0 0 512 512" width="512pt" xmlns="http://www.w3.org/2000/svg"><path d="m512 256c0 141.386719-114.613281 256-256 256s-256-114.613281-256-256 114.613281-256 256-256 256 114.613281 256 256zm0 0" fill="#555a66"/><path d="m511.957031 259.386719-156.839843-175.933594-61.867188-17.453125-71.367188-6-48.074218 40.378906 56.457031 56.457032-92.265625 255.734374 98.710938 98.710938c6.367187.472656 12.800781.71875 19.289062.71875 140.253906 0 254.140625-112.789062 255.957031-252.613281zm0 0" fill="#333940"/><path d="m138 137.6875h236v274.878906h-236zm0 0" fill="#fff"/><path d="m255.808594 137.6875h118.191406v274.878906h-118.191406zm0 0" fill="#e9edf5"/><path d="m138 137.6875h236v46.71875h-236zm0 0" fill="#cdd2e1"/><path d="m255.808594 137.6875h118.191406v46.71875h-118.191406zm0 0" fill="#bec3d2"/><path d="m350.640625 293.210938c0 52.269531-42.371094 94.640624-94.640625 94.640624s-94.640625-42.371093-94.640625-94.640624c0-52.269532 42.371094-94.640626 94.640625-94.640626s94.640625 42.371094 94.640625 94.640626zm0 0" fill="#555a66"/><path d="m256 198.570312c-.0625 0-.128906.003907-.191406.003907v189.277343h.191406c52.269531 0 94.640625-42.371093 94.640625-94.640624 0-52.269532-42.371094-94.640626-94.640625-94.640626zm0 0" fill="#333940"/><path d="m319.152344 293.210938c0 34.878906-28.273438 63.152343-63.152344 63.152343s-63.152344-28.273437-63.152344-63.152343c0-34.875 28.273438-63.152344 63.152344-63.152344s63.152344 28.277344 63.152344 63.152344zm0 0" fill="#333940"/><path d="m256 230.058594c-.0625 0-.128906.007812-.191406.007812v126.292969c.066406 0 .128906.003906.191406.003906 34.878906 0 63.152344-28.273437 63.152344-63.152343 0-34.875-28.273438-63.152344-63.152344-63.152344zm0 0" fill="#23272b"/><path d="m351.011719 159.992188c0 8.820312-7.152344 15.972656-15.976563 15.972656-8.820312 0-15.972656-7.152344-15.972656-15.972656 0-8.824219 7.152344-15.976563 15.972656-15.976563 8.824219 0 15.976563 7.152344 15.976563 15.976563zm0 0" fill="#23272b"/><path d="m333.902344 104.664062c-42.957032-42.953124-112.847656-42.953124-155.804688 0l-21.214844-21.210937c54.652344-54.652344 143.582032-54.652344 198.230469 0zm0 0" fill="#53edf5"/><path d="m303.472656 135.097656c-26.175781-26.175781-68.769531-26.175781-94.945312 0l-21.210938-21.214844c37.871094-37.871093 99.496094-37.871093 137.367188 0zm0 0" fill="#53edf5"/><g fill="#40deed"><path d="m256 42.464844v29.984375c28.210938 0 56.425781 10.738281 77.902344 32.214843l21.214844-21.210937c-27.328126-27.328125-63.222657-40.988281-99.117188-40.988281zm0 0"/><path d="m256 85.476562v29.988282c17.191406 0 34.382812 6.542968 47.472656 19.632812l21.210938-21.214844c-18.933594-18.9375-43.808594-28.40625-68.683594-28.40625zm0 0"/></g></svg>