<svg height="512pt" viewBox="0 0 512 512" width="512pt" xmlns="http://www.w3.org/2000/svg"><path d="m512 256c0 141.386719-114.613281 256-256 256s-256-114.613281-256-256 114.613281-256 256-256 256 114.613281 256 256zm0 0" fill="#ffe000"/><path d="m512 256c0-11.152344-.71875-22.136719-2.101562-32.910156l-104.117188-104.117188-328.78125 232.476563 159.839844 159.835937c6.324218.472656 12.714844.714844 19.160156.714844 141.386719 0 256-114.613281 256-256zm0 0" fill="#ffc200"/><path d="m106.214844 118.972656h299.566406v207.53125h-299.566406zm0 0" fill="#555a66"/><path d="m255.808594 118.972656h149.976562v207.53125h-149.976562zm0 0" fill="#333940"/><path d="m131.21875 140.933594h249.5625v178.660156h-249.5625zm0 0" fill="#4a7aff"/><path d="m255.808594 140.933594h124.972656v178.660156h-124.972656zm0 0" fill="#0053bf"/><path d="m77 308.792969h358v42.65625h-358zm0 0" fill="#333940"/><path d="m255.808594 308.792969h179.191406v42.65625h-179.191406zm0 0" fill="#23272b"/><path d="m312.117188 289.398438h-112.234376v-84.476563l55.925782-36.207031 56.308594 36.207031zm0 0" fill="#53edf5"/><path d="m312.117188 204.921875-56.308594-36.207031v120.683594h56.308594zm0 0" fill="#42cbea"/><path d="m319.894531 213.964844-64.085937-41.226563-63.703125 41.226563-6.976563-10.820313 70.679688-45.726562 71.0625 45.726562zm0 0" fill="#fff"/><path d="m255.808594 157.417969v15.445312-.125l64.085937 41.226563 6.980469-10.820313zm0 0" fill="#e9edf5"/></svg>