<svg height="512pt" viewBox="0 0 512 512" width="512pt" xmlns="http://www.w3.org/2000/svg"><path d="m512 256c0 141.386719-114.613281 256-256 256s-256-114.613281-256-256 114.613281-256 256-256 256 114.613281 256 256zm0 0" fill="#ff583e"/><path d="m512 256c0-29.351562-4.953125-57.539062-14.046875-83.796875l-51.703125-51.703125-380.5 256.5 127.15625 127.15625c20.183594 5.117188 41.320312 7.84375 63.09375 7.84375 141.386719 0 256-114.613281 256-256zm0 0" fill="#e81d13"/><path d="m79.25 134h353.5v229.5h-353.5zm0 0" fill="#4a7aff"/><path d="m255.808594 134h176.941406v229.5h-176.941406zm0 0" fill="#0053bf"/><path d="m368.234375 307.054688h-112.234375v-84.476563l56.117188-36.207031 56.117187 36.207031zm0 0" fill="#53edf5"/><path d="m368.234375 222.578125-56.117187-36.207031.238281 120.683594h55.878906zm0 0" fill="#42cbea"/><path d="m376.011719 231.621094-63.894531-41.222656-63.894532 41.222656-6.980468-10.816406 70.875-45.726563 70.871093 45.726563zm0 0" fill="#fff"/><path d="m382.988281 220.804688-70.871093-45.726563v15.320313l63.894531 41.222656zm0 0" fill="#e9edf5"/><g fill="#333940"><path d="m446.25 377h-380.5v-256.5h380.5zm-353.5-27h326.5v-202.5h-326.5zm0 0"/><path d="m446.25 120.5h-190.441406v27h163.441406v202.5h-163.441406v27h190.441406zm0 0"/><path d="m297.257812 370.328125 19.515626-18.65625 54.5 57-19.515626 18.660156zm0 0"/><path d="m140.75 408.679688 54.503906-57 19.515625 18.660156-54.503906 57zm0 0"/></g><path d="m123.574219 203.347656h87.25v29.640625h-87.25zm0 0" fill="#fff"/><path d="m123.574219 264.902344h87.25v29.636718h-87.25zm0 0" fill="#fff"/></svg>