<svg height="512.0212pt" viewBox="0 0 512.0212 512.0212" width="512.0212pt" xmlns="http://www.w3.org/2000/svg"><path d="m258.339844.0117188c-141.382813-1.2890628-257.042969 112.2851562-258.3281252 253.6679692-1.2890628 141.386718 112.2851562 257.042968 253.6679692 258.332031 141.386718 1.285156 257.042968-112.285157 258.332031-253.671875 1.285156-141.382813-112.285157-257.042969-253.671875-258.3281252zm0 0" fill="#ff583e"/><path d="m511.988281 256.011719c0-.574219-.015625-1.140625-.019531-1.707031l-79.804688-79.804688-201.367187-70.371094-133.632813 97.257813 90.859376 90.859375-71.527344 96.652344 122.542968 122.539062c5.601563.367188 11.253907.574219 16.949219.574219 141.386719 0 256-114.617188 256-256zm0 0" fill="#e81d13"/><path d="m395.480469 388.898438h-278.984375v-209.988282l139.492187-90 139.492188 90zm0 0" fill="#555a66"/><path d="m395.480469 178.910156-139.492188-90v299.988282h139.492188zm0 0" fill="#414952"/><path d="m414.816406 201.386719-158.828125-102.472657-158.824219 102.472657-17.347656-26.886719 176.171875-113.667969 176.175781 113.667969zm0 0" fill="#fff"/><path d="m255.988281 60.832031v38.082031l158.828125 102.472657 17.347656-26.886719zm0 0" fill="#e9edf5"/><path d="m143.042969 302.660156 95.082031-160.492187c8.042969-13.574219 27.6875-13.574219 35.730469 0l95.082031 160.492187c8.203125 13.839844-1.773438 31.351563-17.863281 31.351563h-190.164063c-16.09375 0-26.070312-17.511719-17.867187-31.351563zm0 0" fill="#ffd400"/><path d="m368.9375 302.660156-95.082031-160.492187c-4.019531-6.789063-10.945313-10.183594-17.867188-10.183594v202.027344h95.082031c16.089844 0 26.066407-17.511719 17.867188-31.351563zm0 0" fill="#fdba12"/><path d="m155.003906 308.203125 94.007813-158.675781c3.140625-5.304688 10.816406-5.304688 13.957031 0l94.003906 158.675781c3.203125 5.40625-.691406 12.242187-6.976562 12.242187h-188.011719c-6.285156 0-10.183594-6.835937-6.980469-12.242187zm0 0" fill="#fdba12"/><path d="m356.972656 308.203125-94.003906-158.675781c-1.570312-2.652344-4.277344-3.976563-6.980469-3.976563v174.894531h94.007813c6.285156 0 10.179687-6.835937 6.976562-12.242187zm0 0" fill="#ffa300"/><path d="m242.324219 183.34375h27.332031v82.054688h-27.332031zm0 0" fill="#414952"/><path d="m242.324219 279.730469h27.332031v27.335937h-27.332031zm0 0" fill="#414952"/><g fill="#333940"><path d="m255.988281 183.34375h13.667969v82.054688h-13.667969zm0 0"/><path d="m255.988281 279.730469h13.667969v27.332031h-13.667969zm0 0"/></g></svg>