<svg height="512pt" viewBox="0 0 512 512" width="512pt" xmlns="http://www.w3.org/2000/svg"><path d="m512 256c0 141.386719-114.613281 256-256 256s-256-114.613281-256-256 114.613281-256 256-256 256 114.613281 256 256zm0 0" fill="#ffe000"/><path d="m512 256c0-.570312-.019531-1.136719-.019531-1.707031l-79.804688-79.804688-201.367187-70.371093-133.632813 97.261718 90.859375 90.859375-71.527344 96.648438 122.539063 122.542969c5.605469.363281 11.253906.570312 16.953125.570312 141.386719 0 256-114.613281 256-256zm0 0" fill="#ffc200"/><path d="m395.492188 388.886719h-278.984376v-209.988281l139.300782-90 139.683594 90zm0 0" fill="#555a66"/><path d="m395.492188 178.898438-139.683594-90v299.988281h139.683594zm0 0" fill="#333940"/><path d="m414.824219 201.378906-159.015625-102.472656-158.632813 102.472656-17.351562-26.890625 175.984375-113.667969 176.367187 113.667969zm0 0" fill="#ff583e"/><path d="m255.808594 60.820312v38.207032-.121094l159.015625 102.472656 17.351562-26.890625zm0 0" fill="#e81d13"/><path d="m278.335938 153.933594-74.078126 122.933594h43.179688l-14.890625 81.199218 75.195313-117.308594h-46.15625zm0 0" fill="#fff"/><path d="m261.585938 240.757812 16.75-86.824218-22.527344 37.382812v130.460938l51.933594-81.019532zm0 0" fill="#e9edf5"/></svg>