<svg height="512pt" viewBox="0 0 512 512" width="512pt" xmlns="http://www.w3.org/2000/svg"><path d="m512 256c0 141.386719-114.613281 256-256 256s-256-114.613281-256-256 114.613281-256 256-256 256 114.613281 256 256zm0 0" fill="#ff583e"/><path d="m512 256c0-3.726562-.097656-7.433594-.253906-11.121094l-148.621094-148.621094-213.921875 319.9375 95.546875 95.542969c3.730469.164063 7.476562.261719 11.25.261719 141.386719 0 256-114.613281 256-256zm0 0" fill="#e81d13"/><path d="m348.882812 423.101562h-185.765624c-9.648438 0-17.46875-7.820312-17.46875-17.464843v-299.273438c0-9.644531 7.820312-17.464843 17.46875-17.464843h185.769531c9.644531 0 17.464843 7.820312 17.464843 17.464843v299.273438c0 9.644531-7.820312 17.464843-17.46875 17.464843zm0 0" fill="#555a66"/><path d="m348.882812 88.898438h-93.074218v334.203124h93.078125c9.644531 0 17.464843-7.820312 17.464843-17.464843v-299.273438c0-9.644531-7.820312-17.464843-17.46875-17.464843zm0 0" fill="#333940"/><path d="m168.5 113.5h175v285h-175zm0 0" fill="#94f2f7"/><path d="m255.808594 113.5h87.691406v285h-87.691406zm0 0" fill="#53edf5"/><path d="m312.117188 297.988281h-112.234376v-84.476562l55.925782-36.207031 56.308594 36.207031zm0 0" fill="#65b1fc"/><path d="m312.117188 213.511719-56.308594-36.207031v120.683593h56.308594zm0 0" fill="#4a98f7"/><path d="m319.894531 222.554688-64.085937-41.222657-63.703125 41.222657-6.976563-10.816407 70.679688-45.726562 71.0625 45.726562zm0 0" fill="#4a7aff"/><path d="m255.808594 166.011719v15.441406-.121094l64.085937 41.222657 6.976563-10.816407zm0 0" fill="#0053bf"/><path d="m295.617188 366.390625h-79.234376c-9.113281 0-16.5-7.386719-16.5-16.5s7.386719-16.5 16.5-16.5h79.234376c9.113281 0 16.5 7.386719 16.5 16.5s-7.386719 16.5-16.5 16.5zm0 0" fill="#4a7aff"/><path d="m295.617188 333.390625h-39.808594v33h39.808594c9.113281 0 16.5-7.386719 16.5-16.5s-7.386719-16.5-16.5-16.5zm0 0" fill="#0053bf"/></svg>