<svg height="512pt" viewBox="0 0 512 512" width="512pt" xmlns="http://www.w3.org/2000/svg"><path d="m512 256c0 141.386719-114.613281 256-256 256s-256-114.613281-256-256 114.613281-256 256-256 256 114.613281 256 256zm0 0" fill="#ffe000"/><path d="m512 256c0-.570312-.019531-1.136719-.019531-1.707031l-79.804688-79.804688-201.367187-70.371093-133.632813 97.261718 90.859375 90.859375-71.527344 96.648438 122.539063 122.542969c5.605469.363281 11.253906.570312 16.953125.570312 141.386719 0 256-114.613281 256-256zm0 0" fill="#ffc200"/><path d="m395.492188 388.886719h-278.984376v-209.988281l139.300782-90 139.683594 90zm0 0" fill="#4a7aff"/><path d="m395.492188 178.898438-139.683594-90v299.988281h139.683594zm0 0" fill="#0053bf"/><path d="m414.824219 201.378906-159.015625-102.472656-158.632813 102.472656-17.351562-26.890625 175.984375-113.667969 176.367187 113.667969zm0 0" fill="#555a66"/><path d="m255.808594 60.820312v38.207032-.121094l159.015625 102.472656 17.351562-26.890625zm0 0" fill="#333940"/><path d="m283.554688 169.789062c0-15.035156-12.1875-27.222656-27.21875-27.222656-15.035157 0-27.222657 12.1875-27.222657 27.222656 0 5.945313 1.910157 11.441407 5.144531 15.917969v47.691407h44.152344v-47.691407c3.234375-4.480469 5.144532-9.972656 5.144532-15.917969zm0 0" fill="#333940"/><path d="m256.332031 142.566406c-.175781 0-.347656.011719-.523437.011719v90.820313h22.601562v-47.695313c3.234375-4.476563 5.144532-9.96875 5.144532-15.914063 0-15.035156-12.1875-27.222656-27.222657-27.222656zm0 0" fill="#23272b"/><path d="m224.664062 278.667969c0 11.230469-9.101562 20.332031-20.332031 20.332031s-20.332031-9.101562-20.332031-20.332031 9.101562-20.332031 20.332031-20.332031 20.332031 9.101562 20.332031 20.332031zm0 0" fill="#fff"/><path d="m328 278.667969c0 11.230469-9.101562 20.332031-20.332031 20.332031s-20.332031-9.101562-20.332031-20.332031 9.101562-20.332031 20.332031-20.332031 20.332031 9.101562 20.332031 20.332031zm0 0" fill="#e9edf5"/><path d="m276.664062 278.667969c0 11.230469-9.101562 20.332031-20.332031 20.332031s-20.332031-9.101562-20.332031-20.332031 9.101562-20.332031 20.332031-20.332031 20.332031 9.101562 20.332031 20.332031zm0 0" fill="#fff"/><path d="m256.332031 258.332031c-.175781 0-.347656.023438-.523437.027344v40.613281c.175781.003906.347656.027344.523437.027344 11.230469 0 20.332031-9.105469 20.332031-20.332031.003907-11.230469-9.101562-20.335938-20.332031-20.335938zm0 0" fill="#e9edf5"/><path d="m224.664062 335.601562c0 11.230469-9.101562 20.332032-20.332031 20.332032s-20.332031-9.101563-20.332031-20.332032c0-11.230468 9.101562-20.332031 20.332031-20.332031s20.332031 9.101563 20.332031 20.332031zm0 0" fill="#fff"/><path d="m328 335.601562c0 11.230469-9.101562 20.332032-20.332031 20.332032s-20.332031-9.101563-20.332031-20.332032c0-11.230468 9.101562-20.332031 20.332031-20.332031s20.332031 9.101563 20.332031 20.332031zm0 0" fill="#e9edf5"/><path d="m276.664062 335.601562c0 11.230469-9.101562 20.332032-20.332031 20.332032s-20.332031-9.101563-20.332031-20.332032c0-11.230468 9.101562-20.332031 20.332031-20.332031s20.332031 9.101563 20.332031 20.332031zm0 0" fill="#fff"/><path d="m256.332031 315.269531c-.175781 0-.347656.019531-.523437.023438v40.613281c.175781.007812.347656.027344.523437.027344 11.230469 0 20.332031-9.105469 20.332031-20.332032 0-11.230468-9.101562-20.332031-20.332031-20.332031zm0 0" fill="#e9edf5"/></svg>