<svg height="512pt" viewBox="0 0 512 512" width="512pt" xmlns="http://www.w3.org/2000/svg"><path d="m512 256c0 141.386719-114.613281 256-256 256s-256-114.613281-256-256 114.613281-256 256-256 256 114.613281 256 256zm0 0" fill="#4a7aff"/><path d="m512 256c0-.570312-.019531-1.136719-.019531-1.707031l-79.804688-79.804688-201.367187-70.371093-133.632813 97.261718 90.859375 90.859375-71.527344 96.648438 122.539063 122.542969c5.605469.363281 11.253906.570312 16.953125.570312 141.386719 0 256-114.613281 256-256zm0 0" fill="#0053bf"/><path d="m395.492188 388.886719h-278.984376v-209.988281l139.300782-90 139.683594 90zm0 0" fill="#fff"/><path d="m395.492188 178.898438-139.683594-90v299.988281h139.683594zm0 0" fill="#e9edf5"/><path d="m414.824219 201.378906-159.015625-102.472656-158.632813 102.472656-17.351562-26.890625 175.984375-113.667969 176.367187 113.667969zm0 0" fill="#ff583e"/><path d="m255.808594 60.820312v38.207032-.121094l159.015625 102.472656 17.351562-26.890625zm0 0" fill="#e81d13"/><path d="m353.832031 262c0-4.390625-.292969-8.707031-.855469-12.945312l20.511719-11.839844-37.277343-64.570313-20.519532 11.84375c-6.816406-5.253906-14.34375-9.632812-22.414062-12.960937v-23.671875h-74.558594v23.671875c-8.070312 3.328125-15.597656 7.707031-22.410156 12.960937l-20.519532-11.84375-37.277343 64.570313 20.511719 11.839844c-.5625 4.238281-.855469 8.554687-.855469 12.945312s.292969 8.707031.855469 12.945312l-20.511719 11.839844 37.277343 64.570313 20.519532-11.847657c6.8125 5.257813 14.339844 9.632813 22.410156 12.964844v23.667969h74.558594v-23.667969c8.070312-3.332031 15.597656-7.707031 22.414062-12.964844l20.519532 11.847657 37.277343-64.570313-20.511719-11.84375c.5625-4.234375.855469-8.550781.855469-12.941406zm-97.832031 60.09375c-33.1875 0-60.09375-26.90625-60.09375-60.09375s26.90625-60.09375 60.09375-60.09375 60.09375 26.90625 60.09375 60.09375-26.90625 60.09375-60.09375 60.09375zm0 0" fill="#555a66"/><path d="m353.832031 262c0-4.390625-.292969-8.707031-.855469-12.945312l20.511719-11.839844-37.277343-64.570313-20.519532 11.84375c-6.8125-5.253906-14.339844-9.632812-22.410156-12.960937v-23.671875h-37.472656v54.058593c.066406 0 .128906-.007812.191406-.007812 33.1875 0 60.09375 26.90625 60.09375 60.09375s-26.90625 60.09375-60.09375 60.09375c-.0625 0-.125-.007812-.191406-.007812v54.054687h37.472656v-23.667969c8.070312-3.332031 15.597656-7.707031 22.410156-12.964844l20.519532 11.847657 37.277343-64.570313-20.511719-11.84375c.5625-4.234375.855469-8.550781.855469-12.941406zm0 0" fill="#333940"/><path d="m333.902344 262.410156c-42.957032-42.953125-112.847656-42.953125-155.804688 0l-21.214844-21.210937c54.652344-54.652344 143.582032-54.652344 198.230469 0zm0 0" fill="#53edf5"/><path d="m303.472656 292.84375c-26.175781-26.179688-68.769531-26.179688-94.945312 0l-21.210938-21.214844c37.871094-37.871094 99.496094-37.871094 137.367188 0zm0 0" fill="#53edf5"/><g fill="#40deed"><path d="m255.808594 200.210938v29.988281c28.277344-.050781 56.570312 10.6875 78.09375 32.210937l21.214844-21.210937c-27.375-27.375-63.347657-41.035157-99.308594-40.988281zm0 0"/><path d="m255.808594 243.230469v29.984375c17.257812-.050782 34.527344 6.492187 47.664062 19.628906l21.214844-21.214844c-18.988281-18.984375-43.941406-28.449218-68.878906-28.398437zm0 0"/></g></svg>