<svg height="512pt" viewBox="0 0 512 512" width="512pt" xmlns="http://www.w3.org/2000/svg"><path d="m512 256c0 141.386719-114.613281 256-256 256s-256-114.613281-256-256 114.613281-256 256-256 256 114.613281 256 256zm0 0" fill="#555a66"/><path d="m512 256c0-26.914062-4.164062-52.855469-11.867188-77.226562l-72.320312-72.320313-196.003906 10.664063-134.632813 98.296874 91.859375 89.824219-72.527344 97.6875 109.335938 107.296875c9.890625 1.160156 19.953125 1.777344 30.15625 1.777344 141.386719 0 256-114.613281 256-256zm0 0" fill="#333940"/><path d="m395.492188 402.925781h-278.984376v-209.988281l139.492188-90 139.492188 90zm0 0" fill="#ff583e"/><path d="m395.492188 192.9375-139.492188-90 .40625 299.988281h139.085938zm0 0" fill="#e81d13"/><path d="m414.824219 215.414062-158.824219-102.472656-158.824219 102.472656-17.351562-26.886718 176.175781-113.667969 176.175781 113.667969zm0 0" fill="#ffe000"/><path d="m432.175781 188.527344-176.175781-113.667969.40625 38.34375 158.417969 102.210937zm0 0" fill="#ffc200"/><path d="m343.105469 68.257812c-62.433594 0-113.042969 50.613282-113.042969 113.046876 0 23.648437 7.265625 45.597656 19.679688 63.746093l-20.890626 49.253907 68.1875-9.742188c14.070313 6.285156 29.660157 9.785156 46.066407 9.785156 62.433593 0 113.042969-50.613281 113.042969-113.042968 0-62.433594-50.609376-113.046876-113.042969-113.046876zm0 0" fill="#fff"/><path d="m343.105469 294.347656c62.433593 0 113.042969-50.613281 113.042969-113.042968 0-62.433594-50.609376-113.046876-113.042969-113.046876zm0 0" fill="#e9edf5"/><path d="m423.902344 171.347656c-42.953125-42.953125-112.847656-42.953125-155.804688 0l-21.214844-21.210937c54.652344-54.652344 143.582032-54.652344 198.230469 0zm0 0" fill="#53edf5"/><path d="m393.472656 201.777344c-26.175781-26.175782-68.769531-26.175782-94.945312 0l-21.210938-21.210938c37.871094-37.875 99.496094-37.875 137.367188 0zm0 0" fill="#53edf5"/><path d="m343.105469 109.179688v29.992187c29.167969-.761719 58.585937 9.964844 80.796875 32.175781l21.210937-21.210937c-28.058593-28.0625-65.152343-41.710938-102.007812-40.957031zm0 0" fill="#40deed"/><path d="m343.105469 152.230469v29.984375c18.140625-.773438 36.542969 5.742187 50.367187 19.5625l21.210938-21.210938c-19.667969-19.671875-45.746094-29.097656-71.578125-28.335937zm0 0" fill="#40deed"/><path d="m365.160156 224.953125c0 11.640625-9.433594 21.074219-21.074218 21.074219-11.636719 0-21.070313-9.433594-21.070313-21.074219 0-11.636719 9.433594-21.070313 21.070313-21.070313 11.640624 0 21.074218 9.433594 21.074218 21.070313zm0 0" fill="#53edf5"/><path d="m344.085938 203.882812c-.328126 0-.652344.03125-.980469.050782v42.046875c.328125.011719.648437.046875.980469.046875 11.640624 0 21.074218-9.433594 21.074218-21.070313 0-11.640625-9.433594-21.074219-21.074218-21.074219zm0 0" fill="#40deed"/></svg>