<svg height="512pt" viewBox="0 0 512 512" width="512pt" xmlns="http://www.w3.org/2000/svg"><path d="m512 256c0 141.386719-114.613281 256-256 256s-256-114.613281-256-256 114.613281-256 256-256 256 114.613281 256 256zm0 0" fill="#4a7aff"/><path d="m266.570312 511.765625c136.480469-5.546875 245.429688-117.921875 245.429688-255.765625 0-3.125-.074219-6.230469-.1875-9.324219l-63.3125-63.316406-9.847656 8.574219-75.417969-75.652344-135.402344-33.589844-41.832031 20.140625-12.449219 27.480469 73.132813 73.136719-183.183594 105.246093zm0 0" fill="#0053bf"/><path d="m63.5 183.359375h385v125.335937h-385zm0 0" fill="#fff"/><path d="m255.808594 183.359375h192.691406v125.335937h-192.691406zm0 0" fill="#e9edf5"/><path d="m88.332031 251.027344h335.332031v38.667968h-335.332031zm0 0" fill="#b2d3ff"/><path d="m255.808594 251.027344h167.859375v38.667968h-167.859375zm0 0" fill="#9bc5ff"/><path d="m244.046875 334.429688h23.90625v115.238281h-23.90625zm0 0" fill="#53edf5"/><path d="m255.808594 334.429688h12.144531v115.238281h-12.144531zm0 0" fill="#42cbea"/><path d="m306.757812 334.429688h23.90625v89.289062h-23.90625zm0 0" fill="#42cbea"/><g fill="#53edf5"><path d="m181.335938 334.429688h23.910156v89.289062h-23.910156zm0 0"/><path d="m342.023438 137.496094c-22.980469-22.976563-53.527344-35.632813-86.023438-35.632813s-63.046875 12.65625-86.023438 35.632813l-21.210937-21.214844c28.640625-28.640625 66.726563-44.417969 107.234375-44.417969 40.507812 0 78.59375 15.777344 107.234375 44.421875zm0 0"/><path d="m308.800781 170.71875c-29.113281-29.113281-76.484375-29.113281-105.601562 0l-21.210938-21.210938c40.808594-40.8125 107.210938-40.8125 148.027344 0zm0 0"/></g><path d="m256 71.863281c-.003906 0 .003906 0 0 0-.113281 0-.222656.003907-.332031.003907v30c.109375 0 .222656-.003907.332031-.003907 32.496094 0 63.046875 12.65625 86.023438 35.632813l21.210937-21.210938c-28.640625-28.644531-66.726563-44.421875-107.234375-44.421875zm0 0" fill="#40deed"/><path d="m255.667969 118.902344v29.988281c19.230469-.082031 38.492187 7.1875 53.132812 21.828125l21.214844-21.214844c-20.492187-20.488281-47.433594-30.6875-74.347656-30.601562zm0 0" fill="#40deed"/></svg>