<svg height="512pt" viewBox="0 0 512 512" width="512pt" xmlns="http://www.w3.org/2000/svg"><path d="m512 256c0 141.386719-114.613281 256-256 256s-256-114.613281-256-256 114.613281-256 256-256 256 114.613281 256 256zm0 0" fill="#555a66"/><path d="m365.453125 167.445312-19.496094 18.992188-76.179687-76.175781-96.457032 73.347656 80.300782 80.300781-60.078125 172.464844 75.304687 75.304688c117.609375-5.816407 214.332032-90.996094 237.738282-203.101563zm0 0" fill="#333940"/><path d="m237.109375 199.261719h40.59375v134.089843h-40.59375zm0 0" fill="#ffe000"/><path d="m255.808594 199.261719h21.894531v134.089843h-21.894531zm0 0" fill="#ffc200"/><path d="m154.859375 80.742188s153.054687-42.730469 122.804687 118.761718c-159.121093 37.574219-122.804687-118.761718-122.804687-118.761718zm0 0" fill="#ffe000"/><path d="m154.859375 80.742188s-36.316406 156.335937 122.804687 118.761718zm0 0" fill="#fdba12"/><path d="m365.453125 167.445312s-109.347656-30.523437-87.734375 84.851563c113.675781 26.84375 87.734375-84.851563 87.734375-84.851563zm0 0" fill="#ffe000"/><path d="m365.453125 167.445312s25.945313 111.695313-87.734375 84.851563zm0 0" fill="#fdba12"/><path d="m320.867188 436.375h-127.324219l-27.679688-165.152344h182.683594zm0 0" fill="#ff583e"/><path d="m348.546875 271.222656h-92.738281v165.152344h65.058594zm0 0" fill="#e81d13"/><path d="m298.738281 351.847656c-11.339843-11.339844-26.417969-17.585937-42.457031-17.585937-16.035156 0-31.113281 6.246093-42.453125 17.585937l-10.433594-10.433594c14.125-14.125 32.910157-21.90625 52.886719-21.90625 19.980469 0 38.765625 7.777344 52.890625 21.90625zm0 0" fill="#fff"/><path d="m256.28125 319.507812c-.15625 0-.3125.007813-.472656.011719v14.753907c.160156 0 .316406-.011719.472656-.011719 16.039062 0 31.117188 6.246093 42.457031 17.585937l10.433594-10.433594c-14.128906-14.128906-32.910156-21.90625-52.890625-21.90625zm0 0" fill="#e9edf5"/><path d="m319.769531 330.816406c-16.957031-16.957031-39.503906-26.296875-63.488281-26.296875-23.980469 0-46.527344 9.339844-63.484375 26.296875l-10.433594-10.433594c19.742188-19.742187 45.996094-30.617187 73.917969-30.617187 27.921875 0 54.175781 10.871094 73.921875 30.617187zm0 0" fill="#fff"/><path d="m256.28125 289.765625c-.15625 0-.3125.003906-.472656.003906v14.761719c.160156 0 .316406-.011719.472656-.011719 23.984375 0 46.53125 9.339844 63.488281 26.296875l10.433594-10.429687c-19.746094-19.746094-46-30.621094-73.921875-30.621094zm0 0" fill="#e9edf5"/></svg>