<svg height="512pt" viewBox="0 0 512 512" width="512pt" xmlns="http://www.w3.org/2000/svg"><path d="m512 256c0 141.386719-114.613281 256-256 256s-256-114.613281-256-256 114.613281-256 256-256 256 114.613281 256 256zm0 0" fill="#555a66"/><path d="m512 256c0-1.691406-.03125-3.378906-.0625-5.0625l-138.9375-138.9375-282.515625 193.164062 85.863281 85.863282-34.347656 27.972656 92.054688 92.054688c7.234374.613281 14.550781.945312 21.945312.945312 141.386719 0 256-114.613281 256-256zm0 0" fill="#333940"/><path d="m186 312.039062h-79.210938c-12.585937 0-22.789062-10.203124-22.789062-22.789062v-123.425781c0-12.585938 10.203125-22.785157 22.789062-22.785157h79.210938zm0 0" fill="#53edf5"/><path d="m84 255.90625v33.34375c0 12.585938 10.203125 22.789062 22.789062 22.789062h79.210938v-56.132812zm0 0" fill="#42cbea"/><path d="m142 112h231v307h-231zm0 0" fill="#fff"/><path d="m142 255.90625h231v163.09375h-231zm0 0" fill="#e9edf5"/><path d="m227.75 294c-21.644531 0-39.25-17.605469-39.25-39.25s17.605469-39.25 39.25-39.25 39.25 17.605469 39.25 39.25-17.605469 39.25-39.25 39.25zm0-58.5c-10.613281 0-19.25 8.636719-19.25 19.25s8.636719 19.25 19.25 19.25 19.25-8.636719 19.25-19.25-8.636719-19.25-19.25-19.25zm0 0" fill="#53edf5"/><path d="m246.941406 255.90625c-.601562 10.074219-8.964844 18.09375-19.191406 18.09375s-18.589844-8.019531-19.191406-18.09375h-20.027344c.613281 21.109375 17.964844 38.09375 39.21875 38.09375s38.605469-16.984375 39.222656-38.09375zm0 0" fill="#42cbea"/><path d="m295.097656 229.75c-21.644531 0-39.25-17.605469-39.25-39.25s17.605469-39.25 39.25-39.25c21.644532 0 39.25 17.605469 39.25 39.25s-17.609375 39.25-39.25 39.25zm0-58.5c-10.613281 0-19.25 8.636719-19.25 19.25s8.636719 19.25 19.25 19.25c10.613282 0 19.25-8.636719 19.25-19.25s-8.636718-19.25-19.25-19.25zm0 0" fill="#53edf5"/><path d="m232.75 392.75c-21.644531 0-39.25-17.605469-39.25-39.25s17.605469-39.25 39.25-39.25 39.25 17.605469 39.25 39.25-17.605469 39.25-39.25 39.25zm0-58.5c-10.613281 0-19.25 8.636719-19.25 19.25s8.636719 19.25 19.25 19.25 19.25-8.636719 19.25-19.25-8.636719-19.25-19.25-19.25zm0 0" fill="#42cbea"/><path d="m257 244.539062h116v20h-116zm0 0" fill="#53edf5"/><path d="m257 255.90625h116v8.632812h-116zm0 0" fill="#42cbea"/><path d="m261.574219 340.058594-15.042969-13.179688 31.4375-35.878906h95.03125v20h-85.96875zm0 0" fill="#42cbea"/><path d="m324.347656 180.5h48.652344v20h-48.652344zm0 0" fill="#53edf5"/></svg>