<svg height="512pt" viewBox="0 0 512 512" width="512pt" xmlns="http://www.w3.org/2000/svg"><path d="m512 256c0 141.386719-114.613281 256-256 256s-256-114.613281-256-256 114.613281-256 256-256 256 114.613281 256 256zm0 0" fill="#ffe000"/><path d="m512 256c0-.570312-.019531-1.136719-.019531-1.707031l-79.804688-79.804688-201.367187-70.371093-133.632813 97.261718 90.859375 90.859375-71.527344 96.648438 122.539063 122.542969c5.605469.363281 11.253906.570312 16.953125.570312 141.386719 0 256-114.613281 256-256zm0 0" fill="#ffc200"/><path d="m395.492188 388.886719h-278.984376v-209.988281l139.300782-90 139.683594 90zm0 0" fill="#555a66"/><path d="m395.492188 178.898438-139.683594-90v299.988281h139.683594zm0 0" fill="#333940"/><path d="m414.824219 201.378906-159.015625-102.472656-158.632813 102.472656-17.351562-26.890625 175.984375-113.667969 176.367187 113.667969zm0 0" fill="#4a7aff"/><path d="m255.808594 60.820312v38.207032-.121094l159.015625 102.472656 17.351562-26.890625zm0 0" fill="#0053bf"/><path d="m257 353.074219c-25.097656 0-50.191406-9.550781-69.296875-28.65625-38.210937-38.210938-38.210937-100.382813 0-138.59375l22.628906 22.628906c-25.734375 25.734375-25.734375 67.605469 0 93.335937 12.863281 12.867188 29.769531 19.300782 46.667969 19.300782 16.902344.003906 33.800781-6.429688 46.667969-19.300782 25.734375-25.730468 25.734375-67.601562 0-93.335937l22.628906-22.628906c38.210937 38.210937 38.210937 100.386719 0 138.59375-19.105469 19.105469-44.203125 28.65625-69.296875 28.65625zm0 0" fill="#fff"/><path d="m326.296875 185.824219-22.628906 22.628906c25.734375 25.730469 25.734375 67.605469 0 93.335937-12.867188 12.867188-29.765625 19.304688-46.667969 19.300782-.398438 0-.792969-.019532-1.191406-.027344v31.984375c.398437.003906.792968.027344 1.191406.027344 25.097656 0 50.191406-9.550781 69.296875-28.65625 38.210937-38.210938 38.210937-100.382813 0-138.59375zm0 0" fill="#e9edf5"/><path d="m240.128906 161.117188h32v106.011718h-32zm0 0" fill="#fff"/><path d="m255.808594 161.117188h16.320312v106.011718h-16.320312zm0 0" fill="#e9edf5"/></svg>