<svg height="512pt" viewBox="0 0 512 512" width="512pt" xmlns="http://www.w3.org/2000/svg"><path d="m512 256c0 141.386719-114.613281 256-256 256s-256-114.613281-256-256 114.613281-256 256-256 256 114.613281 256 256zm0 0" fill="#ff583e"/><path d="m512 256c0-.570312-.019531-1.136719-.019531-1.707031l-79.804688-79.804688-201.367187-70.371093-133.632813 97.261718 90.859375 90.859375-71.527344 96.648438 122.539063 122.542969c5.605469.363281 11.253906.570312 16.953125.570312 141.386719 0 256-114.613281 256-256zm0 0" fill="#e81d13"/><path d="m395.492188 388.878906h-278.984376v-209.988281l139.300782-90 139.683594 90zm0 0" fill="#555a66"/><path d="m395.492188 178.890625-139.683594-90v299.988281h139.683594zm0 0" fill="#333940"/><path d="m414.824219 201.371094-159.015625-102.476563-158.632813 102.476563-17.351562-26.890625 175.984375-113.667969 176.367187 113.667969zm0 0" fill="#fff"/><path d="m255.808594 60.8125v38.207031-.125l159.015625 102.476563 17.351562-26.890625zm0 0" fill="#e9edf5"/><path d="m151.003906 238.886719h209.992188v149.992187h-209.992188zm0 0" fill="#fff"/><g fill="#dce1eb"><path d="m151.003906 238.886719h209.992188v26.140625h-209.992188zm0 0"/><path d="m151.003906 288.214844h209.992188v26.140625h-209.992188zm0 0"/><path d="m151.003906 337.542969h209.992188v26.140625h-209.992188zm0 0"/></g><path d="m255.808594 238.886719h105.1875v149.992187h-105.1875zm0 0" fill="#e9edf5"/><path d="m255.808594 238.886719h105.1875v26.140625h-105.1875zm0 0" fill="#cdd2e1"/><path d="m255.808594 288.214844h105.1875v26.140625h-105.1875zm0 0" fill="#cdd2e1"/><path d="m255.808594 337.542969h105.1875v26.140625h-105.1875zm0 0" fill="#cdd2e1"/><path d="m330.023438 203.425781c-19.773438-19.773437-46.0625-30.660156-74.023438-30.660156s-54.25 10.886719-74.023438 30.660156l-21.210937-21.210937c52.511719-52.515625 137.957031-52.515625 190.46875 0zm0 0" fill="#53edf5"/><path d="m300.925781 232.523438c-24.773437-24.769532-65.078125-24.769532-89.851562 0l-21.214844-21.214844c36.46875-36.46875 95.8125-36.46875 132.277344 0zm0 0" fill="#53edf5"/><path d="m255.808594 142.828125v29.9375h.191406c27.960938 0 54.25 10.886719 74.023438 30.660156l21.210937-21.210937c-26.304687-26.308594-60.871094-39.433594-95.425781-39.386719zm0 0" fill="#40deed"/><path d="m255.808594 183.964844v29.984375c16.335937-.046875 32.683594 6.140625 45.117187 18.574219l21.214844-21.214844c-18.285156-18.28125-42.316406-27.394532-66.332031-27.34375zm0 0" fill="#40deed"/></svg>