<svg height="512pt" viewBox="0 0 512 512" width="512pt" xmlns="http://www.w3.org/2000/svg"><path d="m512 256c0 141.386719-114.613281 256-256 256s-256-114.613281-256-256 114.613281-256 256-256 256 114.613281 256 256zm0 0" fill="#555a66"/><path d="m512 256c0-15.820312-1.445312-31.300781-4.191406-46.324219l-134.816406-134.816406-233.984376 70.277344 169.140626 169.144531-43.820313 29.304688-77.640625-77.640626-43.675781 158.769532 85.855469 85.855468c8.917968.9375 17.96875 1.429688 27.132812 1.429688 141.386719 0 256-114.613281 256-256zm0 0" fill="#333940"/><path d="m127.367188 384.578125c0-32.757813 59.320312-118.632813 59.320312-118.632813s59.316406 85.875 59.316406 118.632813c0 32.761719-26.558594 59.320313-59.316406 59.320313-32.761719 0-59.320312-26.558594-59.320312-59.320313zm0 0" fill="#ffe000"/><path d="m261.546875 384.578125c0-32.757813 59.316406-118.632813 59.316406-118.632813s59.316407 85.875 59.316407 118.632813c0 32.761719-26.554688 59.320313-59.316407 59.320313-32.757812 0-59.316406-26.558594-59.316406-59.320313zm0 0" fill="#ffc200"/><path d="m186.6875 374.644531c0-38.246093 69.25-138.507812 69.25-138.507812s69.253906 100.261719 69.253906 138.507812c0 38.246094-31.003906 69.253907-69.253906 69.253907-38.246094 0-69.25-31.007813-69.25-69.253907zm0 0" fill="#ff583e"/><path d="m255.808594 443.894531h.132812c38.246094 0 69.25-31.003906 69.25-69.25 0-38.25-69.25-138.507812-69.25-138.507812zm0 0" fill="#e81d13"/><path d="m209.421875 390.121094c0-25.691406 46.519531-93.035156 46.519531-93.035156s46.519532 67.34375 46.519532 93.035156-20.828126 46.519531-46.519532 46.519531c-25.695312 0-46.519531-20.828125-46.519531-46.519531zm0 0" fill="#fff04a"/><path d="m255.9375 297.085938s-.042969.0625-.128906.1875v139.363281c.042968 0 .085937.003906.128906.003906 25.695312 0 46.519531-20.828125 46.519531-46.519531s-46.519531-93.035156-46.519531-93.035156zm0 0" fill="#ffe733"/><path d="m321.585938 180.277344h-131.171876l-20-70.277344h171.171876zm0 0" fill="#e6e6e6"/><path d="m341.585938 110h-85.777344v70.277344h65.777344zm0 0" fill="#d7d7d7"/><path d="m139.007812 74.859375h233.984376v70.277344h-233.984376zm0 0" fill="#fff"/><path d="m255.808594 74.859375h117.1875v70.277344h-117.1875zm0 0" fill="#e9edf5"/><path d="m194.410156 106.242188c0 6.625-5.371094 12-11.996094 12-6.628906 0-12-5.375-12-12 0-6.628907 5.371094-12 12-12 6.625 0 11.996094 5.371093 11.996094 12zm0 0" fill="#ff583e"/></svg>