<svg height="512pt" viewBox="0 0 512 512" width="512pt" xmlns="http://www.w3.org/2000/svg"><path d="m255.808594 511.996094c.066406 0 .128906.003906.191406.003906 141.386719 0 256-114.613281 256-256s-114.613281-256-256-256-256 114.613281-256 256c0 141.320312 114.511719 255.894531 255.808594 255.996094" fill="#4a7aff"/><path d="m512 256c0-2.894531-.066406-5.773438-.160156-8.644531l-138.339844-148.6875-75.429688-21.667969-115.320312 6.125-23.417969 36.757812 96.6875 96.6875-113.261719 206.167969 88.019532 88.023438c8.300781.8125 16.710937 1.238281 25.222656 1.238281 141.386719 0 256-114.613281 256-256zm0 0" fill="#0053bf"/><path d="m178.5 408h155v50h-155zm0 0" fill="#dce1eb"/><path d="m255.808594 408h77.691406v50h-77.691406zm0 0" fill="#cdd2e1"/><path d="m369.242188 422.738281h-226.484376v-157.628906c0-62.542969 50.699219-113.246094 113.242188-113.246094s113.242188 50.703125 113.242188 113.246094zm0 0" fill="#fff"/><path d="m369.242188 265.109375c0-62.542969-50.699219-113.246094-113.242188-113.246094-.0625 0-.128906.003907-.191406.003907v270.871093h113.4375v-157.628906zm0 0" fill="#e9edf5"/><path d="m343.539062 265.667969c0 48.347656-39.191406 87.539062-87.539062 87.539062s-87.539062-39.191406-87.539062-87.539062c0-48.347657 39.191406-87.542969 87.539062-87.542969s87.539062 39.195312 87.539062 87.542969zm0 0" fill="#dce1eb"/><path d="m256 178.125c-.0625 0-.128906.003906-.191406.003906v175.074219c.066406 0 .128906.003906.191406.003906 48.347656 0 87.539062-39.195312 87.539062-87.542969 0-48.34375-39.191406-87.539062-87.539062-87.539062zm0 0" fill="#cdd2e1"/><path d="m317.886719 265.667969c0 34.179687-27.707031 61.886719-61.886719 61.886719s-61.886719-27.707032-61.886719-61.886719c0-34.179688 27.707031-61.890625 61.886719-61.890625s61.886719 27.710937 61.886719 61.890625zm0 0" fill="#555a66"/><path d="m256 203.777344c-.0625 0-.128906.007812-.191406.007812v123.765625c.066406 0 .128906.003907.191406.003907 34.179688 0 61.886719-27.707032 61.886719-61.890626 0-34.175781-27.707031-61.886718-61.886719-61.886718zm0 0" fill="#333940"/><path d="m247 245.5c0 9.113281-7.386719 16.5-16.5 16.5s-16.5-7.386719-16.5-16.5 7.386719-16.5 16.5-16.5 16.5 7.386719 16.5 16.5zm0 0" fill="#fff"/><path d="m260.289062 265.667969c0 4.554687-3.695312 8.25-8.25 8.25-4.558593 0-8.25-3.695313-8.25-8.25 0-4.558594 3.691407-8.25 8.25-8.25 4.554688 0 8.25 3.691406 8.25 8.25zm0 0" fill="#fff"/><path d="m260.289062 265.667969c0-3.195313-1.820312-5.964844-4.480468-7.332031v14.660156c2.660156-1.367188 4.480468-4.132813 4.480468-7.328125zm0 0" fill="#e9edf5"/><path d="m277 387c0 11.597656-9.402344 21-21 21s-21-9.402344-21-21 9.402344-21 21-21 21 9.402344 21 21zm0 0" fill="#ff583e"/><path d="m256 366c-.0625 0-.125.007812-.191406.011719v41.980469c.066406 0 .128906.007812.191406.007812 11.597656 0 21-9.402344 21-21s-9.402344-21-21-21zm0 0" fill="#e81d13"/><path d="m352.289062 119.882812c-53.199218-53.199218-139.761718-53.199218-192.957031 0l-21.214843-21.214843c64.894531-64.894531 170.488281-64.894531 235.382812 0zm0 0" fill="#53edf5"/><path d="m315.472656 156.699219c-15.9375-15.9375-37.125-24.714844-59.664062-24.714844-22.535156 0-43.722656 8.777344-59.660156 24.714844l-21.210938-21.214844c21.601562-21.601563 50.324219-33.5 80.871094-33.5 30.550781 0 59.273437 11.898437 80.875 33.5zm0 0" fill="#53edf5"/><g fill="#40deed"><path d="m373.5 98.667969c-32.398438-32.398438-74.941406-48.621094-117.5-48.667969v29.984375c34.875.046875 69.738281 13.347656 96.289062 39.898437zm0 0"/><path d="m336.683594 135.484375c-21.558594-21.554687-50.203125-33.449219-80.683594-33.496094v30c22.464844.050781 43.578125 8.820313 59.472656 24.710938zm0 0"/></g></svg>