<svg height="512pt" viewBox="0 0 512 512" width="512pt" xmlns="http://www.w3.org/2000/svg"><path d="m512 256c0 141.386719-114.613281 256-256 256s-256-114.613281-256-256 114.613281-256 256-256 256 114.613281 256 256zm0 0" fill="#555a66"/><path d="m512 256c0-19.539062-2.199219-38.5625-6.34375-56.84375l-85.414062-85.414062-19.742188 38.078124-45.386719-46.851562-80.257812-19.300781-81.101563 13.09375-111.253906 173.066406 83.460938 83.460937-47.957032 30.453126 125.96875 125.96875c3.988282.183593 7.996094.289062 12.027344.289062 141.386719 0 256-114.613281 256-256zm0 0" fill="#333940"/><path d="m131.507812 139.757812h124.492188v232.484376h-124.492188zm0 0" fill="#53edf5"/><path d="m269.5 385.742188h-151.492188v-259.484376h151.492188zm-124.492188-27h97.492188v-205.484376h-97.492188zm0 0" fill="#fff"/><path d="m256 139.757812h124.492188v232.484376h-124.492188zm0 0" fill="#42cbea"/><path d="m393.992188 385.742188h-151.492188v-259.484376h151.492188zm-124.492188-27h97.492188v-205.484376h-97.492188zm0 0" fill="#fff"/><path d="m393.992188 126.257812h-138.183594v259.484376h138.1875v-259.484376zm-27 232.484376h-97.492188v-205.484376h97.492188zm0 0" fill="#e9edf5"/><path d="m91.757812 113.742188h328.484376v147.851562h-328.484376zm0 0" fill="#ff583e"/><path d="m255.808594 113.742188h164.433594v147.851562h-164.433594zm0 0" fill="#e81d13"/><path d="m82.5 243.777344h347v28.046875h-347zm0 0" fill="#ff8870"/><path d="m255.808594 243.777344h173.691406v28.050781h-173.691406zm0 0" fill="#ff6c52"/><path d="m333.902344 126.183594c-20.808594-20.808594-48.472656-32.269532-77.902344-32.269532s-57.09375 11.460938-77.902344 32.269532l-21.210937-21.214844c26.46875-26.472656 61.675781-41.054688 99.113281-41.054688 37.441406 0 72.640625 14.582032 99.113281 41.054688zm0 0" fill="#fff"/><path d="m303.472656 156.613281c-12.679687-12.679687-29.539062-19.664062-47.472656-19.664062s-34.792969 6.984375-47.472656 19.664062l-21.210938-21.214843c18.34375-18.34375 42.738282-28.449219 68.683594-28.449219s50.339844 10.105469 68.683594 28.449219zm0 0" fill="#fff"/><g fill="#e9edf5"><path d="m256 63.914062c37.441406 0 72.640625 14.582032 99.113281 41.054688l-21.210937 21.214844c-20.808594-20.808594-48.472656-32.269532-77.902344-32.269532zm0 0"/><path d="m256 106.949219c25.945312 0 50.339844 10.105469 68.683594 28.449219l-21.210938 21.214843c-12.679687-12.679687-29.539062-19.664062-47.472656-19.664062zm0 0"/></g></svg>