<svg height="512pt" viewBox="0 0 512 512" width="512pt" xmlns="http://www.w3.org/2000/svg"><path d="m512 256c0 141.386719-114.613281 256-256 256s-256-114.613281-256-256 114.613281-256 256-256 256 114.613281 256 256zm0 0" fill="#ff583e"/><path d="m511.550781 271.023438-51.804687-51.804688-1.699219.527344-45.742187-45.738282-13.777344 9.160157-76.632813-76.636719-122.894531 11.71875-17.703125 73.367188h-27.289063l-14.875-14.871094-26.367187 2.753906-16.617187 35.007812 18.402343 18.398438-9.203125-1.855469-11.828125-11.832031-27.824219 2.289062-14.058593 36.699219 22.699219 22.695313-18.957032 43.851562 186.875 186.875c4.554688.242188 9.136719.371094 13.746094.371094 136.339844 0 247.769531-106.585938 255.550781-240.976562zm0 0" fill="#e81d13"/><g fill="#ffe000"><path d="m72.886719 210.40625c-15.789063 0-28.632813 12.84375-28.632813 28.632812 0 15.789063 12.847656 28.632813 28.632813 28.632813 12.679687 0 23.457031-8.289063 27.210937-19.730469h70.054688v-18.089844h-70.152344c-3.839844-11.292968-14.535156-19.445312-27.113281-19.445312zm0 39.175781c-5.8125 0-10.539063-4.730469-10.539063-10.542969s4.726563-10.539062 10.539063-10.539062 10.542969 4.726562 10.542969 10.539062-4.730469 10.542969-10.542969 10.542969zm0 0"/><path d="m89.117188 279.605469c-3.875-1.960938-8.25-3.074219-12.878907-3.074219-15.789062 0-28.632812 12.847656-28.632812 28.632812 0 15.789063 12.84375 28.636719 28.632812 28.636719 15.785157 0 28.632813-12.847656 28.632813-28.636719 0-4.554687-1.074219-8.859374-2.976563-12.6875l11.757813-13.417968h56.5v-18.09375h-64.703125zm-12.882813 36.101562c-5.808594 0-10.539063-4.730469-10.539063-10.542969 0-5.808593 4.730469-10.539062 10.539063-10.539062 5.8125 0 10.542969 4.730469 10.542969 10.539062 0 5.816407-4.730469 10.542969-10.542969 10.542969zm0 0"/><path d="m145.148438 186.96875c-3.796876-11.367188-14.535157-19.585938-27.160157-19.585938-15.789062 0-28.632812 12.84375-28.632812 28.632813s12.84375 28.632813 28.632812 28.632813c12.625 0 23.363281-8.21875 27.160157-19.585938h25.003906v-18.09375zm-27.164063 19.585938c-5.808594 0-10.539063-4.726563-10.539063-10.539063s4.730469-10.539063 10.539063-10.539063c5.8125 0 10.542969 4.726563 10.542969 10.539063s-4.726563 10.539063-10.542969 10.539063zm0 0"/></g><path d="m439.113281 267.671875c15.789063 0 28.632813-12.84375 28.632813-28.632813 0-15.785156-12.847656-28.632812-28.632813-28.632812-12.578125 0-23.273437 8.152344-27.113281 19.445312h-70.152344v18.09375h70.054688c3.753906 11.441407 14.53125 19.726563 27.210937 19.726563zm0-39.171875c5.8125 0 10.539063 4.726562 10.539063 10.539062s-4.726563 10.542969-10.539063 10.542969-10.542969-4.730469-10.542969-10.542969 4.730469-10.539062 10.542969-10.539062zm0 0" fill="#ffc200"/><path d="m394.015625 224.648438c15.789063 0 28.632813-12.84375 28.632813-28.632813s-12.847657-28.632813-28.632813-28.632813c-12.628906 0-23.367187 8.21875-27.160156 19.585938h-25.007813v18.09375h25.007813c3.792969 11.367188 14.53125 19.585938 27.160156 19.585938zm0-39.171876c5.808594 0 10.539063 4.726563 10.539063 10.539063s-4.730469 10.539063-10.539063 10.539063c-5.8125 0-10.542969-4.726563-10.542969-10.539063s4.726563-10.539063 10.542969-10.539063zm0 0" fill="#ffc200"/><path d="m435.765625 276.53125c-4.632813 0-9.007813 1.113281-12.878906 3.074219l-16.335938-18.640625h-64.703125v18.09375h56.5l11.757813 13.417968c-1.898438 3.828126-2.972657 8.132813-2.972657 12.6875 0 15.789063 12.84375 28.636719 28.632813 28.636719s28.632813-12.847656 28.632813-28.636719c0-15.785156-12.847657-28.632812-28.632813-28.632812zm0 39.175781c-5.8125 0-10.542969-4.730469-10.542969-10.542969 0-5.808593 4.730469-10.539062 10.542969-10.539062 5.808594 0 10.539063 4.730469 10.539063 10.539062 0 5.816407-4.730469 10.542969-10.539063 10.542969zm0 0" fill="#ffc200"/><path d="m345.207031 286.242188h-40.710937v-119.640626c0-26.742187-21.753906-48.5-48.496094-48.5-26.738281 0-48.496094 21.757813-48.496094 48.5v119.640626h-40.707031v-119.640626c0-49.191406 40.015625-89.207031 89.203125-89.207031s89.207031 40.015625 89.207031 89.207031zm0 0" fill="#fff"/><path d="m256 77.394531c-.261719 0-.523438.007813-.785156.011719v40.71875c.261718-.003906.519531-.019531.785156-.019531 26.742188 0 48.496094 21.753906 48.496094 48.496093v119.640626h40.707031v-119.640626c.003906-49.191406-40.015625-89.207031-89.203125-89.207031zm0 0" fill="#e9edf5"/><path d="m366.246094 324.753906c0 60.886719-49.359375 110.246094-110.246094 110.246094s-110.246094-49.359375-110.246094-110.246094c0-60.886718 49.359375-110.246094 110.246094-110.246094s110.246094 49.359376 110.246094 110.246094zm0 0" fill="#e9edf5"/><path d="m256 214.507812c-.261719 0-.523438.007813-.785156.007813v220.472656c.261718.003907.523437.011719.785156.011719 60.886719 0 110.246094-49.359375 110.246094-110.246094 0-60.886718-49.359375-110.246094-110.246094-110.246094zm0 0" fill="#dce1eb"/><path d="m319.5625 324.753906c0 35.101563-28.457031 63.558594-63.5625 63.558594s-63.5625-28.457031-63.5625-63.558594c0-35.105468 28.457031-63.5625 63.5625-63.5625s63.5625 28.457032 63.5625 63.5625zm0 0" fill="#4a7aff"/><path d="m256 261.191406c-.261719 0-.523438.019532-.785156.023438v127.082031c.261718 0 .519531.019531.785156.019531 35.105469 0 63.5625-28.457031 63.5625-63.5625 0-35.105468-28.457031-63.5625-63.5625-63.5625zm0 0" fill="#0053bf"/><path d="m298.175781 324.753906c0 23.292969-18.882812 42.171875-42.175781 42.171875s-42.175781-18.878906-42.175781-42.171875c0-23.292968 18.882812-42.175781 42.175781-42.175781s42.175781 18.882813 42.175781 42.175781zm0 0" fill="#bec3d2"/><path d="m256 282.578125c-.261719 0-.523438.015625-.785156.023437v84.304688c.261718.003906.519531.023438.785156.023438 23.292969 0 42.175781-18.882813 42.175781-42.175782 0-23.292968-18.882812-42.175781-42.175781-42.175781zm0 0" fill="#afb4c8"/></svg>