<svg height="512pt" viewBox="0 0 512 512" width="512pt" xmlns="http://www.w3.org/2000/svg"><path d="m512 256c0 141.386719-114.613281 256-256 256s-256-114.613281-256-256 114.613281-256 256-256 256 114.613281 256 256zm0 0" fill="#ffe000"/><path d="m512 256c0-18.960938-2.078125-37.4375-5.992188-55.222656l-79.664062-79.664063-26.476562 56.4375-170.058594-59.433593-133.867188 110.617187 91.09375 77.503906-73.132812 96.648438 108.523437 106.921875c10.988281 1.4375 22.191407 2.191406 33.574219 2.191406 141.386719 0 256-114.613281 256-256zm0 0" fill="#ffc200"/><path d="m373.070312 402.925781h-259.167968v-195.074219l129.582031-83.605468 129.585937 83.605468zm0 0" fill="#4a7aff"/><path d="m242.714844 402.925781h130.355468v-195.074219l-129.585937-83.605468zm0 0" fill="#0053bf"/><path d="m391.03125 228.734375-147.546875-95.195313-147.542969 95.195313-16.117187-24.976563 163.660156-105.59375 163.660156 105.59375zm0 0" fill="#fff"/><path d="m243.484375 133.539062 147.546875 95.195313 16.113281-24.976563-163.660156-105.59375zm0 0" fill="#e9edf5"/><path d="m417.773438 336.125h-121.671876c-6.316406 0-11.441406-5.121094-11.441406-11.4375v-196.015625c0-6.316406 5.125-11.4375 11.441406-11.4375h121.671876c6.320312 0 11.441406 5.121094 11.441406 11.4375v196.015625c0 6.316406-5.121094 11.4375-11.441406 11.4375zm0 0" fill="#555a66"/><path d="m417.773438 117.234375h-60.773438v218.890625h60.773438c6.320312 0 11.441406-5.121094 11.441406-11.4375v-196.015625c0-6.316406-5.121094-11.4375-11.441406-11.4375zm0 0" fill="#333940"/><path d="m299.628906 133.347656h114.621094v186.664063h-114.621094zm0 0" fill="#94f2f7"/><path d="m357 133.347656h57.25v186.664063h-57.25zm0 0" fill="#53edf5"/><path d="m393.695312 254.179688h-73.511718v-55.328126l36.753906-23.714843 36.757812 23.714843zm0 0" fill="#65b1fc"/><path d="m393.695312 198.851562-36.695312-23.675781v79.003907h36.695312zm0 0" fill="#4a98f7"/><path d="m398.789062 204.773438-41.851562-27-41.847656 27-4.570313-7.085938 46.417969-29.949219 46.421875 29.949219zm0 0" fill="#4a7aff"/><path d="m403.359375 197.6875-46.359375-29.910156v10.035156l41.785156 26.960938zm0 0" fill="#0053bf"/></svg>