<svg height="512pt" viewBox="0 0 512 512" width="512pt" xmlns="http://www.w3.org/2000/svg"><path d="m512 256c0 141.386719-114.613281 256-256 256s-256-114.613281-256-256 114.613281-256 256-256 256 114.613281 256 256zm0 0" fill="#555a66"/><path d="m296.003906 508.882812c122.382813-19.207031 215.996094-125.109374 215.996094-252.882812 0-17.414062-1.746094-34.417969-5.058594-50.855469l-75.183594-75.183593-43.269531 9.695312v29.941406l-59.460937-59.460937-107.816406-20.898438-27.714844 113.503907-72.777344-72.78125-30.777344 2.988281-12.070312 34.789062 24.464844 24.464844-19.144532 10.128906-9.449218 30.476563 174.550781 174.550781-33.476563 20.335937zm0 0" fill="#333940"/><g fill="#ffc200"><path d="m414.867188 244.960938c15.789062 0 28.632812-12.847657 28.632812-28.636719 0-15.785157-12.84375-28.632813-28.632812-28.632813-12.679688 0-23.453126 8.289063-27.207032 19.730469h-70.058594v18.09375h70.152344c3.839844 11.292969 14.539063 19.445313 27.113282 19.445313zm0-39.175782c5.8125 0 10.539062 4.730469 10.539062 10.539063 0 5.8125-4.726562 10.542969-10.539062 10.542969s-10.539063-4.730469-10.539063-10.542969c0-5.808594 4.726563-10.539063 10.539063-10.539063zm0 0"/><path d="m398.640625 175.761719c3.875 1.957031 8.246094 3.070312 12.878906 3.070312 15.789063 0 28.632813-12.84375 28.632813-28.632812 0-15.789063-12.847656-28.632813-28.632813-28.632813-15.789062 0-28.632812 12.84375-28.632812 28.632813 0 4.554687 1.074219 8.863281 2.972656 12.6875l-11.757813 13.421875h-56.5v18.089844h64.703126zm12.878906-36.105469c5.808594 0 10.539063 4.730469 10.539063 10.542969s-4.730469 10.539062-10.539063 10.539062c-5.8125 0-10.542969-4.726562-10.542969-10.539062s4.730469-10.542969 10.542969-10.542969zm0 0"/><path d="m342.609375 268.394531c3.792969 11.367188 14.53125 19.589844 27.160156 19.589844 15.789063 0 28.632813-12.847656 28.632813-28.632813 0-15.789062-12.847656-28.632812-28.632813-28.632812-12.628906 0-23.367187 8.21875-27.160156 19.585938h-54.941406v18.089843zm27.160156-19.585937c5.808594 0 10.539063 4.726562 10.539063 10.539062s-4.730469 10.542969-10.539063 10.542969c-5.8125 0-10.542969-4.730469-10.542969-10.542969s4.730469-10.539062 10.542969-10.539062zm0 0"/></g><path d="m97.132812 187.691406c-15.789062 0-28.632812 12.84375-28.632812 28.632813 0 15.789062 12.84375 28.632812 28.632812 28.632812 12.574219 0 23.273438-8.148437 27.113282-19.445312h70.152344v-18.089844h-70.058594c-3.75-11.441406-14.527344-19.730469-27.207032-19.730469zm0 39.175782c-5.8125 0-10.539062-4.730469-10.539062-10.542969s4.726562-10.539063 10.539062-10.539063 10.539063 4.726563 10.539063 10.539063-4.726563 10.542969-10.539063 10.542969zm0 0" fill="#ffe000"/><path d="m142.230469 230.71875c-15.789063 0-28.632813 12.84375-28.632813 28.632812 0 15.789063 12.847656 28.632813 28.632813 28.632813 12.628906 0 23.367187-8.222656 27.160156-19.589844h54.277344v-18.089843h-54.277344c-3.792969-11.367188-14.53125-19.585938-27.160156-19.585938zm0 39.171875c-5.808594 0-10.539063-4.730469-10.539063-10.542969s4.730469-10.539062 10.539063-10.539062c5.8125 0 10.542969 4.726562 10.542969 10.539062s-4.730469 10.542969-10.542969 10.542969zm0 0" fill="#ffe000"/><path d="m100.480469 178.832031c4.632812 0 9.007812-1.113281 12.878906-3.070312l16.335937 18.640625h64.703126v-18.09375h-56.5l-11.757813-13.417969c1.898437-3.828125 2.972656-8.136719 2.972656-12.691406 0-15.789063-12.84375-28.632813-28.632812-28.632813-15.789063 0-28.632813 12.84375-28.632813 28.632813 0 15.789062 12.84375 28.632812 28.632813 28.632812zm0-39.175781c5.8125 0 10.542969 4.730469 10.542969 10.542969s-4.730469 10.539062-10.542969 10.539062c-5.808594 0-10.539063-4.726562-10.539063-10.539062s4.726563-10.542969 10.539063-10.542969zm0 0" fill="#ffe000"/><path d="m297.183594 427.695312-41.183594 30-41.183594-30v-190.492187h82.367188zm0 0" fill="#dce1eb"/><path d="m255.808594 237.203125v220.351563l.191406.140624 41.183594-30v-190.492187zm0 0" fill="#cdd2e1"/><path d="m265 276.667969h20v130.332031h-20zm0 0" fill="#afb4c8"/><path d="m256 77c-53.597656 0-97.046875 43.449219-97.046875 97.046875s43.449219 97.050781 97.046875 97.050781 97.046875-43.453125 97.046875-97.050781-43.449219-97.046875-97.046875-97.046875zm0 90.738281c-19.214844 0-34.789062-15.574219-34.789062-34.789062 0-19.210938 15.574218-34.785157 34.789062-34.785157s34.789062 15.574219 34.789062 34.785157c0 19.214843-15.574218 34.789062-34.789062 34.789062zm0 0" fill="#fff"/><path d="m256 77c-.0625 0-.128906.003906-.191406.003906v21.164063c.066406 0 .128906-.003907.191406-.003907 19.214844 0 34.789062 15.574219 34.789062 34.785157 0 19.214843-15.574218 34.789062-34.789062 34.789062-.0625 0-.128906-.003906-.191406-.003906v103.359375h.191406c53.597656 0 97.046875-43.449219 97.046875-97.046875s-43.449219-97.046875-97.046875-97.046875zm0 0" fill="#e9edf5"/></svg>