<svg height="512pt" viewBox="0 0 512 512" width="512pt" xmlns="http://www.w3.org/2000/svg"><path d="m512 256c0 141.386719-114.613281 256-256 256s-256-114.613281-256-256 114.613281-256 256-256 256 114.613281 256 256zm0 0" fill="#4a7aff"/><path d="m512 256c0-20.765625-2.488281-40.949219-7.15625-60.28125l-51.988281-56.480469-116.09375-30.953125-40.96875 31.507813-39.792969-39.792969-175.03125 191.777344-3.96875 116.222656 86.925781 86.925781c28.574219 11.019531 59.613281 17.074219 92.074219 17.074219 141.386719 0 256-114.613281 256-256zm0 0" fill="#0053bf"/><path d="m77 324v-115l179-109v51l-113 76.691406v57.269532zm0 0" fill="#fff"/><path d="m309.328125 214.039062h99.34375v75.960938h-99.34375zm0 0" fill="#d7d7d7"/><path d="m295 196.421875h128v75.957031h-128zm0 0" fill="#e9edf5"/><path d="m295 196.421875-218 127.578125v84h96v-61l122-74.621094zm0 0" fill="#e6e6e6"/><path d="m295 196.421875-39.191406 22.933594v76.996093l39.191406-23.972656zm0 0" fill="#d7d7d7"/><path d="m399.574219 379.917969c0 22.40625-18.167969 40.570312-40.574219 40.570312s-40.574219-18.164062-40.574219-40.570312c0-22.410157 40.574219-72.917969 40.574219-72.917969s40.574219 50.507812 40.574219 72.917969zm0 0" fill="#53edf5"/><path d="m359 307s.136719-.171875 0 0l-.214844 113.484375c.074219 0 .144532.003906.214844.003906 22.40625 0 40.574219-18.164062 40.574219-40.574219 0-22.40625-40.574219-72.914062-40.574219-72.914062zm0 0" fill="#42cbea"/><path d="m286.355469 160.453125-21.214844-21.210937c25.070313-25.070313 58.402344-38.878907 93.859375-38.878907 35.453125 0 68.785156 13.808594 93.855469 38.875l-21.214844 21.214844c-19.402344-19.402344-45.199219-30.089844-72.644531-30.089844-27.4375 0-53.234375 10.6875-72.640625 30.089844zm0 0" fill="#ffe000"/><path d="m314.980469 189.074219-21.214844-21.210938c17.425781-17.425781 40.59375-27.019531 65.234375-27.019531s47.808594 9.59375 65.234375 27.019531l-21.214844 21.210938c-11.757812-11.757813-27.390625-18.230469-44.019531-18.230469s-32.261719 6.472656-44.019531 18.230469zm0 0" fill="#ffe000"/><g fill="#ffc200"><path d="m452.855469 139.238281c-24.949219-24.949219-58.089844-38.738281-93.355469-38.871093v30c27.253906.128906 52.855469 10.800781 72.144531 30.085937zm0 0"/><path d="m424.234375 167.863281c-17.304687-17.308593-40.28125-26.878906-64.734375-27.007812v30c16.441406.128906 31.882812 6.582031 43.519531 18.21875zm0 0"/></g></svg>