<svg height="512pt" viewBox="0 0 512 512" width="512pt" xmlns="http://www.w3.org/2000/svg"><path d="m512 256c0 141.386719-114.613281 256-256 256s-256-114.613281-256-256 114.613281-256 256-256 256 114.613281 256 256zm0 0" fill="#ffe000"/><path d="m512 256c0-8.058594-.390625-16.019531-1.117188-23.886719l-90.640624-90.640625-328.484376 221.433594 148.601563 148.605469c5.175781.3125 10.386719.488281 15.640625.488281 141.386719 0 256-114.613281 256-256zm0 0" fill="#ffc200"/><path d="m103.414062 153.128906h305.175782v198.125h-305.175782zm0 0" fill="#53edf5"/><path d="m103.414062 153.128906h305.175782v198.125h-305.175782zm0 0" fill="#53edf5"/><path d="m255.214844 153.128906h153.371094v198.125h-153.371094zm0 0" fill="#42cbea"/><path d="m420.242188 362.90625h-328.484376v-221.433594h328.484376zm-305.175782-23.308594h281.867188v-174.816406h-281.867188zm0 0" fill="#555a66"/><path d="m420.242188 141.472656h-165.027344v23.308594h141.71875v174.816406h-141.71875v23.308594h165.027344zm0 0" fill="#333940"/><path d="m291.617188 357.148438 16.847656-16.109376 47.050781 49.210938-16.847656 16.109375zm0 0" fill="#333940"/><path d="m156.507812 390.257812 47.050782-49.207031 16.847656 16.105469-47.050781 49.210938zm0 0" fill="#555a66"/><path d="m276.425781 275.992188c-2.679687-.816407-5.582031-1.265626-8.621093-1.265626-13.441407 0-24.339844 8.761719-24.339844 19.570313s10.898437 19.570313 24.339844 19.570313c13.445312 0 24.339843-8.761719 24.339843-19.570313 0-.027344 0-.054687 0-.082031v-84.261719h-15.71875zm0 0" fill="#555a66"/><path d="m365.660156 209.953125h-15.71875v66.039063c-2.679687-.816407-5.585937-1.265626-8.621094-1.265626-13.441406 0-24.339843 8.761719-24.339843 19.570313s10.898437 19.570313 24.339843 19.570313c13.445313 0 24.339844-8.761719 24.339844-19.570313 0-.027344-.003906-.054687-.003906-.082031h.003906zm0 0" fill="#333940"/><path d="m276.425781 200.207031h89.234375v27.355469h-89.234375zm0 0" fill="#707789"/><path d="m320.691406 200.207031h44.96875v27.355469h-44.96875zm0 0" fill="#636978"/><path d="m176.179688 333.070312c-21.726563-21.726562-33.6875-50.609374-33.6875-81.332031 0-30.722656 11.964843-59.605469 33.6875-81.332031l21.214843 21.214844c-16.058593 16.058594-24.902343 37.40625-24.902343 60.117187 0 22.707031 8.84375 44.058594 24.902343 60.117188zm0 0" fill="#2864f0"/><path d="m204.21875 305.03125c-29.386719-29.386719-29.386719-77.199219 0-106.585938l21.210938 21.214844c-17.6875 17.6875-17.6875 46.46875 0 64.15625zm0 0" fill="#2864f0"/><g fill="#0053bf"><path d="m142.492188 252c.070312 30.625 12.023437 59.40625 33.6875 81.070312l21.210937-21.214843c-15.996094-15.996094-24.824219-37.246094-24.894531-59.855469zm0 0"/><path d="m182.183594 252c.066406 19.210938 7.410156 38.402344 22.035156 53.03125l21.210938-21.214844c-8.777344-8.777344-13.191407-20.285156-13.257813-31.816406zm0 0"/></g></svg>