<svg height="512pt" viewBox="0 0 512 512" width="512pt" xmlns="http://www.w3.org/2000/svg"><path d="m512 256c0 141.386719-114.613281 256-256 256s-256-114.613281-256-256 114.613281-256 256-256 256 114.613281 256 256zm0 0" fill="#53edf5"/><path d="m511.988281 256.847656-94.417969-94.421875-.597656 1.144531-34.273437-34.273437-4.191407 8.78125-70.722656-70.722656-73.496094 130.523437-69.164062-67.003906-27.070312 2.375-6.75 27.464844 20.710937 20.707031h-6.109375l-16.738281-16.738281-22.996094-.996094-10.421875 31.4375 19.238281 19.078125-12.488281 6.921875-5.664062 24.730469 54.199218 54.203125-25.613281 101.953125 109.082031 109.082031c7.085938.589844 14.253906.90625 21.496094.90625 141.101562 0 255.53125-114.160156 255.988281-255.152344zm0 0" fill="#42cbea"/><path d="m354.5625 415.644531h-197.125c-26.765625 0-47.457031-23.492187-44.074219-50.046875l8.988281-70.558594c2.828126-22.1875 21.707032-38.816406 44.074219-38.816406h179.148438c22.367187 0 41.246093 16.628906 44.074219 38.816406l8.988281 70.558594c3.382812 26.554688-17.308594 50.046875-44.074219 50.046875zm0 0" fill="#333940"/><path d="m398.636719 365.597656-8.988281-70.558594c-2.828126-22.1875-21.707032-38.816406-44.074219-38.816406h-89.765625v159.421875h98.753906c26.765625 0 47.457031-23.492187 44.074219-50.046875zm0 0" fill="#333940"/><g fill="#4a7aff"><path d="m110.855469 155.367188c-12.515625 0-22.695313 10.183593-22.695313 22.699218 0 12.511719 10.179688 22.695313 22.695313 22.695313 10.050781 0 18.589843-6.570313 21.566406-15.640625h55.53125v-14.339844h-55.605469c-3.042968-8.953125-11.523437-15.414062-21.492187-15.414062zm0 31.054687c-4.605469 0-8.355469-3.75-8.355469-8.355469 0-4.605468 3.75-8.355468 8.355469-8.355468 4.609375 0 8.355469 3.75 8.355469 8.355468 0 4.605469-3.746094 8.355469-8.355469 8.355469zm0 0"/><path d="m123.71875 210.21875c-3.070312-1.554688-6.539062-2.433594-10.207031-2.433594-12.515625 0-22.699219 10.179688-22.699219 22.695313s10.183594 22.699219 22.699219 22.699219c12.511719 0 22.695312-10.183594 22.695312-22.699219 0-3.609375-.851562-7.023438-2.359375-10.058594l9.320313-10.636719h44.785156v-14.339844h-51.289063zm-10.207031 28.617188c-4.609375 0-8.355469-3.746094-8.355469-8.355469 0-4.605469 3.746094-8.355469 8.355469-8.355469 4.605469 0 8.351562 3.75 8.351562 8.355469 0 4.609375-3.746093 8.355469-8.351562 8.355469zm0 0"/><path d="m168.132812 136.792969c-3.011718-9.011719-11.519531-15.527344-21.53125-15.527344-12.511718 0-22.695312 10.179687-22.695312 22.695313 0 12.515624 10.183594 22.695312 22.695312 22.695312 10.011719 0 18.519532-6.511719 21.53125-15.523438h19.820313v-14.339843zm-21.53125 15.523437c-4.605468 0-8.355468-3.746094-8.355468-8.355468 0-4.605469 3.75-8.355469 8.355468-8.355469 4.609376 0 8.355469 3.75 8.355469 8.355469 0 4.609374-3.746093 8.355468-8.355469 8.355468zm0 0"/></g><path d="m401.144531 200.761719c12.515625 0 22.695313-10.179688 22.695313-22.695313s-10.179688-22.695312-22.695313-22.695312c-9.96875 0-18.449219 6.460937-21.492187 15.410156h-55.605469v14.34375h55.53125c2.976563 9.066406 11.515625 15.636719 21.566406 15.636719zm0-31.050781c4.605469 0 8.355469 3.746093 8.355469 8.355468 0 4.605469-3.75 8.355469-8.355469 8.355469-4.609375 0-8.355469-3.75-8.355469-8.355469 0-4.609375 3.746094-8.355468 8.355469-8.355468zm0 0" fill="#0053bf"/><path d="m365.398438 166.65625c12.511718 0 22.695312-10.179688 22.695312-22.695312 0-12.515626-10.183594-22.695313-22.695312-22.695313-10.011719 0-18.519532 6.515625-21.53125 15.527344h-19.820313v14.339843h19.820313c3.011718 9.011719 11.519531 15.523438 21.53125 15.523438zm0-31.050781c4.605468 0 8.355468 3.75 8.355468 8.355469 0 4.609374-3.75 8.355468-8.355468 8.355468-4.609376 0-8.355469-3.746094-8.355469-8.355468 0-4.605469 3.746093-8.355469 8.355469-8.355469zm0 0" fill="#0053bf"/><path d="m398.488281 207.785156c-3.667969 0-7.136719.882813-10.207031 2.433594l-12.945312-14.773438h-51.289063v14.339844h44.785156l9.320313 10.636719c-1.507813 3.035156-2.359375 6.449219-2.359375 10.058594 0 12.515625 10.183593 22.695312 22.695312 22.695312 12.515625 0 22.699219-10.179687 22.699219-22.695312s-10.183594-22.695313-22.699219-22.695313zm0 31.050782c-4.605469 0-8.351562-3.746094-8.351562-8.355469 0-4.605469 3.746093-8.355469 8.351562-8.355469 4.609375 0 8.355469 3.75 8.355469 8.355469 0 4.609375-3.746094 8.355469-8.355469 8.355469zm0 0" fill="#0053bf"/><path d="m256 392.089844c47.1875 0 85.441406-38.253906 85.441406-85.441406v-63.707032h-170.882812v63.707032c0 47.1875 38.253906 85.441406 85.441406 85.441406zm0 0" fill="#333940"/><path d="m255.808594 242.941406v149.144532c.066406 0 .128906.003906.191406.003906 47.1875 0 85.441406-38.253906 85.441406-85.441406v-63.707032zm0 0" fill="#23272b"/><path d="m256 379.257812c-41.398438 0-74.960938-33.5625-74.960938-74.964843v-173.167969c0-13.527344 10.964844-24.496094 24.492188-24.496094h100.9375c13.527344 0 24.492188 10.96875 24.492188 24.496094v173.167969c0 41.402343-33.5625 74.964843-74.960938 74.964843zm0 0" fill="#555a66"/><path d="m306.46875 106.628906h-50.660156v272.621094c.066406 0 .128906.007812.191406.007812 41.398438 0 74.960938-33.5625 74.960938-74.964843v-173.167969c0-13.527344-10.964844-24.496094-24.492188-24.496094zm0 0" fill="#333940"/><path d="m199.136719 129.296875h113.726562v77.171875h-113.726562zm0 0" fill="#7e8596"/><path d="m255.808594 129.296875h57.054687v77.171875h-57.054687zm0 0" fill="#707789"/><path d="m223.761719 237.691406c0 6.871094-5.570313 12.441406-12.441407 12.441406-6.867187 0-12.4375-5.570312-12.4375-12.441406s5.570313-12.4375 12.4375-12.4375c6.871094 0 12.441407 5.566406 12.441407 12.4375zm0 0" fill="#7e8596"/><path d="m313.117188 237.691406c0 6.871094-5.570313 12.441406-12.4375 12.441406-6.871094 0-12.441407-5.570312-12.441407-12.441406s5.570313-12.4375 12.441407-12.4375c6.867187 0 12.4375 5.566406 12.4375 12.4375zm0 0" fill="#707789"/><path d="m268.691406 237.691406c0 6.871094-5.566406 12.441406-12.4375 12.441406s-12.4375-5.570312-12.4375-12.441406 5.566406-12.4375 12.4375-12.4375 12.4375 5.566406 12.4375 12.4375zm0 0" fill="#7e8596"/><path d="m256.253906 225.253906c-.148437 0-.296875.015625-.445312.019532v24.835937c.152344.003906.296875.019531.445312.019531 6.871094 0 12.4375-5.566406 12.4375-12.4375s-5.566406-12.4375-12.4375-12.4375zm0 0" fill="#707789"/><path d="m223.761719 274.753906c0 6.871094-5.570313 12.441406-12.441407 12.441406-6.867187 0-12.4375-5.570312-12.4375-12.441406 0-6.867187 5.570313-12.4375 12.4375-12.4375 6.871094 0 12.441407 5.570313 12.441407 12.4375zm0 0" fill="#7e8596"/><path d="m313.117188 274.753906c0 6.871094-5.570313 12.441406-12.4375 12.441406-6.871094 0-12.441407-5.570312-12.441407-12.441406 0-6.867187 5.570313-12.4375 12.441407-12.4375 6.867187 0 12.4375 5.570313 12.4375 12.4375zm0 0" fill="#707789"/><path d="m268.691406 274.753906c0 6.871094-5.566406 12.441406-12.4375 12.441406s-12.4375-5.570312-12.4375-12.441406c0-6.867187 5.566406-12.4375 12.4375-12.4375s12.4375 5.570313 12.4375 12.4375zm0 0" fill="#7e8596"/><path d="m256.253906 262.316406c-.148437 0-.296875.015625-.445312.023438v24.832031c.152344.003906.296875.019531.445312.019531 6.871094 0 12.4375-5.566406 12.4375-12.4375s-5.566406-12.4375-12.4375-12.4375zm0 0" fill="#707789"/><path d="m223.761719 311.816406c0 6.871094-5.570313 12.441406-12.441407 12.441406-6.867187 0-12.4375-5.570312-12.4375-12.441406 0-6.867187 5.570313-12.4375 12.4375-12.4375 6.871094 0 12.441407 5.570313 12.441407 12.4375zm0 0" fill="#7e8596"/><path d="m313.117188 311.816406c0 6.871094-5.570313 12.441406-12.4375 12.441406-6.871094 0-12.441407-5.570312-12.441407-12.441406 0-6.867187 5.570313-12.4375 12.441407-12.4375 6.867187 0 12.4375 5.570313 12.4375 12.4375zm0 0" fill="#707789"/><path d="m268.691406 311.816406c0 6.871094-5.566406 12.441406-12.4375 12.441406s-12.4375-5.570312-12.4375-12.441406c0-6.867187 5.566406-12.4375 12.4375-12.4375s12.4375 5.570313 12.4375 12.4375zm0 0" fill="#7e8596"/><path d="m256.253906 299.378906c-.148437 0-.296875.015625-.445312.023438v24.832031c.152344.003906.296875.023437.445312.023437 6.871094 0 12.4375-5.570312 12.4375-12.441406 0-6.867187-5.566406-12.4375-12.4375-12.4375zm0 0" fill="#707789"/><path d="m279.355469 67.355469h28.429687v47.726562h-28.429687zm0 0" fill="#333940"/></svg>