<svg height="512pt" viewBox="0 0 512 512" width="512pt" xmlns="http://www.w3.org/2000/svg"><path d="m512 256c0 141.386719-114.613281 256-256 256s-256-114.613281-256-256 114.613281-256 256-256 256 114.613281 256 256zm0 0" fill="#555a66"/><path d="m511.941406 260.582031c-1.4375-1.921875-3.078125-4.011719-4.964844-6.289062l-69.367187-79.871094-211.800781-70.304687-133.535156 98.023437 90.761718 90.097656-70.832031 103.199219 121.285156 115.566406c7.417969.644532 14.921875.996094 22.511719.996094 139.851562 0 253.496094-112.148438 255.941406-251.417969zm0 0" fill="#333940"/><path d="m399.796875 395.4375h-287.59375v-216.46875l143.605469-92.777344 143.988281 92.777344zm0 0" fill="#53edf5"/><path d="m399.796875 178.96875-143.988281-92.777344v309.246094h143.988281zm0 0" fill="#42cbea"/><path d="m419.726562 202.140625-163.917968-105.636719-163.535156 105.636719-17.882813-27.71875 181.417969-117.175781 181.800781 117.175781zm0 0" fill="#fff"/><path d="m255.808594 57.246094v39.382812-.125l163.917968 105.636719 17.882813-27.71875zm0 0" fill="#e9edf5"/><g fill="#4a7aff"><path d="m238.996094 168.242188c0-12.511719-10.179688-22.695313-22.695313-22.695313s-22.695312 10.183594-22.695312 22.695313c0 9.96875 6.460937 18.449218 15.410156 21.492187v55.605469h14.34375v-55.527344c9.066406-2.976562 15.636719-11.519531 15.636719-21.570312zm-31.050782 0c0-4.605469 3.746094-8.351563 8.355469-8.351563 4.605469 0 8.351563 3.746094 8.351563 8.351563 0 4.609374-3.746094 8.355468-8.351563 8.355468-4.609375 0-8.355469-3.746094-8.355469-8.355468zm0 0"/><path d="m204.890625 203.992188c0-12.515626-10.179687-22.695313-22.695313-22.695313-12.515624 0-22.695312 10.179687-22.695312 22.695313 0 10.007812 6.515625 18.519531 15.527344 21.527343v19.820313h14.339844v-19.820313c9.011718-3.007812 15.523437-11.519531 15.523437-21.527343zm-31.050781 0c0-4.609376 3.75-8.355469 8.355468-8.355469 4.609376 0 8.355469 3.746093 8.355469 8.355469 0 4.605468-3.746093 8.355468-8.355469 8.355468-4.605468 0-8.355468-3.75-8.355468-8.355468zm0 0"/><path d="m246.019531 170.898438c0 3.671874.882813 7.136718 2.433594 10.207031l-14.773437 12.949219v51.285156h14.339843v-44.785156l10.636719-9.320313c3.035156 1.507813 6.449219 2.359375 10.058594 2.359375 12.515625 0 22.695312-10.179688 22.695312-22.695312 0-12.515626-10.179687-22.695313-22.695312-22.695313-12.515625-.003906-22.695313 10.179687-22.695313 22.695313zm31.050781 0c0 4.605468-3.75 8.355468-8.355468 8.355468-4.605469 0-8.355469-3.75-8.355469-8.355468 0-4.609376 3.75-8.355469 8.355469-8.355469 4.605468 0 8.355468 3.746093 8.355468 8.355469zm0 0"/></g><path d="m268.714844 148.199219c-4.792969 0-9.238282 1.5-12.90625 4.042969v41.488281l2.847656-2.496094c3.035156 1.507813 6.449219 2.359375 10.058594 2.359375 12.515625 0 22.695312-10.183594 22.695312-22.695312 0-12.515626-10.179687-22.699219-22.695312-22.699219zm0 31.054687c-4.605469 0-8.355469-3.75-8.355469-8.355468 0-4.609376 3.75-8.355469 8.355469-8.355469 4.605468 0 8.355468 3.746093 8.355468 8.355469 0 4.605468-3.75 8.355468-8.355468 8.355468zm0 0" fill="#0053bf"/><path d="m289.292969 363.132812c0 12.515626 10.179687 22.695313 22.695312 22.695313s22.695313-10.179687 22.695313-22.695313c0-9.964843-6.460938-18.445312-15.410156-21.488281v-55.609375h-14.34375v55.53125c-9.066407 2.976563-15.636719 11.515625-15.636719 21.566406zm31.050781 0c0 4.609376-3.746094 8.355469-8.355469 8.355469-4.605469 0-8.351562-3.746093-8.351562-8.355469 0-4.605468 3.746093-8.355468 8.351562-8.355468 4.609375 0 8.355469 3.75 8.355469 8.355468zm0 0" fill="#0053bf"/><path d="m323.398438 327.386719c0 12.515625 10.179687 22.695312 22.695312 22.695312s22.695312-10.179687 22.695312-22.695312c0-10.007813-6.515624-18.519531-15.527343-21.527344v-19.824219h-14.339844v19.824219c-9.011719 3.007813-15.523437 11.519531-15.523437 21.527344zm31.050781 0c0 4.605469-3.75 8.355469-8.355469 8.355469-4.609375 0-8.355469-3.75-8.355469-8.355469s3.746094-8.355469 8.355469-8.355469c4.605469 0 8.355469 3.75 8.355469 8.355469zm0 0" fill="#0053bf"/><path d="m282.269531 360.480469c0-3.671875-.882812-7.136719-2.433593-10.210938l14.773437-12.945312v-51.289063h-14.339844v44.785156l-10.636719 9.320313c-3.035156-1.503906-6.449218-2.355469-10.058593-2.355469-12.515625 0-22.695313 10.179688-22.695313 22.695313s10.179688 22.695312 22.695313 22.695312 22.695312-10.179687 22.695312-22.695312zm-31.050781 0c0-4.609375 3.75-8.355469 8.355469-8.355469s8.355469 3.746094 8.355469 8.355469c0 4.605469-3.75 8.355469-8.355469 8.355469s-8.355469-3.75-8.355469-8.355469zm0 0" fill="#4a7aff"/><path d="m294.609375 286.035156h-14.339844v44.785156l-10.636719 9.320313c-3.035156-1.503906-6.449218-2.355469-10.058593-2.355469-1.28125 0-2.539063.109375-3.765625.316406v14.929688c1.132812-.574219 2.410156-.90625 3.765625-.90625 4.609375 0 8.355469 3.75 8.355469 8.355469s-3.746094 8.355469-8.355469 8.355469c-1.355469 0-2.632813-.332032-3.765625-.90625v14.929687c1.226562.207031 2.484375.316406 3.765625.316406 12.515625 0 22.695312-10.179687 22.695312-22.695312 0-3.671875-.878906-7.136719-2.433593-10.207031l14.777343-12.949219v-51.289063zm0 0" fill="#0053bf"/><path d="m334.488281 303.617188h-156.976562c-19.859375 0-35.960938-16.097657-35.960938-35.960938 0-19.859375 16.101563-35.960938 35.960938-35.960938h156.976562c19.859375 0 35.960938 16.101563 35.960938 35.960938 0 19.863281-16.101563 35.960938-35.960938 35.960938zm0 0" fill="#4a7aff"/><path d="m334.488281 231.695312h-78.679687v71.921876h78.679687c19.859375 0 35.960938-16.097657 35.960938-35.960938 0-19.859375-16.101563-35.960938-35.960938-35.960938zm0 0" fill="#0053bf"/><path d="m207.5 267.65625c0 13.257812-10.746094 24-24 24s-24-10.742188-24-24c0-13.253906 10.746094-24 24-24s24 10.746094 24 24zm0 0" fill="#ffe000"/><path d="m280 267.65625c0 13.257812-10.746094 24-24 24s-24-10.742188-24-24c0-13.253906 10.746094-24 24-24s24 10.746094 24 24zm0 0" fill="#ffe000"/><path d="m256 243.65625c-.0625 0-.128906.003906-.191406.007812v47.988282c.066406 0 .128906.003906.191406.003906 13.253906 0 24-10.742188 24-24 0-13.253906-10.746094-24-24-24zm0 0" fill="#ffc200"/><path d="m350.832031 267.65625c0 13.257812-10.746093 24-24 24-13.253906 0-24-10.742188-24-24 0-13.253906 10.746094-24 24-24 13.253907 0 24 10.746094 24 24zm0 0" fill="#ffc200"/></svg>