<svg height="512pt" viewBox="0 0 512 512" width="512pt" xmlns="http://www.w3.org/2000/svg"><path d="m512 256c0 141.386719-114.613281 256-256 256s-256-114.613281-256-256 114.613281-256 256-256 256 114.613281 256 256zm0 0" fill="#53edf5"/><path d="m511.824219 265.0625-85.300781-85.300781-3.90625 4.753906-67.503907-69.929687-56.785156-20.085938-100.328125 3.5-26.742188 30.957031 157.367188 157.367188-243.789062 45.320312 31.296874 31.296875-6.632812 3.058594 145.992188 145.992188c.167968 0 .335937.007812.507812.007812 138.351562 0 251.046875-109.753906 255.824219-246.9375zm0 0" fill="#42cbea"/><path d="m109.5 325h293v41h-293zm0 0" fill="#333940"/><path d="m255.808594 325h146.691406v41h-146.691406zm0 0" fill="#333940"/><path d="m406.1875 339.996094h-300.375c-16.875 0-30.554688-13.679688-30.554688-30.550782v-106.890624c0-16.871094 13.679688-30.550782 30.554688-30.550782h300.375c16.875 0 30.554688 13.679688 30.554688 30.550782v106.886718c0 16.875-13.679688 30.554688-30.554688 30.554688zm0 0" fill="#555a66"/><path d="m406.1875 172.003906h-150.378906v167.992188h150.378906c16.875 0 30.554688-13.679688 30.554688-30.554688v-106.882812c0-16.875-13.679688-30.554688-30.554688-30.554688zm0 0" fill="#333940"/><path d="m222.5 256c0 33.136719-26.863281 60-60 60s-60-26.863281-60-60 26.863281-60 60-60 60 26.863281 60 60zm0 0" fill="#707789"/><path d="m198 256c0 19.605469-15.894531 35.5-35.5 35.5s-35.5-15.894531-35.5-35.5 15.894531-35.5 35.5-35.5 35.5 15.894531 35.5 35.5zm0 0" fill="#636978"/><path d="m409.5 256c0 33.136719-26.863281 60-60 60s-60-26.863281-60-60 26.863281-60 60-60 60 26.863281 60 60zm0 0" fill="#636978"/><path d="m385 256c0 19.605469-15.894531 35.5-35.5 35.5s-35.5-15.894531-35.5-35.5 15.894531-35.5 35.5-35.5 35.5 15.894531 35.5 35.5zm0 0" fill="#555a66"/><path d="m178.097656 135.800781-21.214844-21.214843c26.476563-26.476563 61.675782-41.054688 99.117188-41.054688s72.640625 14.578125 99.113281 41.054688l-21.210937 21.214843c-20.808594-20.8125-48.476563-32.269531-77.902344-32.269531s-57.09375 11.457031-77.902344 32.269531zm0 0" fill="#2864f0"/><path d="m208.527344 166.230469-21.210938-21.214844c18.34375-18.34375 42.738282-28.449219 68.683594-28.449219s50.339844 10.105469 68.683594 28.449219l-21.210938 21.214844c-12.679687-12.679688-29.539062-19.664063-47.472656-19.664063s-34.792969 6.984375-47.472656 19.664063zm0 0" fill="#2864f0"/><g fill="#0053bf"><path d="m355.113281 114.585938c-26.234375-26.238282-61.046875-40.785157-98.113281-41.042969v30c29.054688.257812 56.328125 11.683593 76.902344 32.257812zm0 0"/><path d="m324.683594 145.015625c-18.109375-18.109375-42.113282-28.179687-67.683594-28.4375v30.011719c17.558594.257812 34.027344 7.195312 46.472656 19.640625zm0 0"/></g></svg>