<svg height="512pt" viewBox="0 0 512 512" width="512pt" xmlns="http://www.w3.org/2000/svg"><path d="m512 256c0 141.386719-114.613281 256-256 256s-256-114.613281-256-256 114.613281-256 256-256 256 114.613281 256 256zm0 0" fill="#ffe000"/><path d="m512 256c0-1.523438-.03125-3.039062-.058594-4.558594l-89.441406-89.441406-4.371094 3.367188-63.011718-70.25-130.09375-25.523438-47.023438 25.074219.097656 21.664062 80.234375 80.234375-168.832031 17.433594 78.214844 78.214844-58.714844 107.785156 109.21875 109.21875c12.332031 1.824219 24.945312 2.78125 37.78125 2.78125 141.386719 0 256-114.613281 256-256zm0 0" fill="#ffc200"/><path d="m109 191h295v209h-295zm0 0" fill="#ff583e"/><path d="m255.808594 191h148.191406v209h-148.191406zm0 0" fill="#e81d13"/><path d="m89.5 162h333v52h-333zm0 0" fill="#db0404"/><path d="m255.808594 162h166.691406v52h-166.691406zm0 0" fill="#c10000"/><path d="m331 400h-150v-75c0-41.421875 33.578125-75 75-75s75 33.578125 75 75zm0 0" fill="#db0404"/><path d="m331 325c0-41.421875-33.578125-75-75-75-.0625 0-.128906.003906-.191406.003906v149.996094h75.191406zm0 0" fill="#c10000"/><path d="m199.605469 359.113281c0-14.039062 25.417969-50.839843 25.417969-50.839843s25.421874 36.800781 25.421874 50.839843c0 14.039063-11.382812 25.421875-25.421874 25.421875-14.039063 0-25.417969-11.382812-25.417969-25.421875zm0 0" fill="#ffe000"/><path d="m257.105469 359.113281c0-14.039062 25.421875-50.839843 25.421875-50.839843s25.417968 36.800781 25.417968 50.839843c0 14.039063-11.378906 25.421875-25.417968 25.421875-14.039063 0-25.421875-11.382812-25.421875-25.421875zm0 0" fill="#ffc200"/><path d="m226.132812 354.855469c0-16.390625 29.675782-59.355469 29.675782-59.355469s29.679687 42.964844 29.679687 59.355469-13.289062 29.679687-29.679687 29.679687-29.675782-13.289062-29.675782-29.679687zm0 0" fill="#ff583e"/><path d="m255.808594 295.5s-.007813.011719-.015625.027344v89.007812h.015625c16.390625 0 29.679687-13.289062 29.679687-29.679687s-29.679687-59.355469-29.679687-59.355469zm0 0" fill="#e81d13"/><path d="m235.875 361.488281c0-11.007812 19.933594-39.871093 19.933594-39.871093s19.933594 28.863281 19.933594 39.871093c0 11.011719-8.921876 19.9375-19.933594 19.9375-11.007813 0-19.933594-8.925781-19.933594-19.9375zm0 0" fill="#fff04a"/><path d="m255.808594 321.617188s-.011719.023437-.015625.027343v59.78125h.015625c11.011718 0 19.9375-8.925781 19.9375-19.9375 0-11.007812-19.9375-39.871093-19.9375-39.871093zm0 0" fill="#ffe733"/><path d="m333.902344 116.332031c-20.808594-20.808593-48.472656-32.269531-77.902344-32.269531s-57.09375 11.460938-77.902344 32.269531l-21.210937-21.214843c26.472656-26.472657 61.671875-41.054688 99.113281-41.054688s72.640625 14.582031 99.113281 41.054688zm0 0" fill="#414952"/><path d="m303.472656 146.761719c-12.679687-12.679688-29.539062-19.664063-47.472656-19.664063s-34.792969 6.984375-47.472656 19.664063l-21.210938-21.210938c18.34375-18.347656 42.738282-28.453125 68.683594-28.453125s50.339844 10.105469 68.683594 28.453125zm0 0" fill="#414952"/><g fill="#333940"><path d="m256 54.0625c-.109375 0-.222656.003906-.332031.003906v30c.109375 0 .222656-.003906.332031-.003906 29.429688 0 57.09375 11.460938 77.902344 32.269531l21.210937-21.214843c-26.472656-26.472657-61.671875-41.054688-99.113281-41.054688zm0 0"/><path d="m256 97.097656c-.109375 0-.222656.003906-.332031.003906v30.003907c.109375 0 .222656-.007813.332031-.007813 17.933594 0 34.792969 6.984375 47.472656 19.664063l21.210938-21.210938c-18.34375-18.347656-42.738282-28.453125-68.683594-28.453125zm0 0"/></g></svg>