<svg height="512pt" viewBox="0 0 512 512" width="512pt" xmlns="http://www.w3.org/2000/svg"><path d="m512 256c0 141.386719-114.613281 256-256 256s-256-114.613281-256-256 114.613281-256 256-256 256 114.613281 256 256zm0 0" fill="#ffe000"/><path d="m512 256c0-6.832031-.273438-13.601562-.800781-20.300781l-94.269531-94.265625-318.808594 233.632812 135.992187 135.992188c7.21875.613281 14.511719.941406 21.886719.941406 141.386719 0 256-114.613281 256-256zm0 0" fill="#ffc200"/><path d="m396.515625 383h-281.03125c-12.695313 0-22.984375-10.289062-22.984375-22.984375v-208.03125c0-12.695313 10.289062-22.984375 22.984375-22.984375h281.027344c12.695312 0 22.988281 10.289062 22.988281 22.984375v208.027344c0 12.699219-10.289062 22.988281-22.984375 22.988281zm0 0" fill="#555a66"/><path d="m396.515625 129h-141.300781v254h141.296875c12.695312 0 22.988281-10.289062 22.988281-22.984375v-208.03125c0-12.695313-10.289062-22.984375-22.984375-22.984375zm0 0" fill="#333940"/><path d="m109.5 145h293v222h-293zm0 0" fill="#53edf5"/><path d="m255.214844 145h147.285156v222h-147.285156zm0 0" fill="#42cbea"/><path d="m247.242188 315.988281h-112.230469v-84.476562l55.988281-36.207031 56.242188 36.207031zm0 0" fill="#0053bf"/><path d="m247.242188 231.511719-56.242188-36.207031v120.683593h56.242188zm0 0" fill="#27488f"/><path d="m255.019531 240.554688-64.019531-41.222657-63.769531 41.222657-6.976563-10.816407 70.746094-45.726562 71 45.726562zm0 0" fill="#4a7aff"/><path d="m191 184.011719v15.402343-.082031l64.019531 41.222657 6.980469-10.816407zm0 0" fill="#0053bf"/><g fill="#707789"><path d="m280.332031 190.332031h102v18.972657h-102zm0 0"/><path d="m280.332031 226.28125h102v18.972656h-102zm0 0"/><path d="m280.332031 262.234375h102v18.96875h-102zm0 0"/><path d="m280.332031 298.183594h102v18.972656h-102zm0 0"/></g><path d="m330.214844 190.332031h52.117187v18.972657h-52.117187zm0 0" fill="#636978"/><path d="m330.214844 226.28125h52.117187v18.972656h-52.117187zm0 0" fill="#636978"/><path d="m330.214844 262.234375h52.117187v18.96875h-52.117187zm0 0" fill="#636978"/><path d="m330.214844 298.183594h52.117187v18.972656h-52.117187zm0 0" fill="#636978"/></svg>