<svg height="512pt" viewBox="0 0 512 512" width="512pt" xmlns="http://www.w3.org/2000/svg"><path d="m512 256c0 141.386719-114.613281 256-256 256s-256-114.613281-256-256 114.613281-256 256-256 256 114.613281 256 256zm0 0" fill="#555a66"/><path d="m512 256c0-1.835938-.03125-3.664062-.070312-5.492188l-156.816407-163.722656-133.574219-35.082031-50.539062 34.046875 4.382812 19.535156 97.527344 97.527344-152.929687 218.761719 85.414062 85.414062c16.359375 3.28125 33.28125 5.011719 50.605469 5.011719 141.386719 0 256-114.613281 256-256zm0 0" fill="#333940"/><path d="m119.980469 149.535156h272.039062v272.039063h-272.039062zm0 0" fill="#fff"/><path d="m255.808594 149.535156h136.210937v272.039063h-136.210937zm0 0" fill="#e9edf5"/><path d="m162.183594 191.738281h187.632812v187.632813h-187.632812zm0 0" fill="#cdd2e1"/><path d="m255.808594 191.738281h94.007812v187.632813h-94.007812zm0 0" fill="#bec3d2"/><path d="m329.476562 357.296875h-146.953124l-20.339844-165.558594h187.632812zm0 0" fill="#e9edf5"/><path d="m349.816406 191.738281h-94.007812v165.558594h73.667968zm0 0" fill="#dce1eb"/><path d="m162.183594 379.375 20.339844-22.078125h146.953124l20.339844 22.078125zm0 0" fill="#afb4c8"/><path d="m329.476562 357.296875h-73.667968v22.078125h94.007812zm0 0" fill="#9196aa"/><path d="m119.980469 149.535156 42.203125 42.203125v187.636719l-42.203125 42.199219zm0 0" fill="#e9edf5"/><path d="m392.019531 421.574219-42.203125-42.199219v-187.636719l42.203125-42.203125zm0 0" fill="#e9edf5"/><path d="m333.902344 107.996094c-20.808594-20.804688-48.472656-32.265625-77.902344-32.265625s-57.09375 11.457031-77.902344 32.265625l-21.210937-21.210938c26.472656-26.476562 61.671875-41.054687 99.113281-41.054687s72.640625 14.578125 99.113281 41.054687zm0 0" fill="#53edf5"/><path d="m303.472656 138.429688c-12.679687-12.679688-29.539062-19.664063-47.472656-19.664063s-34.792969 6.984375-47.472656 19.664063l-21.210938-21.214844c18.34375-18.347656 42.738282-28.449219 68.683594-28.449219s50.339844 10.105469 68.683594 28.449219zm0 0" fill="#53edf5"/><g fill="#40deed"><path d="m256 45.730469c-.109375 0-.222656.003906-.332031.003906v30c.109375 0 .222656-.003906.332031-.003906 29.429688 0 57.09375 11.457031 77.902344 32.265625l21.210937-21.210938c-26.472656-26.472656-61.671875-41.054687-99.113281-41.054687zm0 0"/><path d="m256 88.765625c-.109375 0-.222656.003906-.332031.003906v30.003907c.109375 0 .222656-.007813.332031-.007813 17.933594 0 34.792969 6.984375 47.472656 19.664063l21.210938-21.214844c-18.34375-18.34375-42.738282-28.449219-68.683594-28.449219zm0 0"/></g></svg>