<svg height="512pt" viewBox="0 0 512 512" width="512pt" xmlns="http://www.w3.org/2000/svg"><path d="m512 256c0 141.386719-114.613281 256-256 256s-256-114.613281-256-256 114.613281-256 256-256 256 114.613281 256 256zm0 0" fill="#ff583e"/><path d="m512 256c0-10.832031-.679688-21.507812-1.984375-31.984375l-133.015625-133.015625-201.890625 140.25-49.917969-49.917969-24.320312 6.542969-8.21875 24.972656 21.90625 22.066406h-5.734375l-20.03125-20.195312-24.800781 6.445312-8.261719 24.609376 24.941406 24.941406-10.335937-.882813-10.335938 29.929688 105.84375 105.40625-30.84375 15.832031 89.015625 89.015625c10.476563 1.304687 21.152344 1.984375 31.984375 1.984375 141.386719 0 256-114.613281 256-256zm0 0" fill="#e81d13"/><g fill="#ffc200"><path d="m439.652344 253.03125c12.515625 0 22.699218-10.183594 22.699218-22.695312 0-12.515626-10.183593-22.699219-22.699218-22.699219-9.964844 0-18.445313 6.460937-21.488282 15.414062h-55.605468v14.339844h55.527344c2.976562 9.070313 11.515624 15.640625 21.566406 15.640625zm0-31.050781c4.609375 0 8.355468 3.746093 8.355468 8.355469 0 4.605468-3.746093 8.351562-8.355468 8.351562-4.605469 0-8.351563-3.746094-8.351563-8.351562 0-4.609376 3.746094-8.355469 8.351563-8.355469zm0 0"/><path d="m403.90625 218.925781c12.515625 0 22.695312-10.179687 22.695312-22.695312s-10.179687-22.695313-22.695312-22.695313c-10.007812 0-18.519531 6.515625-21.527344 15.527344h-19.820312v14.339844h19.820312c3.007813 9.007812 11.519532 15.523437 21.527344 15.523437zm0-31.050781c4.609375 0 8.355469 3.75 8.355469 8.355469 0 4.609375-3.746094 8.355469-8.355469 8.355469-4.605469 0-8.355469-3.746094-8.355469-8.355469 0-4.605469 3.75-8.355469 8.355469-8.355469zm0 0"/><path d="m437 260.054688c-3.671875 0-7.136719.882812-10.210938 2.433593l-12.945312-14.773437h-51.285156v14.339844h44.785156l9.316406 10.636718c-1.503906 3.035156-2.355468 6.449219-2.355468 10.058594 0 12.515625 10.179687 22.695312 22.695312 22.695312s22.695312-10.179687 22.695312-22.695312-10.179687-22.695312-22.695312-22.695312zm0 31.050781c-4.605469 0-8.355469-3.75-8.355469-8.355469s3.75-8.355469 8.355469-8.355469 8.355469 3.75 8.355469 8.355469-3.75 8.355469-8.355469 8.355469zm0 0"/></g><path d="m93.914062 237.390625h55.527344v-14.339844h-55.605468c-3.042969-8.953125-11.523438-15.414062-21.488282-15.414062-12.515625 0-22.699218 10.183593-22.699218 22.699219 0 12.511718 10.183593 22.695312 22.699218 22.695312 10.050782 0 18.589844-6.570312 21.566406-15.640625zm-13.214843-7.054687c0 4.605468-3.746094 8.351562-8.351563 8.351562-4.609375 0-8.355468-3.746094-8.355468-8.351562 0-4.609376 3.746093-8.355469 8.355468-8.355469 4.605469 0 8.351563 3.746093 8.351563 8.355469zm0 0" fill="#ffe000"/><path d="m129.621094 203.402344h19.820312v-14.339844h-19.820312c-3.007813-9.011719-11.519532-15.527344-21.527344-15.527344-12.515625 0-22.695312 10.179688-22.695312 22.695313s10.179687 22.695312 22.695312 22.695312c10.007812 0 18.519531-6.515625 21.527344-15.523437zm-13.171875-7.171875c0 4.609375-3.75 8.355469-8.355469 8.355469-4.609375 0-8.355469-3.746094-8.355469-8.355469 0-4.605469 3.746094-8.355469 8.355469-8.355469 4.605469 0 8.355469 3.75 8.355469 8.355469zm0 0" fill="#ffe000"/><path d="m52.304688 282.75c0 12.515625 10.179687 22.695312 22.695312 22.695312s22.695312-10.179687 22.695312-22.695312c0-3.613281-.851562-7.027344-2.355468-10.058594l9.316406-10.636718h44.785156v-14.339844h-51.285156l-12.945312 14.773437c-3.074219-1.554687-6.539063-2.433593-10.210938-2.433593-12.515625 0-22.695312 10.179687-22.695312 22.695312zm14.339843 0c0-4.609375 3.75-8.355469 8.355469-8.355469s8.355469 3.746094 8.355469 8.355469c0 4.605469-3.75 8.355469-8.355469 8.355469s-8.355469-3.75-8.355469-8.355469zm0 0" fill="#ffe000"/><path d="m135 91h242v330h-242zm0 0" fill="#fff"/><path d="m255.808594 91h121.191406v330h-121.191406zm0 0" fill="#e9edf5"/><path d="m170.558594 233h170.882812v156h-170.882812zm0 0" fill="#e9edf5"/><path d="m255.808594 233h85.632812v156h-85.632812zm0 0" fill="#dce1eb"/><path d="m242.5 308.75h27v61h-27zm0 0" fill="#555a66"/><path d="m255.808594 308.75h13.691406v61h-13.691406zm0 0" fill="#333940"/><path d="m202 252.25h27v61h-27zm0 0" fill="#555a66"/><path d="m283 252.25h27v61h-27zm0 0" fill="#333940"/><path d="m333.902344 178.132812c-42.957032-42.957031-112.847656-42.957031-155.804688 0l-21.214844-21.214843c54.652344-54.652344 143.582032-54.652344 198.230469 0zm0 0" fill="#2864f0"/><path d="m303.472656 208.5625c-26.175781-26.175781-68.769531-26.175781-94.945312 0l-21.210938-21.214844c37.871094-37.871094 99.496094-37.871094 137.367188 0zm0 0" fill="#2864f0"/><path d="m255.808594 115.929688v29.988281c28.277344-.050781 56.570312 10.6875 78.09375 32.214843l21.214844-21.214843c-27.375-27.375-63.347657-41.035157-99.308594-40.988281zm0 0" fill="#0053bf"/><path d="m255.808594 158.949219v29.984375c17.257812-.046875 34.527344 6.492187 47.664062 19.628906l21.214844-21.214844c-18.988281-18.984375-43.941406-28.449218-68.878906-28.398437zm0 0" fill="#0053bf"/></svg>