<svg height="512pt" viewBox="0 0 512 512" width="512pt" xmlns="http://www.w3.org/2000/svg"><path d="m512 256c0 141.386719-114.613281 256-256 256s-256-114.613281-256-256 114.613281-256 256-256 256 114.613281 256 256zm0 0" fill="#53edf5"/><path d="m512 256c0-1.699219-.03125-3.390625-.0625-5.078125l-148.027344-158.675781-143.21875-29.199219-51.386718 50.414063 54.957031 55.882812v50.390625l-76.300781 67.351563 56.808593 56.808593-12.03125 8.429688 83.765625 83.765625v75.09375c131.796875-10.445313 235.496094-120.699219 235.496094-255.183594zm0 0" fill="#42cbea"/><path d="m235.496094 511.183594c6.765625.535156 13.601562.816406 20.503906.816406s13.738281-.28125 20.503906-.816406v-181.289063h-41.007812zm0 0" fill="#333940"/><path d="m255.808594 329.894531v182.101563c.066406 0 .128906.003906.191406.003906 6.902344 0 13.738281-.28125 20.503906-.816406v-181.289063zm0 0" fill="#333940"/><path d="m256 378.410156c-49.574219 0-89.757812-40.183594-89.757812-89.757812v-53.78125h179.515624v53.78125c0 49.574218-40.183593 89.757812-89.757812 89.757812zm0 0" fill="#555a66"/><path d="m255.808594 234.875v143.535156h.191406c49.570312 0 89.757812-40.183594 89.757812-89.757812v-53.777344zm0 0" fill="#333940"/><path d="m207.921875 276.578125c-10.667969 0-19.320313-8.648437-19.320313-19.316406v-78.683594c0-10.671875 8.652344-19.320313 19.320313-19.320313s19.320313 8.648438 19.320313 19.320313v78.683594c-.003907 10.667969-8.652344 19.316406-19.320313 19.316406zm0 0" fill="#fff"/><path d="m304.078125 276.578125c-10.667969 0-19.320313-8.648437-19.320313-19.316406v-78.683594c0-10.671875 8.648438-19.320313 19.320313-19.320313 10.667969 0 19.316406 8.648438 19.316406 19.320313v78.683594c.003907 10.667969-8.648437 19.316406-19.316406 19.316406zm0 0" fill="#e9edf5"/><path d="m147.960938 234.875h216.078124v52.210938h-216.078124zm0 0" fill="#333940"/><path d="m255.808594 234.875h108.230468v52.210938h-108.230468zm0 0" fill="#333940"/><path d="m169.304688 113.460938-21.214844-21.214844c28.824218-28.824219 67.148437-44.699219 107.910156-44.699219s79.085938 15.875 107.910156 44.699219l-21.214844 21.214844c-47.804687-47.808594-125.585937-47.804688-173.390624 0zm0 0" fill="#2864f0"/><path d="m202.757812 146.914062-21.210937-21.214843c19.886719-19.886719 46.328125-30.839844 74.453125-30.839844s54.566406 10.953125 74.457031 30.839844l-21.214843 21.214843c-14.222657-14.222656-33.128907-22.054687-53.242188-22.054687s-39.019531 7.832031-53.242188 22.054687zm0 0" fill="#2864f0"/><g fill="#0053bf"><path d="m256 47.546875c-.109375 0-.222656.003906-.332031.003906v30.058594c31.507812-.085937 63.042969 11.863281 87.027343 35.851563l21.214844-21.214844c-28.824218-28.824219-67.148437-44.699219-107.910156-44.699219zm0 0"/><path d="m256 94.859375c-.109375 0-.222656.003906-.332031.003906v30.003907c.109375 0 .222656-.007813.332031-.007813 20.113281 0 39.019531 7.832031 53.242188 22.054687l21.214843-21.214843c-19.890625-19.886719-46.332031-30.839844-74.457031-30.839844zm0 0"/></g></svg>