<svg height="512pt" viewBox="0 0 512 512" width="512pt" xmlns="http://www.w3.org/2000/svg"><path d="m512 256c0 141.386719-114.613281 256-256 256s-256-114.613281-256-256 114.613281-256 256-256 256 114.613281 256 256zm0 0" fill="#ff583e"/><path d="m512 256c0-2.875-.066406-5.734375-.160156-8.585938l-70.828125-70.828124-1.175781 3.109374-23.863282-23.859374-62.769531 38.804687-112.105469-112.109375-19.535156-2.46875-16.453125 16.453125-15.195313-15.199219-27.664062 4.433594-6.777344 25.027344 18.710938 18.710937.585937 6.738281-18.328125-18.328124-38.816406 8.726562 54.882812 78.742188-77.90625 149.140624 157.441407 157.441407c1.320312.019531 2.632812.050781 3.957031.050781 141.386719 0 256-114.613281 256-256zm0 0" fill="#e81d13"/><path d="m432.085938 229.421875h-17.6875c-6.4375 0-11.65625-5.21875-11.65625-11.65625v-33.6875c0-6.4375 5.21875-11.65625 11.65625-11.65625h17.6875c6.4375 0 11.65625 5.21875 11.65625 11.65625v33.6875c0 6.4375-5.21875 11.65625-11.65625 11.65625zm0 0" fill="#bec3d2"/><path d="m194.769531 95.324219c0-12.515625-10.179687-22.695313-22.695312-22.695313s-22.695313 10.179688-22.695313 22.695313c0 9.96875 6.460938 18.449219 15.410156 21.492187v55.605469h14.34375v-55.53125c9.066407-2.976563 15.636719-11.515625 15.636719-21.566406zm-31.050781 0c0-4.605469 3.746094-8.355469 8.355469-8.355469 4.605469 0 8.355469 3.75 8.355469 8.355469 0 4.609375-3.75 8.355469-8.355469 8.355469-4.609375 0-8.355469-3.746094-8.355469-8.355469zm0 0" fill="#ffe000"/><path d="m160.664062 131.070312c0-12.511718-10.179687-22.695312-22.695312-22.695312s-22.695312 10.183594-22.695312 22.695312c0 10.011719 6.515624 18.523438 15.527343 21.53125v19.820313h14.339844v-19.820313c9.007813-3.007812 15.523437-11.519531 15.523437-21.53125zm-31.050781 0c0-4.605468 3.75-8.351562 8.355469-8.351562 4.609375 0 8.355469 3.746094 8.355469 8.351562 0 4.609376-3.746094 8.355469-8.355469 8.355469-4.605469 0-8.355469-3.746093-8.355469-8.355469zm0 0" fill="#ffe000"/><path d="m201.792969 97.980469c0 3.667969.882812 7.136719 2.433593 10.207031l-14.777343 12.949219v51.285156h14.34375v-44.785156l10.636719-9.320313c3.035156 1.507813 6.449218 2.359375 10.058593 2.359375 12.515625 0 22.695313-10.183593 22.695313-22.695312 0-12.515625-10.179688-22.699219-22.695313-22.699219s-22.695312 10.183594-22.695312 22.699219zm31.050781 0c0 4.605469-3.75 8.355469-8.355469 8.355469s-8.355469-3.75-8.355469-8.355469c0-4.609375 3.75-8.355469 8.355469-8.355469s8.355469 3.746094 8.355469 8.355469zm0 0" fill="#ffe000"/><path d="m314.414062 429.304688c0 12.515624 10.183594 22.695312 22.699219 22.695312s22.695313-10.179688 22.695313-22.695312c0-9.96875-6.460938-18.449219-15.414063-21.492188v-55.605469h-14.339843v55.53125c-9.070313 2.976563-15.640626 11.515625-15.640626 21.566407zm31.054688 0c0 4.605468-3.75 8.355468-8.355469 8.355468-4.609375 0-8.355469-3.75-8.355469-8.355468 0-4.609376 3.746094-8.355469 8.355469-8.355469 4.605469 0 8.355469 3.746093 8.355469 8.355469zm0 0" fill="#ffc200"/><path d="m348.519531 393.554688c0 12.515624 10.179688 22.699218 22.695313 22.699218s22.695312-10.183594 22.695312-22.699218c0-10.007813-6.515625-18.519532-15.523437-21.527344v-19.820313h-14.34375v19.820313c-9.007813 3.007812-15.523438 11.519531-15.523438 21.527344zm31.050781 0c0 4.609374-3.75 8.355468-8.355468 8.355468-4.605469 0-8.355469-3.746094-8.355469-8.355468 0-4.605469 3.75-8.355469 8.355469-8.355469 4.605468 0 8.355468 3.75 8.355468 8.355469zm0 0" fill="#ffc200"/><path d="m307.394531 426.648438c0-3.667969-.882812-7.136719-2.4375-10.207032l14.777344-12.949218v-51.285157h-14.339844v44.785157l-10.636719 9.320312c-3.035156-1.507812-6.449218-2.359375-10.058593-2.359375-12.515625 0-22.699219 10.183594-22.699219 22.695313 0 12.515624 10.183594 22.699218 22.699219 22.699218 12.511719 0 22.695312-10.183594 22.695312-22.699218zm-31.054687 0c0-4.605469 3.75-8.351563 8.355468-8.351563 4.609376 0 8.355469 3.746094 8.355469 8.351563 0 4.609374-3.746093 8.355468-8.355469 8.355468-4.605468 0-8.355468-3.746094-8.355468-8.355468zm0 0" fill="#ffc200"/><path d="m396.238281 364.746094h-280.476562c-14.914063 0-27.003907-12.089844-27.003907-27.003906v-163.484376c0-14.914062 12.089844-27 27.003907-27h280.476562c14.914063 0 27.003907 12.085938 27.003907 27v163.484376c0 14.914062-12.089844 27.003906-27.003907 27.003906zm0 0" fill="#fff"/><path d="m396.238281 147.253906h-140.429687v217.488282h140.429687c14.914063 0 27.003907-12.085938 27.003907-27v-163.484376c0-14.914062-12.089844-27.003906-27.003907-27.003906zm0 0" fill="#e9edf5"/><path d="m131.382812 343.132812c8.28125 0 15-6.714843 15-14.996093v-148.496094c0-8.28125-6.71875-14.996094-15-14.996094-8.285156 0-15 6.714844-15 14.996094v148.496094c0 8.28125 6.714844 14.996093 15 14.996093zm0 0" fill="#cdd2e1"/><path d="m181.230469 343.132812c8.28125 0 14.996093-6.714843 14.996093-14.996093v-148.496094c0-8.28125-6.714843-14.996094-14.996093-14.996094-8.285157 0-15 6.714844-15 14.996094v148.496094c0 8.28125 6.714843 14.996093 15 14.996093zm0 0" fill="#cdd2e1"/><path d="m231.074219 343.132812c8.285156 0 15-6.714843 15-14.996093v-148.496094c0-8.28125-6.714844-14.996094-15-14.996094-8.28125 0-14.996094 6.714844-14.996094 14.996094v148.496094c0 8.28125 6.714844 14.996093 14.996094 14.996093zm0 0" fill="#cdd2e1"/><g fill="#bec3d2"><path d="m280.925781 343.132812c8.28125 0 14.996094-6.714843 14.996094-14.996093v-148.496094c0-8.28125-6.714844-14.996094-14.996094-14.996094-8.285156 0-15 6.714844-15 14.996094v148.496094c0 8.28125 6.714844 14.996093 15 14.996093zm0 0"/><path d="m330.769531 343.132812c8.285157 0 15-6.714843 15-14.996093v-148.496094c0-8.28125-6.714843-14.996094-15-14.996094-8.28125 0-14.996093 6.714844-14.996093 14.996094v148.496094c0 8.28125 6.714843 14.996093 14.996093 14.996093zm0 0"/><path d="m380.617188 343.132812c8.285156 0 15-6.714843 15-14.996093v-148.496094c0-8.28125-6.714844-14.996094-15-14.996094-8.28125 0-15 6.714844-15 14.996094v148.496094c0 8.28125 6.71875 14.996093 15 14.996093zm0 0"/></g></svg>