<svg height="512pt" viewBox="0 0 512 512" width="512pt" xmlns="http://www.w3.org/2000/svg"><path d="m512 256c0 141.386719-114.613281 256-256 256s-256-114.613281-256-256 114.613281-256 256-256 256 114.613281 256 256zm0 0" fill="#555a66"/><path d="m230.808594 117.117188-134.90625 96.792968 92.132812 91.328125-72.644531 97.6875 109.035156 107.136719c10.347657 1.273438 20.882813 1.9375 31.574219 1.9375 137.679688 0 249.957031-108.691406 255.746094-244.945312l-78.160156-80.246094zm0 0" fill="#333940"/><path d="m396.613281 402.925781h-281.226562v-211.671875l140.613281-90.722656 140.613281 90.722656zm0 0" fill="#53edf5"/><path d="m255.808594 402.925781h140.804687v-211.671875l-140.613281-90.722656zm0 0" fill="#42cbea"/><path d="m416.097656 213.910156-160.097656-103.292968-160.097656 103.292968-17.488282-27.101562 177.585938-114.578125 177.585938 114.578125zm0 0" fill="#fff"/><path d="m256 110.617188 160.097656 103.292968 17.488282-27.101562-177.585938-114.578125zm0 0" fill="#e9edf5"/><path d="m197.300781 194.132812h117.394531v187.535157h-117.394531zm0 0" fill="#4a7aff"/><path d="m255.808594 194.132812h58.890625v187.535157h-58.890625zm0 0" fill="#0053bf"/><path d="m218 171.332031h76v22.800781h-76zm0 0" fill="#0053bf"/><path d="m255.808594 171.332031h38.191406v22.800781h-38.191406zm0 0" fill="#27488f"/><path d="m216 249.503906h80v109.277344h-80zm0 0" fill="#87c7ff"/><path d="m255.808594 249.503906h40.191406v109.277344h-40.191406zm0 0" fill="#65b1fc"/></svg>