<svg height="512pt" viewBox="0 0 512 512" width="512pt" xmlns="http://www.w3.org/2000/svg"><path d="m512 256c0 141.386719-114.613281 256-256 256s-256-114.613281-256-256 114.613281-256 256-256 256 114.613281 256 256zm0 0" fill="#555a66"/><path d="m512 256c0-17.878906-1.839844-35.328125-5.328125-52.175781l-99.398437-99.398438-303.992188 301.648438 100.613281 100.613281c16.824219 3.480469 34.25 5.3125 52.105469 5.3125 141.386719 0 256-114.613281 256-256zm0 0" fill="#333940"/><path d="m379.433594 419.023438h-246.867188c-21.867187 0-39.589844-17.722657-39.589844-39.589844v-246.867188c0-21.867187 17.722657-39.589844 39.589844-39.589844h246.867188c21.863281 0 39.589844 17.722657 39.589844 39.589844v246.867188c0 21.863281-17.726563 39.589844-39.589844 39.589844zm0 0" fill="#fff"/><path d="m379.433594 92.976562h-123.625v326.046876h123.625c21.867187 0 39.589844-17.722657 39.589844-39.589844v-246.867188c0-21.863281-17.726563-39.589844-39.589844-39.589844zm0 0" fill="#e9edf5"/><path d="m134.273438 134.273438h243.453124v243.453124h-243.453124zm0 0" fill="#4a7aff"/><path d="m255.808594 134.273438h121.917968v243.453124h-121.917968zm0 0" fill="#0053bf"/><path d="m255.289062 202.21875c0 25.835938-20.945312 46.78125-46.78125 46.78125-25.839843 0-46.785156-20.945312-46.785156-46.78125 0-25.839844 20.945313-46.785156 46.785156-46.785156 25.835938 0 46.78125 20.945312 46.78125 46.785156zm0 0" fill="#ffe000"/><path d="m310.644531 296.480469c21.433594 0 38.808594-17.375 38.808594-38.808594s-17.375-38.808594-38.808594-38.808594c-1.046875 0-2.085937.042969-3.113281.121094-4.039062-20.878906-22.414062-36.648437-44.476562-36.648437-17.183594 0-32.128907 9.5625-39.8125 23.65625-1.117188-.082032-2.25-.125-3.390626-.125-25.023437 0-45.304687 20.285156-45.304687 45.308593 0 25.019531 20.28125 45.304688 45.304687 45.304688zm0 0" fill="#fff"/><path d="m310.644531 218.859375c-1.046875 0-2.085937.042969-3.113281.125-4.039062-20.878906-22.414062-36.648437-44.476562-36.648437-2.46875 0-4.882813.21875-7.246094.597656v113.546875h54.835937c21.433594 0 38.808594-17.375 38.808594-38.808594s-17.375-38.8125-38.808594-38.8125zm0 0" fill="#e9edf5"/><path d="m208.71875 357h-39.71875c-7.546875 0-13.667969-6.117188-13.667969-13.667969 0-7.546875 6.121094-13.667969 13.667969-13.667969h39.71875c7.550781 0 13.667969 6.121094 13.667969 13.667969 0 7.550781-6.117188 13.667969-13.667969 13.667969zm0 0" fill="#ffe000"/><path d="m344.355469 357h-102.214844c-7.546875 0-13.667969-6.117188-13.667969-13.667969 0-7.546875 6.121094-13.667969 13.667969-13.667969h102.214844c7.546875 0 13.667969 6.121094 13.667969 13.667969 0 7.550781-6.121094 13.667969-13.667969 13.667969zm0 0" fill="#ffe000"/><path d="m344.355469 329.667969h-88.546875v27.332031h88.546875c7.546875 0 13.667969-6.117188 13.667969-13.667969 0-7.546875-6.121094-13.664062-13.667969-13.664062zm0 0" fill="#ffc200"/></svg>