<svg height="512pt" viewBox="0 0 512 512" width="512pt" xmlns="http://www.w3.org/2000/svg"><path d="m512 256c0 141.386719-114.613281 256-256 256s-256-114.613281-256-256 114.613281-256 256-256 256 114.613281 256 256zm0 0" fill="#555a66"/><path d="m512 256c0-10.171875-.613281-20.203125-1.765625-30.066406l-98.761719-98.757813-155.664062-64.84375-117.1875 40-70.90625 129.167969 45.375 167.125 111.449218 111.449219c10.3125 1.265625 20.808594 1.925781 31.460938 1.925781 141.386719 0 256-114.613281 256-256zm0 0" fill="#333940"/><path d="m256 54c-111.382812 0-202 90.617188-202 202s90.617188 202 202 202 202-90.617188 202-202-90.617188-202-202-202zm132.089844 313.582031-15.238282-15.238281-20.507812 20.507812 15.242188 15.238282c-26.683594 22.574218-60.261719 37.226562-97.085938 40.296875v-21.636719h-29v21.636719c-36.824219-3.070313-70.402344-17.722657-97.085938-40.296875l15.242188-15.242188-20.507812-20.503906-15.238282 15.238281c-22.574218-26.679687-37.226562-60.257812-40.296875-97.082031h21.636719v-29h-21.636719c3.070313-36.824219 17.722657-70.402344 40.296875-97.085938l15.242188 15.242188 20.503906-20.503906-15.242188-15.242188c26.683594-22.574218 60.261719-37.226562 97.085938-40.296875v21.636719h29v-21.636719c36.824219 3.070313 70.402344 17.722657 97.085938 40.296875l-15.242188 15.238282 20.507812 20.507812 15.238282-15.242188c22.574218 26.683594 37.226562 60.261719 40.296875 97.085938h-21.636719v29h21.636719c-3.070313 36.824219-17.722657 70.402344-40.296875 97.082031zm0 0" fill="#fff"/><path d="m256 54c-.0625 0-.128906.003906-.191406.003906v51.246094h14.691406v-21.636719c36.824219 3.070313 70.402344 17.722657 97.085938 40.296875l-15.242188 15.238282 20.507812 20.507812 15.238282-15.242188c22.574218 26.683594 37.226562 60.261719 40.296875 97.085938h-21.636719v29h21.636719c-3.070313 36.824219-17.722657 70.402344-40.296875 97.082031l-15.238282-15.238281-20.507812 20.503906 15.242188 15.242188c-26.683594 22.570312-60.261719 37.226562-97.085938 40.296875v-21.636719h-14.691406v51.246094c.066406 0 .128906.003906.191406.003906 111.382812 0 202-90.617188 202-202s-90.617188-202-202-202zm0 0" fill="#e9edf5"/><path d="m340.242188 199.457031 12.003906-39.710937-39.726563 11.996094c-38.171875-25.3125-90.121093-21.152344-123.757812 12.484374-38.386719 38.386719-38.386719 100.625 0 139.011719s100.625 38.386719 139.011719 0c33.644531-33.644531 37.796874-85.609375 12.46875-123.78125zm-124.929688 97.230469c-23.726562-23.722656-23.726562-62.1875 0-85.914062 23.722656-23.722657 62.1875-23.722657 85.910156 0 23.726563 23.726562 23.726563 62.191406 0 85.914062-23.722656 23.722656-62.1875 23.722656-85.910156 0zm0 0" fill="#ff583e"/><path d="m340.242188 199.457031 12.003906-39.710937-39.726563 11.996094c-17.101562-11.339844-36.964843-16.746094-56.710937-16.253907v37.550781c16.355468-.65625 32.925781 5.25 45.414062 17.734376 23.722656 23.726562 23.722656 62.191406 0 85.914062-12.488281 12.488281-29.058594 18.394531-45.414062 17.734375v37.546875c25.96875.644531 52.144531-8.914062 71.964844-28.730469 33.644531-33.644531 37.796874-85.609375 12.46875-123.78125zm0 0" fill="#e81d13"/></svg>