<svg height="512pt" viewBox="0 0 512 512" width="512pt" xmlns="http://www.w3.org/2000/svg"><path d="m512 256c0 141.386719-114.613281 256-256 256s-256-114.613281-256-256 114.613281-256 256-256 256 114.613281 256 256zm0 0" fill="#ffe000"/><path d="m512 256c0-16.535156-1.585938-32.695312-4.582031-48.359375l-80.289063-80.289063-341.148437 258.519532 121.515625 121.519531c15.707031 3.011719 31.917968 4.609375 48.503906 4.609375 141.386719 0 256-114.613281 256-256zm0 0" fill="#ffc200"/><path d="m408.117188 393.484375h-304.234376c-13.742187 0-24.882812-11.140625-24.882812-24.882813v-225.203124c0-13.742188 11.140625-24.882813 24.882812-24.882813h304.230469c13.746094 0 24.886719 11.140625 24.886719 24.882813v225.203124c0 13.742188-11.140625 24.882813-24.882812 24.882813zm0 0" fill="#555a66"/><path d="m408.117188 118.515625h-152.308594v274.972656h152.308594c13.742187 0 24.882812-11.140625 24.882812-24.886719v-225.203124c0-13.742188-11.140625-24.882813-24.882812-24.882813zm0 0" fill="#333940"/><path d="m97.402344 135.835938h317.195312v240.328124h-317.195312zm0 0" fill="#4a7aff"/><path d="m97.402344 135.835938h77.453125v240.328124h-77.453125zm0 0" fill="#4a7aff"/><path d="m255 228.246094h159.597656v147.917968h-159.597656zm0 0" fill="#27488f"/><path d="m255 135.835938h159.597656v147.917968h-159.597656zm0 0" fill="#0053bf"/><g fill="#fff"><path d="m335.691406 265.769531c-15.003906 0-30.003906-5.710937-41.425781-17.132812-22.84375-22.839844-22.84375-60.007813 0-82.851563l13.527344 13.527344c-15.382813 15.382812-15.382813 40.414062 0 55.796875 7.691406 7.691406 17.796875 11.539063 27.898437 11.539063 10.105469 0 20.203125-3.84375 27.898438-11.539063 15.382812-15.382813 15.382812-40.414063 0-55.796875l13.527344-13.527344c22.839843 22.84375 22.839843 60.007813 0 82.851563-11.421876 11.421875-26.425782 17.132812-41.425782 17.132812zm0 0"/><path d="m325.605469 151.015625h19.128906v63.375h-19.128906zm0 0"/><path d="m142.277344 294.675781c-9.757813 0-17.699219-7.941406-17.699219-17.695312 0-9.757813 7.941406-17.695313 17.699219-17.695313 9.757812 0 17.695312 7.9375 17.695312 17.695313 0 9.753906-7.9375 17.695312-17.695312 17.695312zm0-23.082031c-2.972656 0-5.386719 2.414062-5.386719 5.386719 0 2.96875 2.414063 5.382812 5.386719 5.382812 2.96875 0 5.382812-2.414062 5.382812-5.382812 0-2.972657-2.414062-5.386719-5.382812-5.386719zm0 0"/><path d="m187.625 357.476562c-9.460938 0-18.914062-3.597656-26.113281-10.796874-6.976563-6.976563-10.816407-16.25-10.816407-26.113282 0-9.863281 3.839844-19.136718 10.816407-26.113281 6.972656-6.976563 16.25-10.816406 26.113281-10.816406s19.136719 3.839843 26.113281 10.816406l-8.707031 8.703125c-4.648438-4.648438-10.832031-7.210938-17.40625-7.210938-6.578125 0-12.761719 2.5625-17.410156 7.210938-9.597656 9.601562-9.597656 25.21875 0 34.820312 9.597656 9.597657 25.21875 9.597657 34.816406 0l8.707031 8.703126c-7.199219 7.199218-16.660156 10.796874-26.113281 10.796874zm0 0"/></g><path d="m187.625 295.945312c6.574219 0 12.757812 2.5625 17.40625 7.210938l8.707031-8.703125c-6.976562-6.976563-16.25-10.816406-26.113281-10.816406-4.429688 0-8.734375.777343-12.769531 2.261719v13.609374c3.8125-2.320312 8.195312-3.5625 12.769531-3.5625zm0 0" fill="#e6e6e6"/><path d="m174.855469 341.585938v13.621093c4.113281 1.507813 8.441406 2.269531 12.769531 2.269531 9.453125 0 18.914062-3.597656 26.113281-10.796874l-8.707031-8.703126c-8.175781 8.171876-20.703125 9.359376-30.175781 3.609376zm0 0" fill="#e6e6e6"/><path d="m170.214844 337.976562c-9.597656-9.601562-9.597656-25.21875 0-34.820312 1.414062-1.414062 2.972656-2.632812 4.640625-3.648438v-13.609374c-4.953125 1.824218-9.5 4.710937-13.34375 8.554687-6.976563 6.976563-10.816407 16.25-10.816407 26.113281 0 9.863282 3.839844 19.136719 10.816407 26.113282 3.902343 3.90625 8.472656 6.742187 13.34375 8.527343v-13.617187c-1.648438-1.003906-3.214844-2.191406-4.640625-3.613282zm0 0" fill="#fff"/><path d="m403.949219 341.972656c0 13.222656-10.71875 23.945313-23.941407 23.945313-13.226562 0-23.945312-10.722657-23.945312-23.945313s23.945312-43.03125 23.945312-43.03125 23.941407 29.808594 23.941407 43.03125zm0 0" fill="#53edf5"/><path d="m269.351562 302.203125h68.5625v11.894531h-68.5625zm0 0" fill="#fff"/><path d="m269.351562 326.484375h68.5625v11.890625h-68.5625zm0 0" fill="#fff"/><path d="m231.359375 201.785156v-12.109375h-41.414063l12.230469-12.226562h22.304688v-12.105469h-18.75v-18.75h-12.109375v22.289062l-12.234375 12.234376v-41.414063h-12.109375v41.414063l-12.222656-12.226563v-22.304687h-12.109376v18.75h-18.75v12.105468h22.289063l12.234375 12.234375h-41.414062v12.109375h41.414062l-12.226562 12.226563h-22.304688v12.105469h18.75v18.75h12.105469v-22.289063l12.234375-12.234375v41.414062h12.109375v-41.414062l12.226562 12.226562v22.308594h12.105469v-18.753906h18.75v-12.105469h-22.285156l-12.238282-12.234375zm0 0" fill="#fff"/><path d="m169.277344 139.703125v41.414063l-12.222656-12.226563v-22.304687h-12.109376v18.75h-18.75v12.105468h22.289063l12.234375 12.234375h-41.414062v12.109375h41.414062l-12.226562 12.226563h-22.304688v12.105469h18.75v18.75h12.105469v-22.285157l12.234375-12.238281v41.414062h5.578125v-112.054687zm0 0" fill="#fff"/><path d="m231.359375 189.675781h-41.414063l12.230469-12.226562h22.304688v-12.105469h-18.75v-18.75h-12.109375v22.285156l-12.234375 12.238282v-41.414063h-6.53125v112.054687h6.53125v-41.414062l12.226562 12.226562v22.308594h12.105469v-18.753906h18.75v-12.105469h-22.285156l-12.238282-12.234375h41.414063zm0 0" fill="#e6e6e6"/></svg>