<svg height="512pt" viewBox="0 0 512 512" width="512pt" xmlns="http://www.w3.org/2000/svg"><path d="m512 256c0 141.386719-114.613281 256-256 256s-256-114.613281-256-256 114.613281-256 256-256 256 114.613281 256 256zm0 0" fill="#4a7aff"/><path d="m512 256c0-13.042969-.980469-25.855469-2.863281-38.371094l-99.152344-99.152344-305.65625 277.585938 113.035156 113.035156c12.601563 1.910156 25.503907 2.902344 38.636719 2.902344 141.386719 0 256-114.613281 256-256zm0 0" fill="#0053bf"/><path d="m371.699219 411.242188h-231.398438c-27.753906 0-50.25-22.5-50.25-50.25v-209.984376c0-27.75 22.496094-50.25 50.25-50.25h231.398438c27.753906 0 50.25 22.5 50.25 50.25v209.984376c0 27.753906-22.496094 50.25-50.25 50.25zm0 0" fill="#fff"/><path d="m371.699219 100.757812h-115.890625v310.484376h115.894531c27.75 0 50.25-22.5 50.25-50.25v-209.984376c-.003906-27.753906-22.5-50.25-50.253906-50.25zm0 0" fill="#e9edf5"/><path d="m181.230469 123.113281h149.539062v86.683594h-149.539062zm0 0" fill="#53edf5"/><path d="m255.808594 123.113281h74.960937v86.683594h-74.960937zm0 0" fill="#42cbea"/><path d="m205.5 131.5h13.5v68.5h-13.5zm0 0" fill="#25bbcc"/><path d="m239 131.5h13.5v68.5h-13.5zm0 0" fill="#25bbcc"/><path d="m268.5 131.5v68.5h47v-68.5zm13.5 55v-41.5h20v41.5zm0 0" fill="#40a9bf"/><path d="m178.097656 306.585938-21.214844-21.214844c26.476563-26.472656 61.675782-41.054688 99.117188-41.054688s72.640625 14.582032 99.113281 41.054688l-21.210937 21.214844c-20.808594-20.808594-48.476563-32.269532-77.902344-32.269532s-57.09375 11.460938-77.902344 32.269532zm0 0" fill="#2864f0"/><path d="m208.527344 337.015625-21.210938-21.210937c18.34375-18.347657 42.738282-28.453126 68.683594-28.453126s50.339844 10.105469 68.683594 28.453126l-21.210938 21.210937c-12.679687-12.679687-29.539062-19.664063-47.472656-19.664063s-34.792969 6.984376-47.472656 19.664063zm0 0" fill="#2864f0"/><g fill="#0053bf"><path d="m255.808594 244.320312v30c.066406 0 .128906-.003906.191406-.003906 29.429688 0 57.09375 11.460938 77.902344 32.269532l21.210937-21.214844c-26.472656-26.472656-61.671875-41.054688-99.113281-41.054688-.0625 0-.128906.003906-.191406.003906zm0 0"/><path d="m255.808594 287.355469v30c.066406 0 .128906-.003907.191406-.003907 17.933594 0 34.792969 6.984376 47.472656 19.664063l21.210938-21.210937c-18.34375-18.347657-42.738282-28.453126-68.683594-28.453126-.0625 0-.128906.003907-.191406.003907zm0 0"/></g></svg>