<svg height="512pt" viewBox="0 0 512 512" width="512pt" xmlns="http://www.w3.org/2000/svg"><path d="m512 256c0 141.386719-114.613281 256-256 256s-256-114.613281-256-256 114.613281-256 256-256 256 114.613281 256 256zm0 0" fill="#53edf5"/><path d="m512 256c0-11.878906-.828125-23.5625-2.394531-35.011719l-118.007813-118.007812-14.792968 114.792969-56.203126-58.382813-64.792968-25.058594-114.144532 4-22.292968 42.269531 130.628906 130.398438-190 44.792969 152.511719 152.511719c14.136719 2.417968 28.664062 3.695312 43.488281 3.695312 141.386719 0 256-114.613281 256-256zm0 0" fill="#42cbea"/><g fill="#7e8596"><path d="m82.667969 252.34375h42.289062v42.289062h-42.289062zm0 0"/><path d="m152.195312 252.34375h42.289063v42.289062h-42.289063zm0 0"/><path d="m221.722656 252.34375h42.289063v42.289062h-42.289063zm0 0"/></g><path d="m255.808594 252.34375h8.203125v42.289062h-8.203125zm0 0" fill="#707789"/><path d="m401.460938 317.46875h-40.679688l9.859375-214.488281h20.957031zm0 0" fill="#707789"/><path d="m60 260.511719h392v95.28125h-392zm0 0" fill="#555a66"/><path d="m60 260.511719h392v95.28125h-392zm0 0" fill="#555a66"/><path d="m255.808594 260.511719h196.191406v95.28125h-196.191406zm0 0" fill="#333940"/><path d="m92.050781 317.46875h39.230469v23.421875h-39.230469zm0 0" fill="#ffe000"/><path d="m203.636719 317.46875h39.230469v23.421875h-39.230469zm0 0" fill="#ffe000"/><path d="m147.84375 317.46875h39.230469v23.421875h-39.230469zm0 0" fill="#ffe000"/><path d="m305.710938 317.46875h39.230468v23.421875h-39.230468zm0 0" fill="#ffc200"/><path d="m361.503906 317.46875h39.230469v23.421875h-39.230469zm0 0" fill="#ffc200"/><path d="m299.390625 180.601562c-24.042969-24.042968-56.007813-37.28125-90.007813-37.28125-34.003906 0-65.96875 13.238282-90.011718 37.28125l-21.210938-21.210937c29.707032-29.710937 69.207032-46.070313 111.222656-46.070313 42.011719 0 81.511719 16.359376 111.21875 46.070313zm0 0" fill="#2864f0"/><path d="m264.796875 215.195312c-30.558594-30.554687-80.273437-30.554687-110.832031 0l-21.210938-21.214843c42.25-42.25 111.003906-42.25 153.253906 0zm0 0" fill="#2864f0"/><path d="m320.601562 159.390625c-29.640624-29.644531-69.027343-45.992187-110.933593-46.066406v30c33.894531.074219 65.746093 13.304687 89.722656 37.277343zm0 0" fill="#0053bf"/><path d="m286.007812 193.980469c-21.050781-21.050781-48.6875-31.613281-76.339843-31.683594v29.988281c19.972656.070313 39.921875 7.703125 55.128906 22.910156zm0 0" fill="#0053bf"/></svg>