<svg height="512pt" viewBox="0 0 512 512" width="512pt" xmlns="http://www.w3.org/2000/svg"><path d="m512 256c0 141.386719-114.613281 256-256 256s-256-114.613281-256-256 114.613281-256 256-256 256 114.613281 256 256zm0 0" fill="#555a66"/><path d="m261.925781 511.925781c138.644531-3.152343 250.074219-116.523437 250.074219-255.925781 0-5.773438-.210938-11.496094-.585938-17.171875l-86.910156-102.09375-69.003906-12.109375-41.5-38.625-143 335zm0 0" fill="#333940"/><path d="m171 86h143v335h-143zm0 0" fill="#fff"/><path d="m171 86h143v335h-143zm0 0" fill="#fff"/><g fill="#e9edf5"><path d="m240.929688 86h73.070312v335h-73.070312zm0 0"/><path d="m406.074219 262h-168.074219c-13.808594 0-25-11.191406-25-25s11.191406-25 25-25h168.074219c13.808593 0 25 11.191406 25 25s-11.191407 25-25 25zm0 0"/><path d="m406.074219 262h-168.074219c-13.808594 0-25-11.191406-25-25s11.191406-25 25-25h168.074219c13.808593 0 25 11.191406 25 25s-11.191407 25-25 25zm0 0"/></g><path d="m213.019531 236.261719c-.007812.246093-.019531.492187-.019531.738281 0 13.808594 11.191406 25 25 25h168.074219c13.808593 0 25-11.191406 25-25 0-.246094-.011719-.492188-.019531-.738281zm0 0" fill="#dce1eb"/><path d="m195.5 315h94v29h-94zm0 0" fill="#53edf5"/><path d="m240.929688 315h48.570312v29h-48.570312zm0 0" fill="#42cbea"/><path d="m403.289062 157.945312c-55.734374-55.734374-146.425781-55.734374-202.160156 0l-21.214844-21.210937c67.4375-67.433594 177.15625-67.433594 244.589844 0zm0 0" fill="#53edf5"/><path d="m364.890625 196.347656c-16.742187-16.742187-39.003906-25.964844-62.679687-25.964844-23.679688 0-45.9375 9.222657-62.683594 25.964844l-21.210938-21.214844c22.40625-22.40625 52.203125-34.75 83.894532-34.75 31.6875 0 61.484374 12.34375 83.894531 34.75zm0 0" fill="#53edf5"/><path d="m302 86.160156v29.988282c36.675781-.054688 73.371094 13.878906 101.289062 41.796874l21.214844-21.210937c-33.769531-33.769531-78.144531-50.625-122.503906-50.574219zm0 0" fill="#40deed"/><path d="m302.210938 140.382812c-.070313 0-.140626.003907-.210938.003907v30.003906c.070312 0 .140625-.007813.210938-.007813 23.675781 0 45.9375 9.222657 62.679687 25.964844l21.214844-21.214844c-22.410157-22.410156-52.207031-34.75-83.894531-34.75zm0 0" fill="#40deed"/></svg>