<svg height="512pt" viewBox="0 0 512 512" width="512pt" xmlns="http://www.w3.org/2000/svg"><path d="m512 256c0 141.386719-114.613281 256-256 256s-256-114.613281-256-256 114.613281-256 256-256 256 114.613281 256 256zm0 0" fill="#ffe000"/><path d="m511.648438 269.453125-166.839844-166.839844-224.429688 117.996094 132.789063 132.789063-87.167969 81.601562 76.65625 76.65625c4.417969.226562 8.867188.34375 13.34375.34375 136.871094 0 248.652344-107.414062 255.648438-242.546875zm0 0" fill="#ffc200"/><path d="m346 435h-180l-30-238h240zm0 0" fill="#636978"/><path d="m376 197h-120.191406v238h90.191406zm0 0" fill="#555a66"/><path d="m312.035156 435h-112.070312l-18.679688-238h149.429688zm0 0" fill="#707789"/><path d="m330.714844 197h-74.90625v238h56.226562zm0 0" fill="#636978"/><path d="m256 350.238281c-15.003906 0-30.003906-5.710937-41.425781-17.132812-22.839844-22.839844-22.839844-60.007813 0-82.847657l13.527343 13.523438c-15.382812 15.382812-15.382812 40.414062 0 55.796875 7.691407 7.691406 17.796876 11.539063 27.898438 11.539063 10.105469 0 20.207031-3.84375 27.898438-11.539063 15.382812-15.382813 15.382812-40.414063 0-55.796875l13.527343-13.527344c22.84375 22.84375 22.84375 60.007813 0 82.851563-11.421875 11.421875-26.421875 17.132812-41.425781 17.132812zm0 0" fill="#fff"/><path d="m297.425781 250.257812-13.527343 13.523438c15.382812 15.382812 15.382812 40.414062 0 55.796875-7.695313 7.695313-17.792969 11.539063-27.898438 11.539063-.0625 0-.128906-.003907-.191406-.003907v19.121094c.0625 0 .128906.003906.191406.003906 15 0 30.003906-5.710937 41.425781-17.132812 22.84375-22.839844 22.84375-60.007813 0-82.847657zm0 0" fill="#e9edf5"/><path d="m246.433594 235.488281h19.132812v63.371094h-19.132812zm0 0" fill="#fff"/><path d="m255.808594 235.488281h9.757812v63.371094h-9.757812zm0 0" fill="#e9edf5"/><path d="m381.707031 200.988281h-251.414062v-9.410156c0-69.425781 56.28125-125.707031 125.707031-125.707031s125.703125 56.28125 125.703125 125.707031v9.410156zm0 0" fill="#636978"/><path d="m381.707031 191.578125c0-69.425781-56.28125-125.707031-125.707031-125.707031-.0625 0-.128906 0-.191406 0v135.117187h125.898437zm0 0" fill="#555a66"/><path d="m120.378906 159.109375h271.242188v61.5h-271.242188zm0 0" fill="#555a66"/><path d="m255.808594 159.109375h135.8125v61.5h-135.8125zm0 0" fill="#333940"/><path d="m234.855469 145.871094h42.292969c24.769531 0 44.851562-20.082032 44.851562-44.851563v-16.4375c-19.183594-11.859375-41.789062-18.710937-66-18.710937s-46.816406 6.851562-66 18.710937v16.4375c0 24.769531 20.082031 44.851563 44.855469 44.851563zm0 0" fill="#555a66"/><path d="m256 65.871094c-.0625 0-.128906.003906-.191406.003906v79.996094h21.339844c24.769531 0 44.851562-20.082032 44.851562-44.851563v-16.4375c-19.183594-11.859375-41.789062-18.710937-66-18.710937zm0 0" fill="#333940"/></svg>