<svg height="512pt" viewBox="0 0 512 512" width="512pt" xmlns="http://www.w3.org/2000/svg"><path d="m512 256c0 141.386719-114.613281 256-256 256s-256-114.613281-256-256 114.613281-256 256-256 256 114.613281 256 256zm0 0" fill="#ff583e"/><path d="m512 256c0-16.171875-1.515625-31.988281-4.382812-47.324219l-101.878907-101.878906 14.667969 53.148437-99.945312-99.945312-10.375 71.378906-68.160157-68.164062 2.875 182.121094-121.714843-121.714844-53.761719 46.570312 14.460937 127.378906 22.476563 47.632813 166.25 166.25c133.6875-8.511719 239.488281-119.617187 239.488281-255.453125zm0 0" fill="#e81d13"/><path d="m355 294.464844c18.289062-18.289063 28.359375-42.601563 28.359375-68.464844s-10.070313-50.175781-28.359375-68.464844l16.824219-16.824218c22.78125 22.78125 35.328125 53.070312 35.328125 85.289062s-12.546875 62.507812-35.328125 85.289062zm0 0" fill="#ffc200"/><path d="m388.914062 328.378906c27.347657-27.347656 42.410157-63.707031 42.410157-102.378906s-15.0625-75.03125-42.410157-102.378906l16.824219-16.824219c31.839844 31.839844 49.378907 74.175781 49.378907 119.203125 0 45.03125-17.539063 87.363281-49.378907 119.203125zm0 0" fill="#ffc200"/><path d="m157 157.535156c-18.289062 18.289063-28.359375 42.601563-28.359375 68.464844s10.070313 50.175781 28.359375 68.464844l-16.824219 16.824218c-22.78125-22.78125-35.328125-53.070312-35.328125-85.289062s12.546875-62.507812 35.328125-85.289062zm0 0" fill="#ffe000"/><path d="m123.085938 123.621094c-27.347657 27.347656-42.410157 63.707031-42.410157 102.378906s15.0625 75.03125 42.410157 102.378906l-16.824219 16.824219c-31.839844-31.839844-49.378907-74.175781-49.378907-119.203125 0-.003906 0 .003906 0 0 0-45.03125 17.539063-87.363281 49.378907-119.203125zm0 0" fill="#ffe000"/><path d="m215.085938 381.464844h81.828124v70.589844h-81.828124zm0 0" fill="#dce1eb"/><path d="m255.808594 381.464844h41.105468v70.589844h-41.105468zm0 0" fill="#cdd2e1"/><path d="m251.210938 303.328125h-72.253907v-215.933594c0-19.953125 16.175781-36.128906 36.128907-36.128906 19.953124 0 36.128906 16.175781 36.128906 36.128906v215.933594zm0 0" fill="#fff"/><g fill="#e9edf5"><path d="m333.042969 303.328125h-72.253907v-215.933594c0-19.953125 16.175782-36.128906 36.128907-36.128906s36.128906 16.175781 36.128906 36.128906v215.933594zm0 0"/><path d="m256 405.515625c-49.195312 0-89.074219-39.878906-89.074219-89.074219v-21.355468h178.148438v21.355468c0 49.195313-39.878907 89.074219-89.074219 89.074219zm0 0"/><path d="m255.808594 295.085938v110.425781c.066406 0 .128906.003906.191406.003906 49.195312 0 89.074219-39.882813 89.074219-89.074219v-21.355468zm0 0"/></g><path d="m160.851562 261h190.296876v89.300781h-190.296876zm0 0" fill="#dce1eb"/><path d="m255.808594 261h95.339844v89.300781h-95.339844zm0 0" fill="#cdd2e1"/></svg>