<svg height="512pt" viewBox="0 0 512 512" width="512pt" xmlns="http://www.w3.org/2000/svg"><path d="m512 256c0 141.386719-114.613281 256-256 256s-256-114.613281-256-256 114.613281-256 256-256 256 114.613281 256 256zm0 0" fill="#4a7aff"/><path d="m512 256c0-10.636719-.660156-21.117188-1.921875-31.414062l-113.253906-113.253907-140.824219-44.117187-134.667969 48.335937-54.214843 112.972657 41.898437 165.894531 115.675781 115.671875c10.261719 1.253906 20.707032 1.910156 31.308594 1.910156 141.386719 0 256-114.613281 256-256zm0 0" fill="#0053bf"/><path d="m347.496094 279.992188c0 50.53125-40.964844 91.496093-91.496094 91.496093s-91.496094-40.964843-91.496094-91.496093 91.496094-164.441407 91.496094-164.441407 91.496094 113.910157 91.496094 164.441407zm0 0" fill="#53edf5"/><path d="m256 371.488281c50.53125 0 91.496094-40.964843 91.496094-91.496093s-91.496094-164.441407-91.496094-164.441407zm0 0" fill="#42cbea"/><path d="m256 54c-111.382812 0-202 90.617188-202 202s90.617188 202 202 202 202-90.617188 202-202-90.617188-202-202-202zm132.089844 313.585938-15.238282-15.242188-20.507812 20.507812 15.238281 15.238282c-26.679687 22.574218-60.257812 37.226562-97.082031 40.296875v-21.636719h-29v21.636719c-36.824219-3.070313-70.40625-17.722657-97.085938-40.296875l15.242188-15.242188-20.507812-20.503906-15.242188 15.238281c-22.570312-26.679687-37.222656-60.257812-40.292969-97.082031h21.636719v-29h-21.636719c3.070313-36.824219 17.722657-70.402344 40.296875-97.085938l15.242188 15.242188 20.503906-20.503906-15.238281-15.242188c26.679687-22.574218 60.257812-37.226562 97.082031-40.296875v21.636719h29v-21.636719c36.824219 3.070313 70.402344 17.722657 97.085938 40.296875l-15.242188 15.238282 20.507812 20.507812 15.242188-15.242188c22.570312 26.679688 37.226562 60.261719 40.296875 97.085938h-21.640625v29h21.636719c-3.070313 36.824219-17.722657 70.402344-40.296875 97.085938zm0 0" fill="#fff"/><path d="m256 54c-.0625 0-.128906.003906-.191406.003906v51.246094h14.691406v-21.636719c36.824219 3.070313 70.402344 17.722657 97.085938 40.296875l-15.242188 15.238282 20.507812 20.507812 15.238282-15.242188c22.574218 26.679688 37.226562 60.261719 40.296875 97.085938h-21.636719v29h21.636719c-3.070313 36.824219-17.722657 70.402344-40.296875 97.082031l-15.238282-15.238281-20.507812 20.503906 15.238281 15.242188c-26.679687 22.570312-60.257812 37.226562-97.082031 40.296875v-21.636719h-14.691406v51.246094c.0625 0 .128906.003906.191406.003906 111.382812 0 202-90.617188 202-202s-90.617188-202-202-202zm0 0" fill="#e9edf5"/></svg>