<svg height="512pt" viewBox="0 0 512 512" width="512pt" xmlns="http://www.w3.org/2000/svg"><path d="m512 256c0 141.386719-114.613281 256-256 256s-256-114.613281-256-256 114.613281-256 256-256 256 114.613281 256 256zm0 0" fill="#4a7aff"/><path d="m512 256c0-.324219-.011719-.644531-.011719-.96875l-82.105469-82.105469-6.289062 8.820313-76.878906-76.878906-262.128906 198.992187 94.75 94.75-27.527344 25.164063 87.683594 87.683593c5.460937.347657 10.960937.542969 16.507812.542969 141.386719 0 256-114.613281 256-256zm0 0" fill="#0053bf"/><path d="m361.035156 328.972656c51.480469 0 93.214844-41.734375 93.214844-93.214844 0-48.839843-37.558594-88.898437-85.371094-92.886718-14.539062-43.230469-55.398437-74.371094-103.53125-74.371094-51.660156 0-94.9375 35.871094-106.296875 84.0625-4.128906-.589844-8.351562-.902344-12.644531-.902344-48.964844 0-88.65625 39.695313-88.65625 88.65625 0 48.964844 39.691406 88.65625 88.65625 88.65625zm0 0" fill="#fff"/><path d="m368.878906 142.871094c-14.539062-43.230469-55.398437-74.371094-103.53125-74.371094-3.214844 0-6.394531.140625-9.539062.410156v260.0625h105.226562c51.480469 0 93.214844-41.734375 93.214844-93.214844 0-48.839843-37.5625-88.898437-85.371094-92.886718zm0 0" fill="#e9edf5"/><path d="m360.1875 423.773438h-208.375v-156.84375l103.996094-67.222657 104.378906 67.222657zm0 0" fill="#ffe000"/><path d="m360.1875 266.929688-104.378906-67.222657v224.066407h104.378906zm0 0" fill="#ffc200"/><path d="m374.628906 283.71875-118.820312-76.539062-118.4375 76.539062-12.957032-20.082031 131.394532-84.898438 131.777344 84.898438zm0 0" fill="#ff583e"/><path d="m255.808594 178.738281v28.566407-.125l118.820312 76.539062 12.957032-20.082031zm0 0" fill="#e81d13"/><path d="m218.503906 303.859375h74.992188v119.914063h-74.992188zm0 0" fill="#ff583e"/><path d="m255.808594 303.859375h37.6875v119.914063h-37.6875zm0 0" fill="#e81d13"/></svg>