<svg height="512pt" viewBox="0 0 512 512" width="512pt" xmlns="http://www.w3.org/2000/svg"><path d="m512 256c0 141.386719-114.613281 256-256 256s-256-114.613281-256-256 114.613281-256 256-256 256 114.613281 256 256zm0 0" fill="#ff583e"/><path d="m512 256c0-.570312-.019531-1.136719-.019531-1.707031l-79.804688-79.804688-201.367187-70.371093-133.632813 97.261718 90.859375 90.859375-71.527344 96.648438 122.539063 122.542969c5.605469.363281 11.253906.570312 16.953125.570312 141.386719 0 256-114.613281 256-256zm0 0" fill="#e81d13"/><path d="m395.492188 388.886719h-278.984376v-209.988281l139.429688-90 139.554688 90zm0 0" fill="#555a66"/><path d="m395.492188 178.898438-139.554688-90v.121093l-.128906 299.867188h139.683594zm0 0" fill="#333940"/><path d="m414.824219 201.378906-158.886719-102.472656-158.761719 102.472656-17.351562-26.890625 176.113281-113.667969 176.238281 113.667969zm0 0" fill="#fff"/><path d="m255.9375 60.820312v38.207032-.121094l158.886719 102.472656 17.351562-26.890625zm0 0" fill="#e9edf5"/><path d="m256 201.816406c-51.953125 0-96.597656 31.261719-116.171875 76 19.570313 44.738282 64.21875 76 116.171875 76s96.597656-31.261718 116.171875-76c-19.574219-44.738281-64.21875-76-116.171875-76zm0 0" fill="#fff"/><path d="m256 201.816406c-.0625 0-.128906.003906-.191406.003906v151.992188c.066406 0 .128906.003906.191406.003906 51.953125 0 96.597656-31.261718 116.171875-76-19.574219-44.738281-64.21875-76-116.171875-76zm0 0" fill="#e9edf5"/><path d="m326.300781 277.816406c0 38.828125-31.472656 70.300782-70.300781 70.300782s-70.300781-31.472657-70.300781-70.300782 31.472656-70.300781 70.300781-70.300781 70.300781 31.472656 70.300781 70.300781zm0 0" fill="#4a7aff"/><path d="m256 207.515625c-.0625 0-.128906.003906-.191406.003906v140.59375c.066406 0 .128906.003907.191406.003907 38.828125 0 70.300781-31.472657 70.300781-70.300782s-31.472656-70.300781-70.300781-70.300781zm0 0" fill="#0053bf"/><path d="m303.210938 277.816406c0 26.074219-21.136719 47.210938-47.210938 47.210938s-47.210938-21.136719-47.210938-47.210938c0-26.074218 21.136719-47.210937 47.210938-47.210937s47.210938 21.136719 47.210938 47.210937zm0 0" fill="#333940"/><path d="m256 230.605469c-.0625 0-.128906.003906-.191406.003906v94.414063c.066406 0 .128906.003906.191406.003906 26.074219 0 47.210938-21.136719 47.210938-47.210938 0-26.074218-21.136719-47.210937-47.210938-47.210937zm0 0" fill="#23272b"/></svg>